<svg viewBox="0 0 940 761" xmlns="http://www.w3.org/2000/svg" xmlns:ev="http://www.w3.org/2001/xml-events" width="940" height="761" xmlns:xlink="http://www.w3.org/1999/xlink"><defs/><g transform="translate(5.5,5.5)" id="page1"><rect fill="#ffffff" x="0" y="0" width="930" height="751"/><g transform="translate(40.000000,366.701000)" id="shape1"><path stroke-width="3.333329916000366" fill="#f5f8ff" d="M100.0,60.0L100.0,.0L.0,.0L.0,60.0L100.0,60.0z" stroke="#69afff" fill-rule="nonzero"/><text style="fill:#454545;font-family:Arial;font-size:12.00pt" xml:space="preserve"><tspan x="17.5" y="27.0">Exploring </tspan><tspan x="34.5" y="46.0">data</tspan></text></g><g transform="translate(140.000000,396.701000)" id="shape2"><path stroke-width="2" fill="none" stroke="#454545" d="M.0,.0L32.0,.0L32.0,-208.0L51.5,-208.0"/><path stroke-linecap="round" stroke-width="1" fill="#454545" stroke="#454545" d="M51.5,-212.2L60.0,-208.0L51.5,-203.8L51.5,-212.2"/></g><g transform="translate(200.000000,152.101000)" id="shape3"><path stroke-width="3.333329916000366" fill="#f5f8ff" d="M122.0,66.2L122.0,7.0C122.0,3.1,118.9,.0,115.0,.0L7.0,.0C3.1,.0,.0,3.1,.0,7.0L.0,66.2C.0,70.1,3.1,73.2,7.0,73.2L115.0,73.2C118.9,73.2,122.0,70.1,122.0,66.2z" stroke="#69afff" fill-rule="nonzero"/><text style="fill:#454545;font-family:Arial;font-size:12.00pt" xml:space="preserve"><tspan x="26.0" y="34.0">Numerical </tspan><tspan x="29.5" y="53.0">variables</tspan></text></g><g transform="translate(200.000000,587.101000)" id="shape4"><path stroke-width="3.333329916000366" fill="#f5f8ff" d="M122.0,66.2L122.0,7.0C122.0,3.1,118.9,.0,115.0,.0L7.0,.0C3.1,.0,.0,3.1,.0,7.0L.0,66.2C.0,70.1,3.1,73.2,7.0,73.2L115.0,73.2C118.9,73.2,122.0,70.1,122.0,66.2z" stroke="#69afff" fill-rule="nonzero"/><text style="fill:#454545;font-family:Arial;font-size:12.00pt" xml:space="preserve"><tspan x="20.5" y="34.0">Categorical </tspan><tspan x="29.5" y="53.0">variables</tspan></text></g><g transform="translate(322.000000,188.701000)" id="shape5"><path stroke-width="2" fill="none" stroke="#454545" d="M.0,.0L50.0,.0L50.0,-76.0L69.5,-76.0"/><path stroke-linecap="round" stroke-width="1" fill="#454545" stroke="#454545" d="M69.5,-80.2L78.0,-76.0L69.5,-71.8L69.5,-80.2"/></g><g transform="translate(400.500000,75.701000)" id="shape6"><path stroke-width="3.333329916000366" fill="#f5f8ff" d="M121.5,65.9L121.5,7.0C121.5,3.1,118.4,.0,114.5,.0L7.0,.0C3.1,.0,.0,3.1,.0,7.0L.0,65.9C.0,69.8,3.1,72.9,7.0,72.9L114.5,72.9C118.4,72.9,121.5,69.8,121.5,65.9z" stroke="#69afff" fill-rule="nonzero"/><text style="fill:#454545;font-family:Arial;font-size:12.00pt" xml:space="preserve"><tspan x="10.8" y="33.5">One numerical </tspan><tspan x="33.3" y="52.5">variable</tspan></text></g><g transform="translate(400.500000,235.190000)" id="shape7"><path stroke-width="3.333329916000366" fill="#f5f8ff" d="M121.5,65.9L121.5,7.0C121.5,3.1,118.4,.0,114.5,.0L7.0,.0C3.1,.0,.0,3.1,.0,7.0L.0,65.9C.0,69.8,3.1,72.9,7.0,72.9L114.5,72.9C118.4,72.9,121.5,69.8,121.5,65.9z" stroke="#69afff" fill-rule="nonzero"/><text style="fill:#454545;font-family:Arial;font-size:12.00pt" xml:space="preserve"><tspan x="11.3" y="33.5">Two numerical </tspan><tspan x="29.3" y="52.5">variables</tspan></text></g><g transform="translate(322.000000,188.701000)" id="shape8"><path stroke-width="2" fill="none" stroke="#454545" d="M.0,.0L50.0,.0L50.0,83.0L69.5,83.0"/><path stroke-linecap="round" stroke-width="1" fill="#454545" stroke="#454545" d="M69.5,78.8L78.0,83.0L69.5,87.2L69.5,78.8"/></g><g transform="translate(400.000000,537.861000)" id="shape9"><path stroke-width="3.333329916000366" fill="#f5f8ff" d="M121.5,65.9L121.5,7.0C121.5,3.1,118.4,.0,114.5,.0L7.0,.0C3.1,.0,.0,3.1,.0,7.0L.0,65.9C.0,69.8,3.1,72.9,7.0,72.9L114.5,72.9C118.4,72.9,121.5,69.8,121.5,65.9z" stroke="#69afff" fill-rule="nonzero"/><text style="fill:#454545;font-family:Arial;font-size:12.00pt" xml:space="preserve"><tspan x="5.8" y="33.5">One categorical </tspan><tspan x="33.3" y="52.5">variable</tspan></text></g><g transform="translate(400.000000,638.751000)" id="shape10"><path stroke-width="3.333329916000366" fill="#f5f8ff" d="M121.5,65.9L121.5,7.0C121.5,3.1,118.4,.0,114.5,.0L7.0,.0C3.1,.0,.0,3.1,.0,7.0L.0,65.9C.0,69.8,3.1,72.9,7.0,72.9L114.5,72.9C118.4,72.9,121.5,69.8,121.5,65.9z" stroke="#69afff" fill-rule="nonzero"/><text style="fill:#454545;font-family:Arial;font-size:12.00pt" xml:space="preserve"><tspan x="6.3" y="33.5">Two categorical </tspan><tspan x="29.3" y="52.5">variables</tspan></text></g><g transform="translate(322.000000,623.701000)" id="shape11"><path stroke-width="2" fill="none" stroke="#454545" d="M.0,.0L50.0,.0L50.0,-49.0L69.5,-49.0"/><path stroke-linecap="round" stroke-width="1" fill="#454545" stroke="#454545" d="M69.5,-53.2L78.0,-49.0L69.5,-44.8L69.5,-53.2"/></g><g transform="translate(322.000000,623.701000)" id="shape12"><path stroke-width="2" fill="none" stroke="#454545" d="M.0,.0L50.0,.0L50.0,51.0L69.5,51.0"/><path stroke-linecap="round" stroke-width="1" fill="#454545" stroke="#454545" d="M69.5,46.8L78.0,51.0L69.5,55.2L69.5,46.8"/></g><g transform="translate(570.500000,140.750000)" id="shape13"><path stroke-width="3.333329916000366" fill="#f5f8ff" d="M121.5,60.0L121.5,.0L.0,.0L.0,60.0L121.5,60.0z" stroke="#69afff" fill-rule="nonzero"/><text style="fill:#454545;font-family:Arial;font-size:12.00pt" xml:space="preserve"><tspan x="21.8" y="27.0">Measure of </tspan><tspan x="36.3" y="46.0">spread</tspan></text></g><g transform="translate(570.000000,39.859900)" id="shape14"><path stroke-width="3.333329916000366" fill="#f5f8ff" d="M121.5,60.0L121.5,.0L.0,.0L.0,60.0L121.5,60.0z" stroke="#69afff" fill-rule="nonzero"/><text style="fill:#454545;font-family:Arial;font-size:12.00pt" xml:space="preserve"><tspan x="21.8" y="27.0">Measure of </tspan><tspan x="39.3" y="46.0">center</tspan></text></g><g transform="translate(570.500000,241.037000)" id="shape15"><path stroke-width="3.333329916000366" fill="#f5f8ff" d="M121.5,60.0L121.5,.0L.0,.0L.0,60.0L121.5,60.0z" stroke="#69afff" fill-rule="nonzero"/><text style="fill:#454545;font-family:Arial;font-size:12.00pt" xml:space="preserve"><tspan x="22.3" y="36.5">Correlation</tspan></text></g><g transform="translate(570.000000,544.910000)" id="shape16"><path stroke-width="3.333329916000366" fill="#f5f8ff" d="M121.5,60.0L121.5,.0L.0,.0L.0,60.0L121.5,60.0z" stroke="#69afff" fill-rule="nonzero"/><text style="fill:#454545;font-family:Arial;font-size:12.00pt" xml:space="preserve"><tspan x="5.3" y="36.5">Frequency table</tspan></text></g><g transform="translate(570.000000,645.201000)" id="shape17"><path stroke-width="3.333329916000366" fill="#f5f8ff" d="M121.5,60.0L121.5,.0L.0,.0L.0,60.0L121.5,60.0z" stroke="#69afff" fill-rule="nonzero"/><text style="fill:#454545;font-family:Arial;font-size:12.00pt" xml:space="preserve"><tspan x="17.8" y="27.0">Contingency </tspan><tspan x="43.8" y="46.0">table</tspan></text></g><g transform="translate(521.500000,675.201000)" id="shape18"><path stroke-width="2" fill="none" stroke="#454545" d="M.0,.0L40.5,.0"/><path stroke-linecap="round" stroke-width="1" fill="#454545" stroke="#454545" d="M40.5,-4.2L49.0,.0L40.5,4.2L40.5,-4.2"/></g><g transform="translate(521.500000,574.311000)" id="shape19"><path stroke-width="2" fill="none" stroke="#454545" d="M.0,.0L40.5,.0"/><path stroke-linecap="round" stroke-width="1" fill="#454545" stroke="#454545" d="M40.5,-4.2L49.0,.0L40.5,4.2L40.5,-4.2"/></g><g transform="translate(522.000000,271.640000)" id="shape20"><path stroke-width="2" fill="none" stroke="#454545" d="M.0,.0L38.5,.0"/><path stroke-linecap="round" stroke-width="1" fill="#454545" stroke="#454545" d="M38.5,-4.2L47.0,.0L38.5,4.2L38.5,-4.2"/></g><g transform="translate(522.000000,112.151000)" id="shape21"><path stroke-width="2" fill="none" stroke="#454545" d="M.0,.0L26.0,.0L26.0,-43.0L38.5,-43.0"/><path stroke-linecap="round" stroke-width="1" fill="#454545" stroke="#454545" d="M38.5,-47.2L47.0,-43.0L38.5,-38.8L38.5,-47.2"/></g><g transform="translate(522.000000,112.151000)" id="shape22"><path stroke-width="2" fill="none" stroke="#454545" d="M.0,.0L26.0,.0L26.0,58.0L38.5,58.0"/><path stroke-linecap="round" stroke-width="1" fill="#454545" stroke="#454545" d="M38.5,53.8L47.0,58.0L38.5,62.2L38.5,53.8"/></g><g transform="translate(400.000000,386.375500)" id="shape23"><path stroke-width="3.333329916000366" fill="#f5f8ff" d="M122.0,66.2L122.0,7.0C122.0,3.1,118.9,.0,115.0,.0L7.0,.0C3.1,.0,.0,3.1,.0,7.0L.0,66.2C.0,70.1,3.1,73.2,7.0,73.2L115.0,73.2C118.9,73.2,122.0,70.1,122.0,66.2z" stroke="#69afff" fill-rule="nonzero"/><text style="fill:#454545;font-family:Arial;font-size:12.00pt" xml:space="preserve"><tspan x="15.0" y="34.0">One numeric, </tspan><tspan x="7.5" y="53.0">one categorical</tspan></text></g><g transform="translate(140.000000,396.701000)" id="shape24"><path stroke-width="2" fill="none" stroke="#454545" d="M.0,.0L32.0,.0L32.0,227.0L51.5,227.0"/><path stroke-linecap="round" stroke-width="1" fill="#454545" stroke="#454545" d="M51.5,222.8L60.0,227.0L51.5,231.2L51.5,222.8"/></g><g transform="translate(570.500000,443.420000)" id="shape25"><path stroke-width="3.333329916000366" fill="#f5f8ff" d="M184.5,60.0L184.5,.0L.0,.0L.0,60.0L184.5,60.0z" stroke="#69afff" fill-rule="nonzero"/><text style="fill:#454545;font-family:Arial;font-size:12.00pt" xml:space="preserve"><tspan x="26.8" y="27.0">Measure of spread </tspan><tspan x="6.8" y="46.0">across categorical levels</tspan></text></g><g transform="translate(570.499900,342.530000)" id="shape26"><path stroke-width="3.333329916000366" fill="#f5f8ff" d="M185.7,60.0L185.7,.0L.0,.0L.0,60.0L185.7,60.0z" stroke="#69afff" fill-rule="nonzero"/><text style="fill:#454545;font-family:Arial;font-size:12.00pt" xml:space="preserve"><tspan x="4.9" y="27.0">Measure of center across </tspan><tspan x="32.9" y="46.0">categorical levels</tspan></text></g><g transform="translate(522.000000,422.975500)" id="shape27"><path stroke-width="2" fill="none" stroke="#454545" d="M.0,.0L28.0,.0L28.0,-50.0L39.5,-50.0"/><path stroke-linecap="round" stroke-width="1" fill="#454545" stroke="#454545" d="M39.5,-54.2L48.0,-50.0L39.5,-45.8L39.5,-54.2"/></g><g transform="translate(522.000000,422.975500)" id="shape28"><path stroke-width="2" fill="none" stroke="#454545" d="M.0,.0L28.0,.0L28.0,51.0L39.5,51.0"/><path stroke-linecap="round" stroke-width="1" fill="#454545" stroke="#454545" d="M39.5,46.8L48.0,51.0L39.5,55.2L39.5,46.8"/></g><g transform="translate(322.000000,188.701000)" id="shape29"><path stroke-width="2" fill="none" stroke="#454545" d="M.0,.0L30.0,.0L30.0,234.3L69.5,234.3"/><path stroke-linecap="round" stroke-width="1" fill="#454545" stroke="#454545" d="M69.5,230.0L78.0,234.3L69.5,238.5L69.5,230.0"/></g><g transform="translate(322.000000,623.701000)" id="shape30"><path stroke-width="2" fill="none" stroke="#454545" d="M.0,.0L30.0,.0L30.0,-200.7L69.5,-200.7"/><path stroke-linecap="round" stroke-width="1" fill="#454545" stroke="#454545" d="M69.5,-205.0L78.0,-200.7L69.5,-196.5L69.5,-205.0"/></g><g transform="translate(791.000000,39.859900)" id="shape31"><path stroke-width="3.333329916000366" fill="#f5f8ff" d="M100.0,60.0L100.0,.0L.0,.0L.0,60.0L100.0,60.0z" stroke="#69afff" fill-rule="nonzero"/><text style="fill:#454545;font-family:Arial;font-size:12.00pt" xml:space="preserve"><tspan x="10.5" y="27.0">Visualizing:</tspan><tspan x="14.0" y="46.0">Histogram</tspan></text></g><g transform="translate(791.000000,140.750000)" id="shape32"><path stroke-width="3.333329916000366" fill="#f5f8ff" d="M100.0,60.0L100.0,.0L.0,.0L.0,60.0L100.0,60.0z" stroke="#69afff" fill-rule="nonzero"/><text style="fill:#454545;font-family:Arial;font-size:12.00pt" xml:space="preserve"><tspan x="10.5" y="27.0">Visualizing:</tspan><tspan x="22.0" y="46.0">Box plot</tspan></text></g><g transform="translate(791.000000,241.640000)" id="shape33"><path stroke-width="3.333329916000366" fill="#f5f8ff" d="M100.0,60.0L100.0,.0L.0,.0L.0,60.0L100.0,60.0z" stroke="#69afff" fill-rule="nonzero"/><text style="fill:#454545;font-family:Arial;font-size:12.00pt" xml:space="preserve"><tspan x="10.5" y="27.0">Visualizing:</tspan><tspan x="10.5" y="46.0">Scatter plot</tspan></text></g><g transform="translate(791.000000,342.530000)" id="shape34"><path stroke-width="3.333329916000366" fill="#f5f8ff" d="M100.0,60.0L100.0,.0L.0,.0L.0,60.0L100.0,60.0z" stroke="#69afff" fill-rule="nonzero"/><text style="fill:#454545;font-family:Arial;font-size:12.00pt" xml:space="preserve"><tspan x="10.5" y="27.0">Visualizing:</tspan><tspan x="14.0" y="46.0">Histogram</tspan></text></g><g transform="translate(791.000000,443.420000)" id="shape35"><path stroke-width="3.333329916000366" fill="#f5f8ff" d="M100.0,60.0L100.0,.0L.0,.0L.0,60.0L100.0,60.0z" stroke="#69afff" fill-rule="nonzero"/><text style="fill:#454545;font-family:Arial;font-size:12.00pt" xml:space="preserve"><tspan x="10.5" y="27.0">Visualizing:</tspan><tspan x="22.0" y="46.0">Box plot</tspan></text></g><g transform="translate(791.000000,544.311000)" id="shape36"><path stroke-width="3.333329916000366" fill="#f5f8ff" d="M100.0,60.0L100.0,.0L.0,.0L.0,60.0L100.0,60.0z" stroke="#69afff" fill-rule="nonzero"/><text style="fill:#454545;font-family:Arial;font-size:12.00pt" xml:space="preserve"><tspan x="10.5" y="27.0">Visualizing:</tspan><tspan x="23.0" y="46.0">Bar plot</tspan></text></g><g transform="translate(791.000000,645.201000)" id="shape37"><path stroke-width="3.333329916000366" fill="#f5f8ff" d="M100.0,60.0L100.0,.0L.0,.0L.0,60.0L100.0,60.0z" stroke="#69afff" fill-rule="nonzero"/><text style="fill:#454545;font-family:Arial;font-size:12.00pt" xml:space="preserve"><tspan x="10.5" y="27.0">Visualizing:</tspan><tspan x="10.0" y="46.0">moseic plot</tspan></text></g><g transform="translate(691.500000,69.859900)" id="shape38"><path stroke-width="2" fill="none" stroke="#454545" d="M.0,.0L91.5,.0"/><path stroke-linecap="round" stroke-width="1" fill="#454545" stroke="#454545" d="M91.5,-4.2L100.0,.0L91.5,4.2L91.5,-4.2"/></g><g transform="translate(692.000000,170.750000)" id="shape39"><path stroke-width="2" fill="none" stroke="#454545" d="M.0,.0L89.5,.0"/><path stroke-linecap="round" stroke-width="1" fill="#454545" stroke="#454545" d="M89.5,-4.2L98.0,.0L89.5,4.2L89.5,-4.2"/></g><g transform="translate(692.000000,271.037000)" id="shape40"><path stroke-width="2" fill="none" stroke="#454545" d="M.0,.0L89.5,.0"/><path stroke-linecap="round" stroke-width="1" fill="#454545" stroke="#454545" d="M89.5,-4.2L98.0,.0L89.5,4.2L89.5,-4.2"/></g><g transform="translate(756.239900,372.530000)" id="shape41"><path stroke-width="2" fill="none" stroke="#454545" d="M.0,.0L25.5,.0"/><path stroke-linecap="round" stroke-width="1" fill="#454545" stroke="#454545" d="M25.5,-4.2L34.0,.0L25.5,4.2L25.5,-4.2"/></g><g transform="translate(755.000000,473.420000)" id="shape42"><path stroke-width="2" fill="none" stroke="#454545" d="M.0,.0L26.5,.0"/><path stroke-linecap="round" stroke-width="1" fill="#454545" stroke="#454545" d="M26.5,-4.2L35.0,.0L26.5,4.2L26.5,-4.2"/></g><g transform="translate(691.500000,574.910000)" id="shape43"><path stroke-width="2" fill="none" stroke="#454545" d="M.0,.0L91.5,.0"/><path stroke-linecap="round" stroke-width="1" fill="#454545" stroke="#454545" d="M91.5,-4.2L100.0,.0L91.5,4.2L91.5,-4.2"/></g><g transform="translate(691.500000,675.201000)" id="shape44"><path stroke-width="2" fill="none" stroke="#454545" d="M.0,.0L91.5,.0"/><path stroke-linecap="round" stroke-width="1" fill="#454545" stroke="#454545" d="M91.5,-4.2L100.0,.0L91.5,4.2L91.5,-4.2"/></g></g></svg>