<svg width="1090" height="755" xmlns="http://www.w3.org/2000/svg" xmlns:ev="http://www.w3.org/2001/xml-events" viewBox="0 0 1090 755" xmlns:xlink="http://www.w3.org/1999/xlink"><defs/><g id="page1" transform="translate(5.5,5.5)"><rect width="1080" x="0" height="745" y="0" fill="#ffffff"/><g id="shape1" transform="translate(44.000000,366.700787)"><path stroke="#ff6991" d="M100.0,60.0L100.0,.0L.0,.0L.0,60.0L100.0,60.0z" stroke-width="3.333329916000366" fill="#fff5f7" fill-rule="nonzero"/><text xml:space="preserve" style="fill:#303030;font-family:Arial;font-size:12.00pt"><tspan x="17.5" y="27.0">Exploring </tspan><tspan x="34.5" y="46.0">data</tspan></text></g><g id="shape2" transform="translate(144.000000,396.700787)"><path stroke="#454545" d="M.0,.0L86.0,.0L86.0,-208.0L105.5,-208.0" stroke-width="2" fill="none"/><path stroke="#454545" d="M105.5,-212.2L114.0,-208.0L105.5,-203.8L105.5,-212.2" stroke-width="1" fill="#454545" stroke-linecap="round"/></g><g id="shape3" transform="translate(258.000000,158.700787)"><path stroke="#ff6991" d="M122.0,60.0L122.0,.0L.0,.0L.0,60.0L122.0,60.0z" stroke-width="3.333329916000366" fill="#fff5f7" fill-rule="nonzero"/><text xml:space="preserve" style="fill:#303030;font-family:Arial;font-size:12.00pt"><tspan x="26.0" y="27.0">Numerical </tspan><tspan x="29.5" y="46.0">variables</tspan></text></g><g id="shape4" transform="translate(258.000000,593.700787)"><path stroke="#ff6991" d="M122.0,60.0L122.0,.0L.0,.0L.0,60.0L122.0,60.0z" stroke-width="3.333329916000366" fill="#fff5f7" fill-rule="nonzero"/><text xml:space="preserve" style="fill:#303030;font-family:Arial;font-size:12.00pt"><tspan x="20.5" y="27.0">Categorical </tspan><tspan x="29.5" y="46.0">variables</tspan></text></g><g id="shape5" transform="translate(380.000000,188.700787)"><path stroke="#454545" d="M.0,.0L65.0,.0L65.0,-82.0L84.5,-82.0" stroke-width="2" fill="none"/><path stroke="#454545" d="M84.5,-86.2L93.0,-82.0L84.5,-77.8L84.5,-86.2" stroke-width="1" fill="#454545" stroke-linecap="round"/></g><g id="shape6" transform="translate(473.750000,80.473515)"><path stroke="#ff6991" d="M121.5,52.8L121.5,.0L.0,.0L.0,52.8L121.5,52.8z" stroke-width="3.333329916000366" fill="#fff5f7" fill-rule="nonzero"/><text xml:space="preserve" style="fill:#303030;font-family:Arial;font-size:12.00pt"><tspan x="10.8" y="23.5">One numerical </tspan><tspan x="33.3" y="42.5">variable</tspan></text></g><g id="shape7" transform="translate(474.250000,245.253818)"><path stroke="#ff6991" d="M121.5,52.8L121.5,.0L.0,.0L.0,52.8L121.5,52.8z" stroke-width="3.333329916000366" fill="#fff5f7" fill-rule="nonzero"/><text xml:space="preserve" style="fill:#303030;font-family:Arial;font-size:12.00pt"><tspan x="11.3" y="23.5">Two numerical </tspan><tspan x="29.3" y="42.5">variables</tspan></text></g><g id="shape8" transform="translate(380.000000,188.700787)"><path stroke="#454545" d="M.0,.0L65.0,.0L65.0,83.0L85.5,83.0" stroke-width="2" fill="none"/><path stroke="#454545" d="M85.5,78.8L94.0,83.0L85.5,87.2L85.5,78.8" stroke-width="1" fill="#454545" stroke-linecap="round"/></g><g id="shape9" transform="translate(473.750000,547.924272)"><path stroke="#ff6991" d="M121.5,52.8L121.5,.0L.0,.0L.0,52.8L121.5,52.8z" stroke-width="3.333329916000366" fill="#fff5f7" fill-rule="nonzero"/><text xml:space="preserve" style="fill:#303030;font-family:Arial;font-size:12.00pt"><tspan x="5.8" y="23.5">One categorical </tspan><tspan x="33.3" y="42.5">variable</tspan></text></g><g id="shape10" transform="translate(473.750000,648.814424)"><path stroke="#ff6991" d="M121.5,52.8L121.5,.0L.0,.0L.0,52.8L121.5,52.8z" stroke-width="3.333329916000366" fill="#fff5f7" fill-rule="nonzero"/><text xml:space="preserve" style="fill:#303030;font-family:Arial;font-size:12.00pt"><tspan x="6.3" y="23.5">Two categorical </tspan><tspan x="29.3" y="42.5">variables</tspan></text></g><g id="shape11" transform="translate(380.000000,623.700787)"><path stroke="#454545" d="M.0,.0L65.0,.0L65.0,-49.0L84.5,-49.0" stroke-width="2" fill="none"/><path stroke="#454545" d="M84.5,-53.2L93.0,-49.0L84.5,-44.8L84.5,-53.2" stroke-width="1" fill="#454545" stroke-linecap="round"/></g><g id="shape12" transform="translate(380.000000,623.700787)"><path stroke="#454545" d="M.0,.0L65.0,.0L65.0,51.0L84.5,51.0" stroke-width="2" fill="none"/><path stroke="#454545" d="M84.5,46.8L93.0,51.0L84.5,55.2L84.5,46.8" stroke-width="1" fill="#454545" stroke-linecap="round"/></g><g id="shape13" transform="translate(689.500000,140.750030)"><path stroke="#ff6991" d="M121.5,60.0L121.5,.0L.0,.0L.0,60.0L121.5,60.0z" stroke-width="3.333329916000366" fill="#fff5f7" fill-rule="nonzero"/><text xml:space="preserve" style="fill:#303030;font-family:Arial;font-size:12.00pt"><tspan x="21.8" y="27.0">Measure of </tspan><tspan x="36.3" y="46.0">spread</tspan></text></g><g id="shape14" transform="translate(689.000000,39.859878)"><path stroke="#ff6991" d="M121.5,60.0L121.5,.0L.0,.0L.0,60.0L121.5,60.0z" stroke-width="3.333329916000366" fill="#fff5f7" fill-rule="nonzero"/><text xml:space="preserve" style="fill:#303030;font-family:Arial;font-size:12.00pt"><tspan x="21.8" y="27.0">Measure of </tspan><tspan x="39.3" y="46.0">center</tspan></text></g><g id="shape15" transform="translate(689.500000,241.037151)"><path stroke="#ff6991" d="M121.5,60.0L121.5,.0L.0,.0L.0,60.0L121.5,60.0z" stroke-width="3.333329916000366" fill="#fff5f7" fill-rule="nonzero"/><text xml:space="preserve" style="fill:#303030;font-family:Arial;font-size:12.00pt"><tspan x="22.3" y="36.5">Correlation</tspan></text></g><g id="shape16" transform="translate(689.000000,544.909878)"><path stroke="#ff6991" d="M121.5,60.0L121.5,.0L.0,.0L.0,60.0L121.5,60.0z" stroke-width="3.333329916000366" fill="#fff5f7" fill-rule="nonzero"/><text xml:space="preserve" style="fill:#303030;font-family:Arial;font-size:12.00pt"><tspan x="5.3" y="36.5">Frequency table</tspan></text></g><g id="shape17" transform="translate(689.000000,645.200787)"><path stroke="#ff6991" d="M121.5,60.0L121.5,.0L.0,.0L.0,60.0L121.5,60.0z" stroke-width="3.333329916000366" fill="#fff5f7" fill-rule="nonzero"/><text xml:space="preserve" style="fill:#303030;font-family:Arial;font-size:12.00pt"><tspan x="17.8" y="27.0">Contingency </tspan><tspan x="43.8" y="46.0">table</tspan></text></g><g id="shape18" transform="translate(595.250000,675.200787)"><path stroke="#454545" d="M.0,.0L84.5,.0" stroke-width="2" fill="none"/><path stroke="#454545" d="M84.5,-4.2L93.0,.0L84.5,4.2L84.5,-4.2" stroke-width="1" fill="#454545" stroke-linecap="round"/></g><g id="shape19" transform="translate(595.250000,574.310636)"><path stroke="#454545" d="M.0,.0L84.5,.0" stroke-width="2" fill="none"/><path stroke="#454545" d="M84.5,-4.2L93.0,.0L84.5,4.2L84.5,-4.2" stroke-width="1" fill="#454545" stroke-linecap="round"/></g><g id="shape20" transform="translate(595.750000,271.640181)"><path stroke="#454545" d="M.0,.0L85.5,.0" stroke-width="2" fill="none"/><path stroke="#454545" d="M85.5,-4.2L94.0,.0L85.5,4.2L85.5,-4.2" stroke-width="1" fill="#454545" stroke-linecap="round"/></g><g id="shape21" transform="translate(595.250000,106.859878)"><path stroke="#454545" d="M.0,.0L65.0,.0L65.0,-37.0L84.5,-37.0" stroke-width="2" fill="none"/><path stroke="#454545" d="M84.5,-41.2L93.0,-37.0L84.5,-32.8L84.5,-41.2" stroke-width="1" fill="#454545" stroke-linecap="round"/></g><g id="shape22" transform="translate(595.250000,106.859878)"><path stroke="#454545" d="M.0,.0L65.0,.0L65.0,64.0L84.5,64.0" stroke-width="2" fill="none"/><path stroke="#454545" d="M84.5,59.8L93.0,64.0L84.5,68.2L84.5,59.8" stroke-width="1" fill="#454545" stroke-linecap="round"/></g><g id="shape23" transform="translate(473.750000,396.700787)"><path stroke="#ff6991" d="M122.0,60.0L122.0,.0L.0,.0L.0,60.0L122.0,60.0z" stroke-width="3.333329916000366" fill="#fff5f7" fill-rule="nonzero"/><text xml:space="preserve" style="fill:#303030;font-family:Arial;font-size:12.00pt"><tspan x="15.0" y="27.0">One numeric, </tspan><tspan x="7.5" y="46.0">one categorical</tspan></text></g><g id="shape24" transform="translate(144.000000,396.700787)"><path stroke="#454545" d="M.0,.0L86.0,.0L86.0,227.0L105.5,227.0" stroke-width="2" fill="none"/><path stroke="#454545" d="M105.5,222.8L114.0,227.0L105.5,231.2L105.5,222.8" stroke-width="1" fill="#454545" stroke-linecap="round"/></g><g id="shape25" transform="translate(689.500000,443.420484)"><path stroke="#ff6991" d="M184.5,60.0L184.5,.0L.0,.0L.0,60.0L184.5,60.0z" stroke-width="3.333329916000366" fill="#fff5f7" fill-rule="nonzero"/><text xml:space="preserve" style="fill:#303030;font-family:Arial;font-size:12.00pt"><tspan x="26.8" y="27.0">Measure of spread </tspan><tspan x="6.8" y="46.0">across categorical levels</tspan></text></g><g id="shape26" transform="translate(689.500000,342.530333)"><path stroke="#ff6991" d="M185.7,60.0L185.7,.0L.0,.0L.0,60.0L185.7,60.0z" stroke-width="3.333329916000366" fill="#fff5f7" fill-rule="nonzero"/><text xml:space="preserve" style="fill:#303030;font-family:Arial;font-size:12.00pt"><tspan x="4.9" y="27.0">Measure of center across </tspan><tspan x="32.9" y="46.0">categorical levels</tspan></text></g><g id="shape27" transform="translate(595.750000,426.700787)"><path stroke="#454545" d="M.0,.0L66.0,.0L66.0,-54.0L85.5,-54.0" stroke-width="2" fill="none"/><path stroke="#454545" d="M85.5,-58.2L94.0,-54.0L85.5,-49.8L85.5,-58.2" stroke-width="1" fill="#454545" stroke-linecap="round"/></g><g id="shape28" transform="translate(595.750000,426.700787)"><path stroke="#454545" d="M.0,.0L66.0,.0L66.0,47.0L85.5,47.0" stroke-width="2" fill="none"/><path stroke="#454545" d="M85.5,42.8L94.0,47.0L85.5,51.2L85.5,42.8" stroke-width="1" fill="#454545" stroke-linecap="round"/></g><g id="shape29" transform="translate(380.000000,188.700787)"><path stroke="#454545" d="M.0,.0L65.0,.0L65.0,238.0L84.5,238.0" stroke-width="2" fill="none"/><path stroke="#454545" d="M84.5,233.8L93.0,238.0L84.5,242.2L84.5,233.8" stroke-width="1" fill="#454545" stroke-linecap="round"/></g><g id="shape30" transform="translate(380.000000,623.700787)"><path stroke="#454545" d="M.0,.0L65.0,.0L65.0,-197.0L84.5,-197.0" stroke-width="2" fill="none"/><path stroke="#454545" d="M84.5,-201.2L93.0,-197.0L84.5,-192.8L84.5,-201.2" stroke-width="1" fill="#454545" stroke-linecap="round"/></g><g id="shape31" transform="translate(941.000000,39.859878)"><path stroke="#ff6991" d="M100.0,60.0L100.0,.0L.0,.0L.0,60.0L100.0,60.0z" stroke-width="3.333329916000366" fill="#fff5f7" fill-rule="nonzero"/><text xml:space="preserve" style="fill:#303030;font-family:Arial;font-size:12.00pt"><tspan x="10.5" y="27.0">Visualizing:</tspan><tspan x="14.0" y="46.0">Histogram</tspan></text></g><g id="shape32" transform="translate(941.000000,140.750030)"><path stroke="#ff6991" d="M100.0,60.0L100.0,.0L.0,.0L.0,60.0L100.0,60.0z" stroke-width="3.333329916000366" fill="#fff5f7" fill-rule="nonzero"/><text xml:space="preserve" style="fill:#303030;font-family:Arial;font-size:12.00pt"><tspan x="10.5" y="27.0">Visualizing:</tspan><tspan x="22.0" y="46.0">Box plot</tspan></text></g><g id="shape33" transform="translate(941.000000,241.640181)"><path stroke="#ff6991" d="M100.0,60.0L100.0,.0L.0,.0L.0,60.0L100.0,60.0z" stroke-width="3.333329916000366" fill="#fff5f7" fill-rule="nonzero"/><text xml:space="preserve" style="fill:#303030;font-family:Arial;font-size:12.00pt"><tspan x="10.5" y="27.0">Visualizing:</tspan><tspan x="10.5" y="46.0">Scatter plot</tspan></text></g><g id="shape34" transform="translate(941.000000,342.530333)"><path stroke="#ff6991" d="M100.0,60.0L100.0,.0L.0,.0L.0,60.0L100.0,60.0z" stroke-width="3.333329916000366" fill="#fff5f7" fill-rule="nonzero"/><text xml:space="preserve" style="fill:#303030;font-family:Arial;font-size:12.00pt"><tspan x="10.5" y="27.0">Visualizing:</tspan><tspan x="14.0" y="46.0">Histogram</tspan></text></g><g id="shape35" transform="translate(941.000000,443.420484)"><path stroke="#ff6991" d="M100.0,60.0L100.0,.0L.0,.0L.0,60.0L100.0,60.0z" stroke-width="3.333329916000366" fill="#fff5f7" fill-rule="nonzero"/><text xml:space="preserve" style="fill:#303030;font-family:Arial;font-size:12.00pt"><tspan x="10.5" y="27.0">Visualizing:</tspan><tspan x="22.0" y="46.0">Box plot</tspan></text></g><g id="shape36" transform="translate(941.000000,544.310636)"><path stroke="#ff6991" d="M100.0,60.0L100.0,.0L.0,.0L.0,60.0L100.0,60.0z" stroke-width="3.333329916000366" fill="#fff5f7" fill-rule="nonzero"/><text xml:space="preserve" style="fill:#303030;font-family:Arial;font-size:12.00pt"><tspan x="10.5" y="27.0">Visualizing:</tspan><tspan x="23.0" y="46.0">Bar plot</tspan></text></g><g id="shape37" transform="translate(941.000000,645.200787)"><path stroke="#ff6991" d="M100.0,60.0L100.0,.0L.0,.0L.0,60.0L100.0,60.0z" stroke-width="3.333329916000366" fill="#fff5f7" fill-rule="nonzero"/><text xml:space="preserve" style="fill:#303030;font-family:Arial;font-size:12.00pt"><tspan x="10.5" y="27.0">Visualizing:</tspan><tspan x="10.0" y="46.0">moseic plot</tspan></text></g><g id="shape38" transform="translate(810.500000,69.859878)"><path stroke="#454545" d="M.0,.0L121.5,.0" stroke-width="2" fill="none"/><path stroke="#454545" d="M121.5,-4.2L130.0,.0L121.5,4.2L121.5,-4.2" stroke-width="1" fill="#454545" stroke-linecap="round"/></g><g id="shape39" transform="translate(811.000000,170.750030)"><path stroke="#454545" d="M.0,.0L119.5,.0" stroke-width="2" fill="none"/><path stroke="#454545" d="M119.5,-4.2L128.0,.0L119.5,4.2L119.5,-4.2" stroke-width="1" fill="#454545" stroke-linecap="round"/></g><g id="shape40" transform="translate(811.000000,271.037151)"><path stroke="#454545" d="M.0,.0L119.5,.0" stroke-width="2" fill="none"/><path stroke="#454545" d="M119.5,-4.2L128.0,.0L119.5,4.2L119.5,-4.2" stroke-width="1" fill="#454545" stroke-linecap="round"/></g><g id="shape41" transform="translate(875.240157,372.530333)"><path stroke="#454545" d="M.0,.0L55.5,.0" stroke-width="2" fill="none"/><path stroke="#454545" d="M55.5,-4.2L64.0,.0L55.5,4.2L55.5,-4.2" stroke-width="1" fill="#454545" stroke-linecap="round"/></g><g id="shape42" transform="translate(874.000000,473.420484)"><path stroke="#454545" d="M.0,.0L56.5,.0" stroke-width="2" fill="none"/><path stroke="#454545" d="M56.5,-4.2L65.0,.0L56.5,4.2L56.5,-4.2" stroke-width="1" fill="#454545" stroke-linecap="round"/></g><g id="shape43" transform="translate(810.500000,574.909878)"><path stroke="#454545" d="M.0,.0L121.5,.0" stroke-width="2" fill="none"/><path stroke="#454545" d="M121.5,-4.2L130.0,.0L121.5,4.2L121.5,-4.2" stroke-width="1" fill="#454545" stroke-linecap="round"/></g><g id="shape44" transform="translate(810.500000,675.200787)"><path stroke="#454545" d="M.0,.0L121.5,.0" stroke-width="2" fill="none"/><path stroke="#454545" d="M121.5,-4.2L130.0,.0L121.5,4.2L121.5,-4.2" stroke-width="1" fill="#454545" stroke-linecap="round"/></g></g></svg>