<svg viewBox="0 0 1086 761" xmlns="http://www.w3.org/2000/svg" xmlns:ev="http://www.w3.org/2001/xml-events" width="1086" height="761" xmlns:xlink="http://www.w3.org/1999/xlink"><defs/><g transform="translate(5.5,5.5)" id="page1"><rect fill="#ffffff" x="0" y="0" width="1076" height="751"/><g transform="translate(40.000000,366.701000)" id="shape1"><path stroke-width="3.333329916000366" fill="#f5f8ff" d="M100.0,60.0L100.0,.0L.0,.0L.0,60.0L100.0,60.0z" stroke="#69afff" fill-rule="nonzero"/><text style="fill:#454545;font-family:Arial;font-size:12.00pt" xml:space="preserve"><tspan x="17.5" y="27.0">Exploring </tspan><tspan x="34.5" y="46.0">data</tspan></text></g><g transform="translate(140.000000,396.701000)" id="shape2"><path stroke-width="2" fill="none" stroke="#454545" d="M.0,.0L86.0,.0L86.0,-208.0L105.5,-208.0"/><path stroke-linecap="round" stroke-width="1" fill="#454545" stroke="#454545" d="M105.5,-212.2L114.0,-208.0L105.5,-203.8L105.5,-212.2"/></g><g transform="translate(254.000000,152.101000)" id="shape3"><path stroke-width="3.333329916000366" fill="#f5f8ff" d="M122.0,66.2L122.0,7.0C122.0,3.1,118.9,.0,115.0,.0L7.0,.0C3.1,.0,.0,3.1,.0,7.0L.0,66.2C.0,70.1,3.1,73.2,7.0,73.2L115.0,73.2C118.9,73.2,122.0,70.1,122.0,66.2z" stroke="#69afff" fill-rule="nonzero"/><text style="fill:#454545;font-family:Arial;font-size:12.00pt" xml:space="preserve"><tspan x="26.0" y="34.0">Numerical </tspan><tspan x="29.5" y="53.0">variables</tspan></text></g><g transform="translate(254.000000,587.101000)" id="shape4"><path stroke-width="3.333329916000366" fill="#f5f8ff" d="M122.0,66.2L122.0,7.0C122.0,3.1,118.9,.0,115.0,.0L7.0,.0C3.1,.0,.0,3.1,.0,7.0L.0,66.2C.0,70.1,3.1,73.2,7.0,73.2L115.0,73.2C118.9,73.2,122.0,70.1,122.0,66.2z" stroke="#69afff" fill-rule="nonzero"/><text style="fill:#454545;font-family:Arial;font-size:12.00pt" xml:space="preserve"><tspan x="20.5" y="34.0">Categorical </tspan><tspan x="29.5" y="53.0">variables</tspan></text></g><g transform="translate(376.000000,188.701000)" id="shape5"><path stroke-width="2" fill="none" stroke="#454545" d="M.0,.0L65.0,.0L65.0,-82.0L84.5,-82.0"/><path stroke-linecap="round" stroke-width="1" fill="#454545" stroke="#454545" d="M84.5,-86.2L93.0,-82.0L84.5,-77.8L84.5,-86.2"/></g><g transform="translate(469.750000,70.410000)" id="shape6"><path stroke-width="3.333329916000366" fill="#f5f8ff" d="M121.5,65.9L121.5,7.0C121.5,3.1,118.4,.0,114.5,.0L7.0,.0C3.1,.0,.0,3.1,.0,7.0L.0,65.9C.0,69.8,3.1,72.9,7.0,72.9L114.5,72.9C118.4,72.9,121.5,69.8,121.5,65.9z" stroke="#69afff" fill-rule="nonzero"/><text style="fill:#454545;font-family:Arial;font-size:12.00pt" xml:space="preserve"><tspan x="10.8" y="33.5">One numerical </tspan><tspan x="33.3" y="52.5">variable</tspan></text></g><g transform="translate(470.250000,235.190000)" id="shape7"><path stroke-width="3.333329916000366" fill="#f5f8ff" d="M121.5,65.9L121.5,7.0C121.5,3.1,118.4,.0,114.5,.0L7.0,.0C3.1,.0,.0,3.1,.0,7.0L.0,65.9C.0,69.8,3.1,72.9,7.0,72.9L114.5,72.9C118.4,72.9,121.5,69.8,121.5,65.9z" stroke="#69afff" fill-rule="nonzero"/><text style="fill:#454545;font-family:Arial;font-size:12.00pt" xml:space="preserve"><tspan x="11.3" y="33.5">Two numerical </tspan><tspan x="29.3" y="52.5">variables</tspan></text></g><g transform="translate(376.000000,188.701000)" id="shape8"><path stroke-width="2" fill="none" stroke="#454545" d="M.0,.0L65.0,.0L65.0,83.0L85.5,83.0"/><path stroke-linecap="round" stroke-width="1" fill="#454545" stroke="#454545" d="M85.5,78.8L94.0,83.0L85.5,87.2L85.5,78.8"/></g><g transform="translate(469.750000,537.861000)" id="shape9"><path stroke-width="3.333329916000366" fill="#f5f8ff" d="M121.5,65.9L121.5,7.0C121.5,3.1,118.4,.0,114.5,.0L7.0,.0C3.1,.0,.0,3.1,.0,7.0L.0,65.9C.0,69.8,3.1,72.9,7.0,72.9L114.5,72.9C118.4,72.9,121.5,69.8,121.5,65.9z" stroke="#69afff" fill-rule="nonzero"/><text style="fill:#454545;font-family:Arial;font-size:12.00pt" xml:space="preserve"><tspan x="5.8" y="33.5">One categorical </tspan><tspan x="33.3" y="52.5">variable</tspan></text></g><g transform="translate(469.750000,638.751000)" id="shape10"><path stroke-width="3.333329916000366" fill="#f5f8ff" d="M121.5,65.9L121.5,7.0C121.5,3.1,118.4,.0,114.5,.0L7.0,.0C3.1,.0,.0,3.1,.0,7.0L.0,65.9C.0,69.8,3.1,72.9,7.0,72.9L114.5,72.9C118.4,72.9,121.5,69.8,121.5,65.9z" stroke="#69afff" fill-rule="nonzero"/><text style="fill:#454545;font-family:Arial;font-size:12.00pt" xml:space="preserve"><tspan x="6.3" y="33.5">Two categorical </tspan><tspan x="29.3" y="52.5">variables</tspan></text></g><g transform="translate(376.000000,623.701000)" id="shape11"><path stroke-width="2" fill="none" stroke="#454545" d="M.0,.0L65.0,.0L65.0,-49.0L84.5,-49.0"/><path stroke-linecap="round" stroke-width="1" fill="#454545" stroke="#454545" d="M84.5,-53.2L93.0,-49.0L84.5,-44.8L84.5,-53.2"/></g><g transform="translate(376.000000,623.701000)" id="shape12"><path stroke-width="2" fill="none" stroke="#454545" d="M.0,.0L65.0,.0L65.0,51.0L84.5,51.0"/><path stroke-linecap="round" stroke-width="1" fill="#454545" stroke="#454545" d="M84.5,46.8L93.0,51.0L84.5,55.2L84.5,46.8"/></g><g transform="translate(685.500000,140.750000)" id="shape13"><path stroke-width="3.333329916000366" fill="#f5f8ff" d="M121.5,60.0L121.5,.0L.0,.0L.0,60.0L121.5,60.0z" stroke="#69afff" fill-rule="nonzero"/><text style="fill:#454545;font-family:Arial;font-size:12.00pt" xml:space="preserve"><tspan x="21.8" y="27.0">Measure of </tspan><tspan x="36.3" y="46.0">spread</tspan></text></g><g transform="translate(685.000000,39.859900)" id="shape14"><path stroke-width="3.333329916000366" fill="#f5f8ff" d="M121.5,60.0L121.5,.0L.0,.0L.0,60.0L121.5,60.0z" stroke="#69afff" fill-rule="nonzero"/><text style="fill:#454545;font-family:Arial;font-size:12.00pt" xml:space="preserve"><tspan x="21.8" y="27.0">Measure of </tspan><tspan x="39.3" y="46.0">center</tspan></text></g><g transform="translate(685.500000,241.037000)" id="shape15"><path stroke-width="3.333329916000366" fill="#f5f8ff" d="M121.5,60.0L121.5,.0L.0,.0L.0,60.0L121.5,60.0z" stroke="#69afff" fill-rule="nonzero"/><text style="fill:#454545;font-family:Arial;font-size:12.00pt" xml:space="preserve"><tspan x="22.3" y="36.5">Correlation</tspan></text></g><g transform="translate(685.000000,544.910000)" id="shape16"><path stroke-width="3.333329916000366" fill="#f5f8ff" d="M121.5,60.0L121.5,.0L.0,.0L.0,60.0L121.5,60.0z" stroke="#69afff" fill-rule="nonzero"/><text style="fill:#454545;font-family:Arial;font-size:12.00pt" xml:space="preserve"><tspan x="5.3" y="36.5">Frequency table</tspan></text></g><g transform="translate(685.000000,645.201000)" id="shape17"><path stroke-width="3.333329916000366" fill="#f5f8ff" d="M121.5,60.0L121.5,.0L.0,.0L.0,60.0L121.5,60.0z" stroke="#69afff" fill-rule="nonzero"/><text style="fill:#454545;font-family:Arial;font-size:12.00pt" xml:space="preserve"><tspan x="17.8" y="27.0">Contingency </tspan><tspan x="43.8" y="46.0">table</tspan></text></g><g transform="translate(591.250000,675.201000)" id="shape18"><path stroke-width="2" fill="none" stroke="#454545" d="M.0,.0L86.5,.0"/><path stroke-linecap="round" stroke-width="1" fill="#454545" stroke="#454545" d="M86.5,-4.2L95.0,.0L86.5,4.2L86.5,-4.2"/></g><g transform="translate(591.250000,574.311000)" id="shape19"><path stroke-width="2" fill="none" stroke="#454545" d="M.0,.0L86.5,.0"/><path stroke-linecap="round" stroke-width="1" fill="#454545" stroke="#454545" d="M86.5,-4.2L95.0,.0L86.5,4.2L86.5,-4.2"/></g><g transform="translate(591.750000,271.640000)" id="shape20"><path stroke-width="2" fill="none" stroke="#454545" d="M.0,.0L85.5,.0"/><path stroke-linecap="round" stroke-width="1" fill="#454545" stroke="#454545" d="M85.5,-4.2L94.0,.0L85.5,4.2L85.5,-4.2"/></g><g transform="translate(591.250000,106.860000)" id="shape21"><path stroke-width="2" fill="none" stroke="#454545" d="M.0,.0L67.0,.0L67.0,-37.0L86.5,-37.0"/><path stroke-linecap="round" stroke-width="1" fill="#454545" stroke="#454545" d="M86.5,-41.2L95.0,-37.0L86.5,-32.8L86.5,-41.2"/></g><g transform="translate(591.250000,106.860000)" id="shape22"><path stroke-width="2" fill="none" stroke="#454545" d="M.0,.0L67.0,.0L67.0,64.0L86.5,64.0"/><path stroke-linecap="round" stroke-width="1" fill="#454545" stroke="#454545" d="M86.5,59.8L95.0,64.0L86.5,68.2L86.5,59.8"/></g><g transform="translate(469.750000,390.101000)" id="shape23"><path stroke-width="3.333329916000366" fill="#f5f8ff" d="M122.0,66.2L122.0,7.0C122.0,3.1,118.9,.0,115.0,.0L7.0,.0C3.1,.0,.0,3.1,.0,7.0L.0,66.2C.0,70.1,3.1,73.2,7.0,73.2L115.0,73.2C118.9,73.2,122.0,70.1,122.0,66.2z" stroke="#69afff" fill-rule="nonzero"/><text style="fill:#454545;font-family:Arial;font-size:12.00pt" xml:space="preserve"><tspan x="15.0" y="34.0">One numeric, </tspan><tspan x="7.5" y="53.0">one categorical</tspan></text></g><g transform="translate(140.000000,396.701000)" id="shape24"><path stroke-width="2" fill="none" stroke="#454545" d="M.0,.0L86.0,.0L86.0,227.0L105.5,227.0"/><path stroke-linecap="round" stroke-width="1" fill="#454545" stroke="#454545" d="M105.5,222.8L114.0,227.0L105.5,231.2L105.5,222.8"/></g><g transform="translate(685.500000,443.420000)" id="shape25"><path stroke-width="3.333329916000366" fill="#f5f8ff" d="M184.5,60.0L184.5,.0L.0,.0L.0,60.0L184.5,60.0z" stroke="#69afff" fill-rule="nonzero"/><text style="fill:#454545;font-family:Arial;font-size:12.00pt" xml:space="preserve"><tspan x="26.8" y="27.0">Measure of spread </tspan><tspan x="6.8" y="46.0">across categorical levels</tspan></text></g><g transform="translate(685.499900,342.530000)" id="shape26"><path stroke-width="3.333329916000366" fill="#f5f8ff" d="M185.7,60.0L185.7,.0L.0,.0L.0,60.0L185.7,60.0z" stroke="#69afff" fill-rule="nonzero"/><text style="fill:#454545;font-family:Arial;font-size:12.00pt" xml:space="preserve"><tspan x="4.9" y="27.0">Measure of center across </tspan><tspan x="32.9" y="46.0">categorical levels</tspan></text></g><g transform="translate(591.750000,426.701000)" id="shape27"><path stroke-width="2" fill="none" stroke="#454545" d="M.0,.0L66.0,.0L66.0,-54.0L85.5,-54.0"/><path stroke-linecap="round" stroke-width="1" fill="#454545" stroke="#454545" d="M85.5,-58.2L94.0,-54.0L85.5,-49.8L85.5,-58.2"/></g><g transform="translate(591.750000,426.701000)" id="shape28"><path stroke-width="2" fill="none" stroke="#454545" d="M.0,.0L66.0,.0L66.0,47.0L85.5,47.0"/><path stroke-linecap="round" stroke-width="1" fill="#454545" stroke="#454545" d="M85.5,42.8L94.0,47.0L85.5,51.2L85.5,42.8"/></g><g transform="translate(376.000000,188.701000)" id="shape29"><path stroke-width="2" fill="none" stroke="#454545" d="M.0,.0L30.0,.0L30.0,238.0L85.3,238.0"/><path stroke-linecap="round" stroke-width="1" fill="#454545" stroke="#454545" d="M85.3,233.8L93.8,238.0L85.3,242.2L85.3,233.8"/></g><g transform="translate(376.000000,623.701000)" id="shape30"><path stroke-width="2" fill="none" stroke="#454545" d="M.0,.0L30.0,.0L30.0,-197.0L85.3,-197.0"/><path stroke-linecap="round" stroke-width="1" fill="#454545" stroke="#454545" d="M85.3,-201.2L93.8,-197.0L85.3,-192.8L85.3,-201.2"/></g><g transform="translate(937.000000,39.859900)" id="shape31"><path stroke-width="3.333329916000366" fill="#f5f8ff" d="M100.0,60.0L100.0,.0L.0,.0L.0,60.0L100.0,60.0z" stroke="#69afff" fill-rule="nonzero"/><text style="fill:#454545;font-family:Arial;font-size:12.00pt" xml:space="preserve"><tspan x="10.5" y="27.0">Visualizing:</tspan><tspan x="14.0" y="46.0">Histogram</tspan></text></g><g transform="translate(937.000000,140.750000)" id="shape32"><path stroke-width="3.333329916000366" fill="#f5f8ff" d="M100.0,60.0L100.0,.0L.0,.0L.0,60.0L100.0,60.0z" stroke="#69afff" fill-rule="nonzero"/><text style="fill:#454545;font-family:Arial;font-size:12.00pt" xml:space="preserve"><tspan x="10.5" y="27.0">Visualizing:</tspan><tspan x="22.0" y="46.0">Box plot</tspan></text></g><g transform="translate(937.000000,241.640000)" id="shape33"><path stroke-width="3.333329916000366" fill="#f5f8ff" d="M100.0,60.0L100.0,.0L.0,.0L.0,60.0L100.0,60.0z" stroke="#69afff" fill-rule="nonzero"/><text style="fill:#454545;font-family:Arial;font-size:12.00pt" xml:space="preserve"><tspan x="10.5" y="27.0">Visualizing:</tspan><tspan x="10.5" y="46.0">Scatter plot</tspan></text></g><g transform="translate(937.000000,342.530000)" id="shape34"><path stroke-width="3.333329916000366" fill="#f5f8ff" d="M100.0,60.0L100.0,.0L.0,.0L.0,60.0L100.0,60.0z" stroke="#69afff" fill-rule="nonzero"/><text style="fill:#454545;font-family:Arial;font-size:12.00pt" xml:space="preserve"><tspan x="10.5" y="27.0">Visualizing:</tspan><tspan x="14.0" y="46.0">Histogram</tspan></text></g><g transform="translate(937.000000,443.420000)" id="shape35"><path stroke-width="3.333329916000366" fill="#f5f8ff" d="M100.0,60.0L100.0,.0L.0,.0L.0,60.0L100.0,60.0z" stroke="#69afff" fill-rule="nonzero"/><text style="fill:#454545;font-family:Arial;font-size:12.00pt" xml:space="preserve"><tspan x="10.5" y="27.0">Visualizing:</tspan><tspan x="22.0" y="46.0">Box plot</tspan></text></g><g transform="translate(937.000000,544.311000)" id="shape36"><path stroke-width="3.333329916000366" fill="#f5f8ff" d="M100.0,60.0L100.0,.0L.0,.0L.0,60.0L100.0,60.0z" stroke="#69afff" fill-rule="nonzero"/><text style="fill:#454545;font-family:Arial;font-size:12.00pt" xml:space="preserve"><tspan x="10.5" y="27.0">Visualizing:</tspan><tspan x="23.0" y="46.0">Bar plot</tspan></text></g><g transform="translate(937.000000,645.201000)" id="shape37"><path stroke-width="3.333329916000366" fill="#f5f8ff" d="M100.0,60.0L100.0,.0L.0,.0L.0,60.0L100.0,60.0z" stroke="#69afff" fill-rule="nonzero"/><text style="fill:#454545;font-family:Arial;font-size:12.00pt" xml:space="preserve"><tspan x="10.5" y="27.0">Visualizing:</tspan><tspan x="10.0" y="46.0">moseic plot</tspan></text></g><g transform="translate(806.500000,69.859900)" id="shape38"><path stroke-width="2" fill="none" stroke="#454545" d="M.0,.0L121.5,.0"/><path stroke-linecap="round" stroke-width="1" fill="#454545" stroke="#454545" d="M121.5,-4.2L130.0,.0L121.5,4.2L121.5,-4.2"/></g><g transform="translate(807.000000,170.750000)" id="shape39"><path stroke-width="2" fill="none" stroke="#454545" d="M.0,.0L119.5,.0"/><path stroke-linecap="round" stroke-width="1" fill="#454545" stroke="#454545" d="M119.5,-4.2L128.0,.0L119.5,4.2L119.5,-4.2"/></g><g transform="translate(807.000000,271.037000)" id="shape40"><path stroke-width="2" fill="none" stroke="#454545" d="M.0,.0L119.5,.0"/><path stroke-linecap="round" stroke-width="1" fill="#454545" stroke="#454545" d="M119.5,-4.2L128.0,.0L119.5,4.2L119.5,-4.2"/></g><g transform="translate(871.240000,372.530000)" id="shape41"><path stroke-width="2" fill="none" stroke="#454545" d="M.0,.0L55.5,.0"/><path stroke-linecap="round" stroke-width="1" fill="#454545" stroke="#454545" d="M55.5,-4.2L64.0,.0L55.5,4.2L55.5,-4.2"/></g><g transform="translate(870.000000,473.420000)" id="shape42"><path stroke-width="2" fill="none" stroke="#454545" d="M.0,.0L56.5,.0"/><path stroke-linecap="round" stroke-width="1" fill="#454545" stroke="#454545" d="M56.5,-4.2L65.0,.0L56.5,4.2L56.5,-4.2"/></g><g transform="translate(806.500000,574.910000)" id="shape43"><path stroke-width="2" fill="none" stroke="#454545" d="M.0,.0L121.5,.0"/><path stroke-linecap="round" stroke-width="1" fill="#454545" stroke="#454545" d="M121.5,-4.2L130.0,.0L121.5,4.2L121.5,-4.2"/></g><g transform="translate(806.500000,675.201000)" id="shape44"><path stroke-width="2" fill="none" stroke="#454545" d="M.0,.0L121.5,.0"/><path stroke-linecap="round" stroke-width="1" fill="#454545" stroke="#454545" d="M121.5,-4.2L130.0,.0L121.5,4.2L121.5,-4.2"/></g></g></svg>