<svg viewBox="0 0 863 2295" xmlns:xlink="http://www.w3.org/1999/xlink" width="863" xmlns:ev="http://www.w3.org/2001/xml-events" xmlns="http://www.w3.org/2000/svg" height="2295"><defs/><g id="page1" transform="translate(5.5,5.5)"><rect x="0" y="0" width="853" fill="#ffffff" height="2285"/><g id="shape1" transform="translate(316.500000,39.068684)"><path fill-rule="nonzero" stroke="#35b58f" stroke-width="3.333329916000366" fill="#f4f9f7" d="M26.9,53.9L162.1,53.9L162.1,53.9C176.9,53.9,189.0,41.8,189.0,26.9C189.0,12.1,176.9,.0,162.1,.0L26.9,.0L26.9,.0C12.1,.0,.0,12.1,.0,26.9C.0,41.8,12.1,53.9,26.9,53.9z"/><text style="fill:#303030;font-family:Arial;font-size:12.00pt" xml:space="preserve"><tspan x="78.0" y="33.4">Start</tspan></text></g><g id="shape2" transform="translate(411.000000,92.931316)"><path stroke="#454545" stroke-width="2" d="M.0,.0L.0,41.5" fill="none"/><path stroke-linecap="round" stroke="#454545" stroke-width="1" fill="#454545" d="M4.2,41.5L.0,50.0L-4.2,41.5L4.2,41.5"/></g><g id="shape3" transform="translate(314.000000,142.000000)"><path fill-rule="nonzero" stroke="#f0c43d" stroke-width="3.333329916000366" fill="#fefaf4" d="M180.5,60.0L195.5,.0L15.0,.0L.0,60.0L180.5,60.0z"/><text style="fill:#303030;font-family:Arial;font-size:12.00pt" xml:space="preserve"><tspan x="26.8" y="36.5">Acquiring the project</tspan></text></g><g id="shape4" transform="translate(411.750000,202.000000)"><path stroke="#454545" stroke-width="2" d="M.0,.0L.0,46.5" fill="none"/><path stroke-linecap="round" stroke="#454545" stroke-width="1" fill="#454545" d="M4.2,46.5L.0,55.0L-4.2,46.5L4.2,46.5"/></g><g id="shape5" transform="translate(310.000000,257.781250)"><path fill-rule="nonzero" stroke="#ff6991" stroke-width="3.333329916000366" fill="#fff5f7" d="M101.0,100.9L202.0,50.4L101.0,.0L.0,50.4L101.0,100.9z"/><text style="fill:#303030;font-family:Arial;font-size:12.00pt" xml:space="preserve"><tspan x="52.5" y="47.4">Is the problem </tspan><tspan x="79.5" y="66.4">clear?</tspan></text></g><g id="shape6" transform="translate(512.000000,308.218750)"><path stroke="#454545" stroke-width="2" d="M.0,.0L91.5,.0" fill="none"/><path stroke-linecap="round" stroke="#454545" stroke-width="1" fill="#454545" d="M91.5,-4.2L100.0,.0L91.5,4.2L91.5,-4.2"/><rect x="41.0" y="-9.5" width="20.0" fill="#ffffff" height="19.0"/><text style="fill:#454545;font-family:Arial;font-size:12.00pt" xml:space="preserve"><tspan x="41.0" y="6.5">No</tspan></text></g><g id="shape7" transform="translate(612.000000,257.437500)"><path fill-rule="nonzero" stroke="#69afff" stroke-width="3.333329916000366" fill="#f5f8ff" d="M202.0,101.6L202.0,.0L.0,.0L.0,101.6L202.0,101.6z"/><text style="fill:#303030;font-family:Arial;font-size:12.00pt" xml:space="preserve"><tspan x="6.0" y="48.0">Contact the stakeholders or </tspan><tspan x="22.0" y="67.0">a subject-matter expert</tspan></text></g><g id="shape8" transform="translate(713.000000,257.437500)"><path stroke="#454545" stroke-width="2" d="M.0,.0L.0,-28.0L-302.0,-28.0L-302.0,-8.5" fill="none"/><path stroke-linecap="round" stroke="#454545" stroke-width="1" fill="#454545" d="M-297.8,-8.5L-302.0,.0L-306.2,-8.5L-297.8,-8.5"/></g><g id="shape9" transform="translate(411.000000,358.656250)"><path stroke="#454545" stroke-width="2" d="M.0,.0L.0,63.5" fill="none"/><path stroke-linecap="round" stroke="#454545" stroke-width="1" fill="#454545" d="M4.2,63.5L.0,72.0L-4.2,63.5L4.2,63.5"/><rect x="-11.5" y="19.4" width="25.0" fill="#ffffff" height="19.0"/><text style="fill:#454545;font-family:Arial;font-size:12.00pt" xml:space="preserve"><tspan x="-11.5" y="35.4">Yes</tspan></text></g><g id="shape10" transform="translate(310.000000,429.425000)"><path fill-rule="nonzero" stroke="#ff6991" stroke-width="3.333329916000366" fill="#fff5f7" d="M101.0,100.9L202.0,50.4L101.0,.0L.0,50.4L101.0,100.9z"/><text style="fill:#303030;font-family:Arial;font-size:12.00pt" xml:space="preserve"><tspan x="53.5" y="47.4">Is there a pre-</tspan><tspan x="48.0" y="66.4">collected data?</tspan></text></g><g id="shape11" transform="translate(411.000000,530.300000)"><path stroke="#454545" stroke-width="2" d="M.0,.0L.0,31.5" fill="none"/><path stroke-linecap="round" stroke="#454545" stroke-width="1" fill="#454545" d="M4.2,31.5L.0,40.0L-4.2,31.5L4.2,31.5"/><rect x="-11.5" y="10.5" width="25.0" fill="#ffffff" height="19.0"/><text style="fill:#454545;font-family:Arial;font-size:12.00pt" xml:space="preserve"><tspan x="-11.5" y="26.5">Yes</tspan></text></g><g id="shape12" transform="translate(310.000000,730.743750)"><path fill-rule="nonzero" stroke="#ff6991" stroke-width="3.333329916000366" fill="#fff5f7" d="M101.0,88.9L202.0,44.4L101.0,.0L.0,44.4L101.0,88.9z"/><text style="fill:#303030;font-family:Arial;font-size:12.00pt" xml:space="preserve"><tspan x="65.5" y="41.4">Is the data </tspan><tspan x="64.5" y="60.4">unbiased?</tspan></text></g><g id="shape13" transform="translate(310.000000,1002.481250)"><path fill-rule="nonzero" stroke="#ff6991" stroke-width="3.333329916000366" fill="#fff5f7" d="M101.0,101.6L202.0,50.8L101.0,.0L.0,50.8L101.0,101.6z"/><text style="fill:#303030;font-family:Arial;font-size:12.00pt" xml:space="preserve"><tspan x="55.5" y="38.3">Was the data </tspan><tspan x="70.0" y="57.3">collected </tspan><tspan x="69.0" y="76.3">ethically?</tspan></text></g><g id="shape14" transform="translate(310.000000,866.862500)"><path fill-rule="nonzero" stroke="#ff6991" stroke-width="3.333329916000366" fill="#fff5f7" d="M101.0,88.9L202.0,44.4L101.0,.0L.0,44.4L101.0,88.9z"/><text style="fill:#303030;font-family:Arial;font-size:12.00pt" xml:space="preserve"><tspan x="65.5" y="41.4">Is the data </tspan><tspan x="68.5" y="60.4">credible?</tspan></text></g><g id="shape15" transform="translate(411.000000,819.618750)"><path stroke="#454545" stroke-width="2" d="M.0,.0L.0,39.5" fill="none"/><path stroke-linecap="round" stroke="#454545" stroke-width="1" fill="#454545" d="M4.2,39.5L.0,48.0L-4.2,39.5L4.2,39.5"/><rect x="-11.5" y="14.5" width="25.0" fill="#ffffff" height="19.0"/><text style="fill:#454545;font-family:Arial;font-size:12.00pt" xml:space="preserve"><tspan x="-11.5" y="30.5">Yes</tspan></text></g><g id="shape16" transform="translate(411.000000,955.737500)"><path stroke="#454545" stroke-width="2" d="M.0,.0L.0,39.5" fill="none"/><path stroke-linecap="round" stroke="#454545" stroke-width="1" fill="#454545" d="M4.2,39.5L.0,48.0L-4.2,39.5L4.2,39.5"/><rect x="-11.5" y="15.6" width="25.0" fill="#ffffff" height="19.0"/><text style="fill:#454545;font-family:Arial;font-size:12.00pt" xml:space="preserve"><tspan x="-11.5" y="31.6">Yes</tspan></text></g><g id="shape17" transform="translate(411.000000,1104.043750)"><path stroke="#454545" stroke-width="2" d="M.0,.0L.0,38.5" fill="none"/><path stroke-linecap="round" stroke="#454545" stroke-width="1" fill="#454545" d="M4.2,38.5L.0,47.0L-4.2,38.5L4.2,38.5"/><rect x="-11.5" y="15.0" width="25.0" fill="#ffffff" height="19.0"/><text style="fill:#454545;font-family:Arial;font-size:12.00pt" xml:space="preserve"><tspan x="-11.5" y="31.0">Yes</tspan></text></g><g id="shape18" transform="translate(310.000000,1150.787500)"><path fill-rule="nonzero" stroke="#ff6991" stroke-width="3.333329916000366" fill="#fff5f7" d="M101.0,88.9L202.0,44.4L101.0,.0L.0,44.4L101.0,88.9z"/><text style="fill:#303030;font-family:Arial;font-size:12.00pt" xml:space="preserve"><tspan x="49.5" y="41.4">Is the data size </tspan><tspan x="71.0" y="60.4">enough?</tspan></text></g><g id="shape19" transform="translate(310.000000,569.768750)"><path fill-rule="nonzero" stroke="#ff6991" stroke-width="3.333329916000366" fill="#fff5f7" d="M101.0,109.6L202.0,54.8L101.0,.0L.0,54.8L101.0,109.6z"/><text style="fill:#303030;font-family:Arial;font-size:12.00pt" xml:space="preserve"><tspan x="52.0" y="42.3">Does the data </tspan><tspan x="54.0" y="61.3">help solve the </tspan><tspan x="40.5" y="80.3">problem at hand?</tspan></text></g><g id="shape20" transform="translate(411.000000,679.331250)"><path stroke="#454545" stroke-width="2" d="M.0,.0L.0,43.5" fill="none"/><path stroke-linecap="round" stroke="#454545" stroke-width="1" fill="#454545" d="M4.2,43.5L.0,52.0L-4.2,43.5L4.2,43.5"/><rect x="-11.5" y="17.4" width="25.0" fill="#ffffff" height="19.0"/><text style="fill:#454545;font-family:Arial;font-size:12.00pt" xml:space="preserve"><tspan x="-11.5" y="33.4">Yes</tspan></text></g><g id="shape21" transform="translate(512.000000,479.862500)"><path stroke="#454545" stroke-width="2" d="M.0,.0L91.5,.0" fill="none"/><path stroke-linecap="round" stroke="#454545" stroke-width="1" fill="#454545" d="M91.5,-4.2L100.0,.0L91.5,4.2L91.5,-4.2"/><rect x="41.0" y="-9.5" width="20.0" fill="#ffffff" height="19.0"/><text style="fill:#454545;font-family:Arial;font-size:12.00pt" xml:space="preserve"><tspan x="41.0" y="6.5">No</tspan></text></g><g id="shape22" transform="translate(612.000000,428.081250)"><path fill-rule="nonzero" stroke="#69afff" stroke-width="3.333329916000366" fill="#f5f8ff" d="M202.0,101.6L202.0,.0L.0,.0L.0,101.6L202.0,101.6z"/><text style="fill:#303030;font-family:Arial;font-size:12.00pt" xml:space="preserve"><tspan x="28.5" y="29.0">Collect data using an </tspan><tspan x="17.0" y="48.0">experimental study or an </tspan><tspan x="6.5" y="67.0">observational study (survey, </tspan><tspan x="52.0" y="86.0">web scraping)</tspan></text></g><g id="shape23" transform="translate(713.000000,428.081250)"><path stroke="#454545" stroke-width="2" d="M.0,.0L.0,-28.0L-302.0,-28.0L-302.0,-7.5" fill="none"/><path stroke-linecap="round" stroke="#454545" stroke-width="1" fill="#454545" d="M-297.8,-7.5L-302.0,1.0L-306.2,-7.5L-297.8,-7.5"/></g><g id="shape24" transform="translate(39.000000,583.934250)"><path fill-rule="nonzero" stroke="#69afff" stroke-width="3.333329916000366" fill="#f5f8ff" d="M202.0,81.2L202.0,.0L.0,.0L.0,81.2L202.0,81.2z"/><text style="fill:#303030;font-family:Arial;font-size:12.00pt" xml:space="preserve"><tspan x="6.0" y="38.0">Contact the stakeholders or </tspan><tspan x="22.0" y="57.0">a subject-matter expert</tspan></text></g><g id="shape25" transform="translate(140.000000,583.934250)"><path stroke="#454545" stroke-width="2" d="M.0,.0L.0,-104.0L161.5,-104.0" fill="none"/><path stroke-linecap="round" stroke="#454545" stroke-width="1" fill="#454545" d="M161.5,-108.2L170.0,-104.0L161.5,-99.8L161.5,-108.2"/></g><g id="shape26" transform="translate(310.000000,624.550000)"><path stroke="#454545" stroke-width="2" d="M.0,.0L-60.5,.0" fill="none"/><path stroke-linecap="round" stroke="#454545" stroke-width="1" fill="#454545" d="M-60.5,4.2L-69.0,.0L-60.5,-4.2L-60.5,4.2"/><rect x="-43.5" y="-9.5" width="20.0" fill="#ffffff" height="19.0"/><text style="fill:#454545;font-family:Arial;font-size:12.00pt" xml:space="preserve"><tspan x="-43.5" y="6.5">No</tspan></text></g><g id="shape27" transform="translate(310.000000,775.181250)"><path stroke="#454545" stroke-width="2" d="M.0,.0L-170.0,.0L-170.0,-102.5" fill="none"/><path stroke-linecap="round" stroke="#454545" stroke-width="1" fill="#454545" d="M-174.2,-102.5L-170.0,-111.0L-165.8,-102.5L-174.2,-102.5"/><rect x="-56.0" y="-9.5" width="20.0" fill="#ffffff" height="19.0"/><text style="fill:#454545;font-family:Arial;font-size:12.00pt" xml:space="preserve"><tspan x="-56.0" y="6.5">No</tspan></text></g><g id="shape28" transform="translate(310.000000,911.300000)"><path stroke="#454545" stroke-width="2" d="M.0,.0L-170.0,.0L-170.0,-238.5" fill="none"/><path stroke-linecap="round" stroke="#454545" stroke-width="1" fill="#454545" d="M-174.2,-238.5L-170.0,-247.0L-165.8,-238.5L-174.2,-238.5"/><rect x="-48.9" y="-9.5" width="20.0" fill="#ffffff" height="19.0"/><text style="fill:#454545;font-family:Arial;font-size:12.00pt" xml:space="preserve"><tspan x="-48.9" y="6.5">No</tspan></text></g><g id="shape29" transform="translate(310.000000,1053.262500)"><path stroke="#454545" stroke-width="2" d="M.0,.0L-170.0,.0L-170.0,-380.5" fill="none"/><path stroke-linecap="round" stroke="#454545" stroke-width="1" fill="#454545" d="M-174.2,-380.5L-170.0,-389.0L-165.8,-380.5L-174.2,-380.5"/><rect x="-51.0" y="-9.5" width="20.0" fill="#ffffff" height="19.0"/><text style="fill:#454545;font-family:Arial;font-size:12.00pt" xml:space="preserve"><tspan x="-51.0" y="6.5">No</tspan></text></g><g id="shape30" transform="translate(411.000000,1239.662500)"><path stroke="#454545" stroke-width="2" d="M.0,.0L.0,53.5" fill="none"/><path stroke-linecap="round" stroke="#454545" stroke-width="1" fill="#454545" d="M4.2,53.5L.0,62.0L-4.2,53.5L4.2,53.5"/><rect x="-11.5" y="22.6" width="25.0" fill="#ffffff" height="19.0"/><text style="fill:#454545;font-family:Arial;font-size:12.00pt" xml:space="preserve"><tspan x="-11.5" y="38.6">Yes</tspan></text></g><g id="shape31" transform="translate(310.000000,1300.162500)"><path fill-rule="nonzero" stroke="#69afff" stroke-width="3.333329916000366" fill="#f5f8ff" d="M202.0,54.8L202.0,.0L.0,.0L.0,54.8L202.0,54.8z"/><text style="fill:#303030;font-family:Arial;font-size:12.00pt" xml:space="preserve"><tspan x="70.0" y="33.9">Cleaning</tspan></text></g><g id="shape32" transform="translate(310.000000,1195.225000)"><path stroke="#454545" stroke-width="2" d="M.0,.0L-170.0,.0L-170.0,-522.5" fill="none"/><path stroke-linecap="round" stroke="#454545" stroke-width="1" fill="#454545" d="M-174.2,-522.5L-170.0,-531.0L-165.8,-522.5L-174.2,-522.5"/><rect x="-50.3" y="-9.5" width="20.0" fill="#ffffff" height="19.0"/><text style="fill:#454545;font-family:Arial;font-size:12.00pt" xml:space="preserve"><tspan x="-50.3" y="6.5">No</tspan></text></g><g id="shape33" transform="translate(411.000000,1355.000000)"><path stroke="#454545" stroke-width="2" d="M.0,.0L.0,29.5" fill="none"/><path stroke-linecap="round" stroke="#454545" stroke-width="1" fill="#454545" d="M4.2,29.5L.0,38.0L-4.2,29.5L4.2,29.5"/></g><g id="shape34" transform="translate(310.000000,1392.000000)"><path fill-rule="nonzero" stroke="#69afff" stroke-width="3.333329916000366" fill="#f5f8ff" d="M202.0,54.8L202.0,.0L.0,.0L.0,54.8L202.0,54.8z"/><text style="fill:#303030;font-family:Arial;font-size:12.00pt" xml:space="preserve"><tspan x="19.5" y="34.0">Exploring and analyzing</tspan></text></g><g id="shape35" transform="translate(411.000000,1446.837500)"><path stroke="#454545" stroke-width="2" d="M.0,.0L.0,18.5" fill="none"/><path stroke-linecap="round" stroke="#454545" stroke-width="1" fill="#454545" d="M4.2,18.5L.0,27.0L-4.2,18.5L4.2,18.5"/></g><g id="shape36" transform="translate(310.000000,1473.662500)"><path fill-rule="nonzero" stroke="#ff6991" stroke-width="3.333329916000366" fill="#fff5f7" d="M101.0,121.2L202.0,60.6L101.0,.0L.0,60.6L101.0,121.2z"/><text style="fill:#303030;font-family:Arial;font-size:12.00pt" xml:space="preserve"><tspan x="44.5" y="67.1">A pattern found?</tspan></text></g><g id="shape37" transform="translate(411.000000,1594.850000)"><path stroke="#454545" stroke-width="2" d="M.0,.0L.0,51.5" fill="none"/><path stroke-linecap="round" stroke="#454545" stroke-width="1" fill="#454545" d="M4.2,51.5L.0,60.0L-4.2,51.5L4.2,51.5"/><rect x="-11.5" y="13.3" width="25.0" fill="#ffffff" height="19.0"/><text style="fill:#454545;font-family:Arial;font-size:12.00pt" xml:space="preserve"><tspan x="-11.5" y="29.3">Yes</tspan></text></g><g id="shape38" transform="translate(310.000000,1654.850000)"><path fill-rule="nonzero" stroke="#69afff" stroke-width="3.333329916000366" fill="#f5f8ff" d="M202.0,59.2L202.0,.0L.0,.0L.0,59.2L202.0,59.2z"/><text style="fill:#303030;font-family:Arial;font-size:12.00pt" xml:space="preserve"><tspan x="58.5" y="36.5">Hypothesize</tspan></text></g><g id="shape39" transform="translate(411.000000,1714.000000)"><path stroke="#454545" stroke-width="2" d="M.0,.0L.0,29.5" fill="none"/><path stroke-linecap="round" stroke="#454545" stroke-width="1" fill="#454545" d="M4.2,29.5L.0,38.0L-4.2,29.5L4.2,29.5"/></g><g id="shape40" transform="translate(310.000000,1751.000000)"><path fill-rule="nonzero" stroke="#ff6991" stroke-width="3.333329916000366" fill="#fff5f7" d="M101.0,120.9L202.0,60.4L101.0,.0L.0,60.4L101.0,120.9z"/><text style="fill:#303030;font-family:Arial;font-size:12.00pt" xml:space="preserve"><tspan x="58.0" y="57.4">Significance </tspan><tspan x="77.5" y="76.4">found?</tspan></text></g><g id="shape41" transform="translate(411.000000,1871.875000)"><path stroke="#454545" stroke-width="2" d="M.0,.0L.0,74.5" fill="none"/><path stroke-linecap="round" stroke="#454545" stroke-width="1" fill="#454545" d="M4.2,74.5L.0,83.0L-4.2,74.5L4.2,74.5"/><rect x="-11.5" y="32.0" width="25.0" fill="#ffffff" height="19.0"/><text style="fill:#454545;font-family:Arial;font-size:12.00pt" xml:space="preserve"><tspan x="-11.5" y="48.0">Yes</tspan></text></g><g id="shape42" transform="translate(310.000000,1954.875000)"><path fill-rule="nonzero" stroke="#69afff" stroke-width="3.333329916000366" fill="#f5f8ff" d="M202.0,57.0L202.0,.0L.0,.0L.0,57.0L202.0,57.0z"/><text style="fill:#303030;font-family:Arial;font-size:12.00pt" xml:space="preserve"><tspan x="80.0" y="35.0">Share</tspan></text></g><g id="shape43" transform="translate(512.000000,1534.256250)"><path stroke="#454545" stroke-width="2" d="M.0,.0L28.0,.0L28.0,-115.0L8.5,-115.0" fill="none"/><path stroke-linecap="round" stroke="#454545" stroke-width="1" fill="#454545" d="M8.5,-110.8L.0,-115.0L8.5,-119.2L8.5,-110.8"/><rect x="19.0" y="-67.0" width="20.0" fill="#ffffff" height="19.0"/><text style="fill:#454545;font-family:Arial;font-size:12.00pt" xml:space="preserve"><tspan x="19.0" y="-51.0">No</tspan></text></g><g id="shape44" transform="translate(310.000000,1811.437500)"><path stroke="#454545" stroke-width="2" d="M.0,.0L-28.0,.0L-28.0,-392.0L-8.5,-392.0" fill="none"/><path stroke-linecap="round" stroke="#454545" stroke-width="1" fill="#454545" d="M-8.5,-396.2L.0,-392.0L-8.5,-387.8L-8.5,-396.2"/><rect x="-37.0" y="-205.5" width="20.0" fill="#ffffff" height="19.0"/><text style="fill:#454545;font-family:Arial;font-size:12.00pt" xml:space="preserve"><tspan x="-37.0" y="-189.5">No</tspan></text></g><g id="shape45" transform="translate(411.000000,2011.875000)"><path stroke="#454545" stroke-width="2" d="M.0,.0L.0,51.5" fill="none"/><path stroke-linecap="round" stroke="#454545" stroke-width="1" fill="#454545" d="M4.2,51.5L.0,60.0L-4.2,51.5L4.2,51.5"/></g><g id="shape46" transform="translate(310.000000,2071.875000)"><path fill-rule="nonzero" stroke="#69afff" stroke-width="3.333329916000366" fill="#f5f8ff" d="M202.0,57.0L202.0,.0L.0,.0L.0,57.0L202.0,57.0z"/><text style="fill:#303030;font-family:Arial;font-size:12.00pt" xml:space="preserve"><tspan x="89.5" y="35.0">Act</tspan></text></g><g id="shape47" transform="translate(411.000000,2128.875000)"><path stroke="#454545" stroke-width="2" d="M.0,.0L.0,51.5" fill="none"/><path stroke-linecap="round" stroke="#454545" stroke-width="1" fill="#454545" d="M4.2,51.5L.0,60.0L-4.2,51.5L4.2,51.5"/></g><g id="shape48" transform="translate(310.000000,2188.875000)"><path fill-rule="nonzero" stroke="#35b58f" stroke-width="3.333329916000366" fill="#f4f9f7" d="M28.5,57.0L173.5,57.0L173.5,57.0C189.2,57.0,202.0,44.2,202.0,28.5C202.0,12.8,189.2,.0,173.5,.0L28.5,.0L28.5,.0C12.8,.0,.0,12.8,.0,28.5C.0,44.2,12.8,57.0,28.5,57.0z"/><text style="fill:#303030;font-family:Arial;font-size:12.00pt" xml:space="preserve"><tspan x="87.0" y="35.0">End</tspan></text></g></g></svg>