<svg xmlns:xlink="http://www.w3.org/1999/xlink" height="729" xmlns:ev="http://www.w3.org/2001/xml-events" viewBox="0 0 315 729" width="315" xmlns="http://www.w3.org/2000/svg"><defs/><g id="page1" transform="translate(5.5,5.5)"><rect height="719" x="0" y="0" width="305" fill="#ffffff"/><g id="shape1" transform="translate(39.000000,221.701000)"><path stroke="#8c5fe6" d="M227.0,60.0L227.0,.0L.0,.0L.0,60.0L227.0,60.0z" fill-rule="nonzero" stroke-width="1" fill="#eeeafa"/><text xml:space="preserve" style="fill:#191919;font-family:Arial;font-size:12.00pt"><tspan x="4.5" y="27.0">Scraping from nox influancer for </tspan><tspan x="50.0" y="46.0">channel data base</tspan></text></g><g id="shape2" transform="translate(39.000000,321.200000)"><path stroke="#8c5fe6" d="M227.0,60.0L227.0,.0L.0,.0L.0,60.0L227.0,60.0z" fill-rule="nonzero" stroke-width="1" fill="#eeeafa"/><text xml:space="preserve" style="fill:#191919;font-family:Arial;font-size:12.00pt"><tspan x="12.0" y="27.0">Getting additional information </tspan><tspan x="12.5" y="46.0">about a channel from youtube</tspan></text></g><g id="shape3" transform="translate(39.000000,420.700000)"><path stroke="#8c5fe6" d="M227.0,60.0L227.0,.0L.0,.0L.0,60.0L227.0,60.0z" fill-rule="nonzero" stroke-width="1" fill="#eeeafa"/><text xml:space="preserve" style="fill:#191919;font-family:Arial;font-size:12.00pt"><tspan x="82.5" y="36.5">Cleaning</tspan></text></g><g id="shape4" transform="translate(39.000000,520.200000)"><path stroke="#8c5fe6" d="M227.0,60.0L227.0,.0L.0,.0L.0,60.0L227.0,60.0z" fill-rule="nonzero" stroke-width="1" fill="#eeeafa"/><text xml:space="preserve" style="fill:#191919;font-family:Arial;font-size:12.00pt"><tspan x="6.5" y="27.0">Intreducing a metric to evaluate </tspan><tspan x="35.0" y="46.0">the ittness of a channel</tspan></text></g><g id="shape5" transform="translate(39.000000,122.201000)"><path stroke="#8c5fe6" d="M227.0,60.0L227.0,.0L.0,.0L.0,60.0L227.0,60.0z" fill-rule="nonzero" stroke-width="1" fill="#eeeafa"/><text xml:space="preserve" style="fill:#191919;font-family:Arial;font-size:12.00pt"><tspan x="25.0" y="36.5">Setting up a google colab</tspan></text></g><g id="shape6" transform="translate(39.000000,619.700000)"><path stroke="#8c5fe6" d="M227.0,60.0L227.0,.0L.0,.0L.0,60.0L227.0,60.0z" fill-rule="nonzero" stroke-width="1" fill="#eeeafa"/><text xml:space="preserve" style="fill:#191919;font-family:Arial;font-size:12.00pt"><tspan x="15.5" y="27.0">Saving the data for business </tspan><tspan x="97.0" y="46.0">uses</tspan></text></g><g id="shape7" transform="translate(39.000000,38.701000)"><path stroke="#6bdec6" d="M22.0,44.0L205.0,44.0L205.0,44.0C217.2,44.0,227.0,34.2,227.0,22.0C227.0,9.8,217.2,.0,205.0,.0L22.0,.0L22.0,.0C9.8,.0,.0,9.8,.0,22.0C.0,34.2,9.8,44.0,22.0,44.0z" fill-rule="nonzero" stroke-width="1" fill="#ebf9f5"/><text xml:space="preserve" style="fill:#191919;font-family:Arial;font-size:12.00pt"><tspan x="63.0" y="28.5">Start of project</tspan></text></g><g id="shape8" transform="translate(152.000000,82.000000)"><path stroke="#191919" d="M.0,.0L.0,34.0" stroke-width="1" fill="none"/><path stroke="#191919" stroke-linecap="round" d="M3.0,34.0L.0,40.0L-3.0,34.0L3.0,34.0" stroke-width="1" fill="#191919"/></g><g id="shape9" transform="translate(152.000000,182.000000)"><path stroke="#191919" d="M.0,.0L.0,33.0" stroke-width="1" fill="none"/><path stroke="#191919" stroke-linecap="round" d="M3.0,33.0L.0,39.0L-3.0,33.0L3.0,33.0" stroke-width="1" fill="#191919"/></g><g id="shape10" transform="translate(152.000000,281.000000)"><path stroke="#191919" d="M.0,.0L.0,34.0" stroke-width="1" fill="none"/><path stroke="#191919" stroke-linecap="round" d="M3.0,34.0L.0,40.0L-3.0,34.0L3.0,34.0" stroke-width="1" fill="#191919"/></g><g id="shape11" transform="translate(152.000000,381.000000)"><path stroke="#191919" d="M.0,.0L.0,33.0" stroke-width="1" fill="none"/><path stroke="#191919" stroke-linecap="round" d="M3.0,33.0L.0,39.0L-3.0,33.0L3.0,33.0" stroke-width="1" fill="#191919"/></g><g id="shape12" transform="translate(152.000000,480.000000)"><path stroke="#191919" d="M.0,.0L.0,34.0" stroke-width="1" fill="none"/><path stroke="#191919" stroke-linecap="round" d="M3.0,34.0L.0,40.0L-3.0,34.0L3.0,34.0" stroke-width="1" fill="#191919"/></g><g id="shape13" transform="translate(152.000000,580.000000)"><path stroke="#191919" d="M.0,.0L.0,33.0" stroke-width="1" fill="none"/><path stroke="#191919" stroke-linecap="round" d="M3.0,33.0L.0,39.0L-3.0,33.0L3.0,33.0" stroke-width="1" fill="#191919"/></g><path d="M52.8,157.3L51.6,156.4C51.9,156.2,52.2,156.0,52.4,155.8C52.6,155.5,52.8,155.3,52.9,155.0C52.9,154.8,52.9,154.5,52.9,154.3C52.8,154.1,52.7,153.7,52.4,153.0C52.3,152.9,52.3,152.8,52.2,152.6L42.6,148.3L43.8,147.0L49.3,149.6C50.0,149.9,50.7,150.3,51.4,150.7C51.0,150.0,50.7,149.4,50.3,148.7L47.8,143.1L48.9,141.9L53.4,151.7C53.9,152.7,54.2,153.5,54.3,153.9C54.5,154.5,54.5,155.0,54.4,155.5C54.3,155.9,54.1,156.3,53.7,156.7C53.5,156.9,53.2,157.2,52.8,157.3M53.2,145.8L52.0,144.6L55.6,141.0L56.8,142.2L53.2,145.8M63.4,146.7L62.2,145.8C62.5,145.6,62.8,145.4,63.0,145.2C63.2,144.9,63.4,144.7,63.5,144.4C63.5,144.2,63.5,143.9,63.5,143.7C63.4,143.5,63.3,143.1,63.0,142.4C62.9,142.3,62.9,142.2,62.8,142.0L53.2,137.7L54.4,136.4L59.9,139.0C60.6,139.3,61.3,139.7,62.0,140.1C61.6,139.4,61.3,138.7,60.9,138.0L58.4,132.5L59.5,131.3L64.0,141.0C64.5,142.1,64.8,142.8,64.9,143.3C65.1,143.9,65.1,144.4,65.0,144.9C64.9,145.3,64.7,145.7,64.3,146.1C64.1,146.3,63.8,146.5,63.4,146.7M63.2,134.6C61.9,133.3,61.3,132.0,61.4,130.6C61.5,129.5,62.0,128.5,62.9,127.7C63.8,126.7,64.9,126.3,66.2,126.3C67.4,126.3,68.6,126.9,69.7,128.0C70.6,128.9,71.1,129.7,71.4,130.5C71.6,131.3,71.6,132.1,71.4,132.9C71.2,133.7,70.8,134.4,70.1,135.0C69.2,135.9,68.1,136.4,66.8,136.4C65.6,136.4,64.4,135.8,63.2,134.6M64.4,133.4C65.3,134.3,66.2,134.7,67.0,134.8C67.9,134.8,68.6,134.6,69.2,134.0C69.8,133.4,70.0,132.7,70.0,131.9C69.9,131.0,69.4,130.1,68.5,129.2C67.6,128.4,66.8,127.9,66.0,127.9C65.1,127.8,64.4,128.1,63.8,128.7C63.2,129.2,63.0,130.0,63.0,130.8C63.1,131.6,63.6,132.5,64.4,133.4M74.9,129.9L68.0,122.9L69.0,121.8L70.1,122.9C69.9,122.1,69.8,121.6,69.8,121.2C69.9,120.8,70.1,120.4,70.4,120.2C70.8,119.8,71.3,119.5,72.0,119.3L72.7,120.8C72.2,121.0,71.8,121.2,71.5,121.4C71.3,121.7,71.1,122.0,71.1,122.4C71.0,122.7,71.1,123.1,71.3,123.5C71.6,124.0,72.0,124.5,72.5,125.0L76.1,128.7L74.9,129.9M75.3,122.6C74.0,121.3,73.4,120.0,73.5,118.6C73.5,117.5,74.0,116.5,74.9,115.7C75.8,114.7,76.9,114.2,78.2,114.3C79.4,114.3,80.6,114.8,81.7,115.9C82.6,116.8,83.2,117.7,83.4,118.5C83.6,119.2,83.7,120.0,83.4,120.8C83.2,121.6,82.8,122.3,82.2,122.9C81.2,123.9,80.1,124.4,78.9,124.4C77.6,124.3,76.4,123.7,75.3,122.6M76.5,121.4C77.4,122.2,78.2,122.7,79.1,122.8C79.9,122.8,80.6,122.6,81.2,122.0C81.8,121.4,82.0,120.7,82.0,119.8C81.9,119.0,81.4,118.1,80.5,117.2C79.7,116.4,78.8,115.9,78.0,115.8C77.2,115.8,76.4,116.1,75.9,116.6C75.3,117.2,75.0,117.9,75.1,118.8C75.1,119.6,75.6,120.5,76.5,121.4M86.3,118.5L85.4,117.5L84.7,108.0C84.2,108.5,83.8,109.0,83.4,109.3L80.6,112.2L79.6,111.2L85.3,105.5L86.1,106.3L86.8,114.5L86.8,116.0C87.3,115.5,87.8,115.0,88.3,114.5L91.5,111.3L92.5,112.3L86.3,118.5M85.1,103.2L83.7,101.8L84.9,100.7L86.2,102.0L85.1,103.2M93.3,111.5L86.4,104.5L87.5,103.3L94.5,110.3L93.3,111.5M99.8,103.2C99.8,104.0,99.6,104.7,99.4,105.3C99.1,105.8,98.8,106.4,98.3,106.8C97.5,107.6,96.7,108.0,96.0,108.0C95.2,108.1,94.5,107.8,93.9,107.2C93.6,106.9,93.3,106.5,93.2,106.0C93.1,105.6,93.1,105.2,93.1,104.7C93.2,104.3,93.4,103.9,93.6,103.5C93.8,103.2,94.1,102.8,94.5,102.3C95.3,101.2,95.9,100.4,96.2,99.8C96.0,99.6,95.9,99.5,95.9,99.5C95.4,99.0,94.9,98.7,94.5,98.8C94.0,98.8,93.4,99.1,92.8,99.7C92.2,100.3,91.9,100.8,91.8,101.2C91.8,101.7,91.9,102.2,92.3,102.9L91.0,103.9C90.6,103.3,90.4,102.7,90.3,102.1C90.2,101.6,90.3,101.0,90.6,100.4C90.9,99.8,91.4,99.2,92.0,98.6C92.6,98.0,93.1,97.6,93.6,97.3C94.1,97.1,94.6,97.0,95.0,97.0C95.4,97.1,95.8,97.2,96.1,97.5C96.4,97.6,96.8,98.0,97.3,98.5L98.9,100.1C100.0,101.2,100.7,101.8,101.0,102.1C101.4,102.3,101.8,102.5,102.2,102.6L100.9,103.9C100.6,103.7,100.2,103.5,99.8,103.2M97.1,100.7C96.8,101.3,96.4,102.1,95.6,103.1C95.2,103.6,94.9,104.0,94.8,104.3C94.7,104.6,94.7,104.9,94.7,105.2C94.8,105.5,94.9,105.7,95.1,105.9C95.5,106.2,95.8,106.4,96.3,106.3C96.7,106.3,97.2,106.1,97.6,105.6C98.1,105.2,98.4,104.7,98.6,104.1C98.7,103.5,98.7,103.0,98.5,102.5C98.4,102.1,98.1,101.6,97.5,101.1L97.1,100.7M103.6,101.2L102.2,99.9L103.6,98.5L104.9,99.9L103.6,101.2M107.1,98.8L108.4,97.8C108.8,98.2,109.2,98.3,109.6,98.2C110.1,98.1,110.6,97.9,111.1,97.4C111.7,96.8,112.0,96.3,112.1,95.8C112.2,95.2,112.1,94.7,111.8,94.2C111.6,93.9,111.1,93.4,110.3,92.6C110.4,93.8,110.1,94.7,109.3,95.5C108.4,96.4,107.3,96.8,106.1,96.7C104.8,96.5,103.7,95.9,102.8,95.0C102.1,94.3,101.6,93.6,101.3,92.8C101.0,92.0,100.9,91.2,101.0,90.4C101.2,89.7,101.6,89.0,102.2,88.3C103.0,87.5,104.0,87.2,105.2,87.3L104.4,86.5L105.5,85.4L111.5,91.4C112.6,92.5,113.2,93.4,113.5,94.0C113.7,94.7,113.7,95.4,113.5,96.2C113.3,96.9,112.8,97.6,112.1,98.3C111.3,99.2,110.4,99.6,109.5,99.8C108.7,99.9,107.9,99.6,107.1,98.8M103.9,93.7C104.8,94.6,105.7,95.1,106.5,95.1C107.2,95.2,107.9,94.9,108.4,94.4C109.0,93.8,109.2,93.2,109.2,92.4C109.1,91.6,108.7,90.8,107.8,89.9C106.9,89.0,106.1,88.6,105.3,88.5C104.5,88.5,103.8,88.7,103.3,89.2C102.7,89.8,102.5,90.4,102.6,91.2C102.6,92.0,103.1,92.8,103.9,93.7M106.3,82.0L104.9,80.6L106.1,79.5L107.5,80.8L106.3,82.0M114.5,90.2L107.6,83.3L108.8,82.1L115.7,89.1L114.5,90.2M118.9,83.8L120.1,84.7C119.8,85.1,119.6,85.4,119.3,85.7C118.9,86.1,118.5,86.4,118.1,86.5C117.7,86.6,117.4,86.5,117.1,86.4C116.8,86.3,116.2,85.9,115.5,85.2L111.5,81.2L110.7,82.0L109.7,81.1L110.6,80.2L108.9,78.5L109.4,76.6L111.8,79.1L113.0,77.9L113.9,78.8L112.7,80.0L116.8,84.1C117.1,84.4,117.4,84.6,117.5,84.6C117.6,84.7,117.8,84.7,117.9,84.7C118.1,84.6,118.2,84.5,118.4,84.4C118.5,84.2,118.7,84.0,118.9,83.8M120.9,83.9L111.3,74.3L112.5,73.1L115.9,76.5C115.8,75.4,116.2,74.3,117.0,73.5C117.6,73.0,118.1,72.6,118.7,72.5C119.3,72.3,119.8,72.3,120.4,72.5C120.9,72.7,121.5,73.1,122.2,73.8L126.6,78.2L125.4,79.4L121.0,75.0C120.4,74.4,119.8,74.1,119.3,74.1C118.8,74.1,118.3,74.3,117.8,74.8C117.5,75.1,117.2,75.5,117.1,76.0C117.0,76.5,117.0,77.0,117.2,77.4C117.4,77.9,117.7,78.4,118.3,78.9L122.1,82.7L120.9,83.9M132.5,72.3L131.5,71.2C131.8,72.6,131.4,73.7,130.5,74.6C130.1,75.0,129.6,75.3,129.1,75.5C128.6,75.7,128.1,75.8,127.7,75.7C127.3,75.7,126.9,75.5,126.5,75.2C126.2,75.0,125.8,74.7,125.3,74.2L121.0,69.9L122.2,68.7L126.0,72.6C126.6,73.2,127.1,73.6,127.3,73.7C127.7,74.0,128.1,74.1,128.5,74.0C129.0,73.9,129.3,73.7,129.7,73.4C130.1,73.0,130.3,72.6,130.4,72.1C130.6,71.6,130.5,71.1,130.3,70.7C130.2,70.3,129.8,69.7,129.2,69.1L125.4,65.4L126.6,64.2L133.6,71.2L132.5,72.3M136.1,68.7L135.0,69.8L125.4,60.1L126.6,59.0L130.0,62.4C129.9,61.3,130.2,60.3,131.0,59.5C131.4,59.1,131.9,58.8,132.5,58.6C133.0,58.4,133.6,58.3,134.1,58.4C134.7,58.4,135.3,58.6,135.9,58.9C136.4,59.2,137.0,59.6,137.5,60.1C138.7,61.3,139.3,62.5,139.4,63.8C139.4,65.0,139.0,66.1,138.2,66.9C137.4,67.7,136.4,68.0,135.3,67.8L136.1,68.7M132.6,65.1C133.4,66.0,134.1,66.5,134.7,66.6C135.7,66.8,136.5,66.6,137.2,66.0C137.7,65.5,137.9,64.8,137.8,64.0C137.7,63.2,137.3,62.3,136.4,61.4C135.5,60.5,134.6,60.0,133.8,60.0C133.0,59.9,132.4,60.1,131.9,60.6C131.3,61.1,131.1,61.8,131.2,62.6C131.3,63.5,131.7,64.3,132.6,65.1M143.2,61.6L141.8,60.3L143.2,58.9L144.5,60.3L143.2,61.6M138.1,50.2L136.7,48.8L137.9,47.6L139.3,49.0L138.1,50.2M146.4,58.4L139.4,51.5L140.6,50.3L147.5,57.2L146.4,58.4M145.3,52.6C144.0,51.3,143.4,50.0,143.5,48.6C143.6,47.5,144.0,46.5,144.9,45.7C145.8,44.7,146.9,44.2,148.2,44.2C149.4,44.3,150.6,44.8,151.7,45.9C152.6,46.8,153.2,47.7,153.4,48.5C153.6,49.2,153.7,50.0,153.4,50.8C153.2,51.6,152.8,52.3,152.2,52.9C151.2,53.9,150.1,54.4,148.9,54.4C147.6,54.3,146.4,53.7,145.3,52.6M146.5,51.3C147.4,52.2,148.2,52.7,149.1,52.8C149.9,52.8,150.6,52.6,151.2,52.0C151.8,51.4,152.0,50.7,152.0,49.8C151.9,49.0,151.4,48.1,150.5,47.2C149.7,46.3,148.8,45.9,148.0,45.8C147.2,45.8,146.4,46.1,145.9,46.6C145.3,47.2,145.0,47.9,145.1,48.8C145.1,49.6,145.6,50.5,146.5,51.3" stroke-opacity="0.50" fill="#868686" fill-opacity="0.50"/><path d="M52.8,355.3L51.6,354.4C51.9,354.2,52.2,354.0,52.4,353.8C52.6,353.5,52.8,353.3,52.9,353.0C52.9,352.8,52.9,352.5,52.9,352.3C52.8,352.1,52.7,351.7,52.4,351.0C52.3,350.9,52.3,350.8,52.2,350.6L42.6,346.3L43.8,345.0L49.3,347.6C50.0,347.9,50.7,348.3,51.4,348.7C51.0,348.0,50.7,347.4,50.3,346.7L47.8,341.1L48.9,339.9L53.4,349.7C53.9,350.7,54.2,351.5,54.3,351.9C54.5,352.5,54.5,353.0,54.4,353.5C54.3,353.9,54.1,354.3,53.7,354.7C53.5,354.9,53.2,355.2,52.8,355.3M53.2,343.8L52.0,342.6L55.6,339.0L56.8,340.2L53.2,343.8M63.4,344.7L62.2,343.8C62.5,343.6,62.8,343.4,63.0,343.2C63.2,342.9,63.4,342.7,63.5,342.4C63.5,342.2,63.5,341.9,63.5,341.7C63.4,341.5,63.3,341.1,63.0,340.4C62.9,340.3,62.9,340.2,62.8,340.0L53.2,335.7L54.4,334.4L59.9,337.0C60.6,337.3,61.3,337.7,62.0,338.1C61.6,337.4,61.3,336.7,60.9,336.0L58.4,330.5L59.5,329.3L64.0,339.0C64.5,340.1,64.8,340.8,64.9,341.3C65.1,341.9,65.1,342.4,65.0,342.9C64.9,343.3,64.7,343.7,64.3,344.1C64.1,344.3,63.8,344.5,63.4,344.7M63.2,332.6C61.9,331.3,61.3,330.0,61.4,328.6C61.5,327.5,62.0,326.5,62.9,325.7C63.8,324.7,64.9,324.3,66.2,324.3C67.4,324.3,68.6,324.9,69.7,326.0C70.6,326.9,71.1,327.7,71.4,328.5C71.6,329.3,71.6,330.1,71.4,330.9C71.2,331.7,70.8,332.4,70.1,333.0C69.2,333.9,68.1,334.4,66.8,334.4C65.6,334.4,64.4,333.8,63.2,332.6M64.4,331.4C65.3,332.3,66.2,332.7,67.0,332.8C67.9,332.8,68.6,332.6,69.2,332.0C69.8,331.4,70.0,330.7,70.0,329.9C69.9,329.0,69.4,328.1,68.5,327.2C67.6,326.4,66.8,325.9,66.0,325.9C65.1,325.8,64.4,326.1,63.8,326.7C63.2,327.2,63.0,328.0,63.0,328.8C63.1,329.6,63.6,330.5,64.4,331.4M74.9,327.9L68.0,320.9L69.0,319.8L70.1,320.9C69.9,320.1,69.8,319.6,69.8,319.2C69.9,318.8,70.1,318.4,70.4,318.2C70.8,317.8,71.3,317.5,72.0,317.3L72.7,318.8C72.2,319.0,71.8,319.2,71.5,319.4C71.3,319.7,71.1,320.0,71.1,320.4C71.0,320.7,71.1,321.1,71.3,321.5C71.6,322.0,72.0,322.5,72.5,323.0L76.1,326.7L74.9,327.9M75.3,320.6C74.0,319.3,73.4,318.0,73.5,316.6C73.5,315.5,74.0,314.5,74.9,313.7C75.8,312.7,76.9,312.2,78.2,312.3C79.4,312.3,80.6,312.8,81.7,313.9C82.6,314.8,83.2,315.7,83.4,316.5C83.6,317.2,83.7,318.0,83.4,318.8C83.2,319.6,82.8,320.3,82.2,320.9C81.2,321.9,80.1,322.4,78.9,322.4C77.6,322.3,76.4,321.7,75.3,320.6M76.5,319.4C77.4,320.2,78.2,320.7,79.1,320.8C79.9,320.8,80.6,320.6,81.2,320.0C81.8,319.4,82.0,318.7,82.0,317.8C81.9,317.0,81.4,316.1,80.5,315.2C79.7,314.4,78.8,313.9,78.0,313.8C77.2,313.8,76.4,314.1,75.9,314.6C75.3,315.2,75.0,315.9,75.1,316.8C75.1,317.6,75.6,318.5,76.5,319.4M86.3,316.5L85.4,315.5L84.7,306.0C84.2,306.5,83.8,307.0,83.4,307.3L80.6,310.2L79.6,309.2L85.3,303.5L86.1,304.3L86.8,312.5L86.8,314.0C87.3,313.5,87.8,313.0,88.3,312.5L91.5,309.3L92.5,310.3L86.3,316.5M85.1,301.2L83.7,299.8L84.9,298.7L86.2,300.0L85.1,301.2M93.3,309.5L86.4,302.5L87.5,301.3L94.5,308.3L93.3,309.5M99.8,301.2C99.8,302.0,99.6,302.7,99.4,303.3C99.1,303.8,98.8,304.4,98.3,304.8C97.5,305.6,96.7,306.0,96.0,306.0C95.2,306.1,94.5,305.8,93.9,305.2C93.6,304.9,93.3,304.5,93.2,304.0C93.1,303.6,93.1,303.2,93.1,302.7C93.2,302.3,93.4,301.9,93.6,301.5C93.8,301.2,94.1,300.8,94.5,300.3C95.3,299.2,95.9,298.4,96.2,297.8C96.0,297.6,95.9,297.5,95.9,297.5C95.4,297.0,94.9,296.7,94.5,296.8C94.0,296.8,93.4,297.1,92.8,297.7C92.2,298.3,91.9,298.8,91.8,299.2C91.8,299.7,91.9,300.2,92.3,300.9L91.0,301.9C90.6,301.3,90.4,300.7,90.3,300.1C90.2,299.6,90.3,299.0,90.6,298.4C90.9,297.8,91.4,297.2,92.0,296.6C92.6,296.0,93.1,295.6,93.6,295.3C94.1,295.1,94.6,295.0,95.0,295.0C95.4,295.1,95.8,295.2,96.1,295.5C96.4,295.6,96.8,296.0,97.3,296.5L98.9,298.1C100.0,299.2,100.7,299.8,101.0,300.1C101.4,300.3,101.8,300.5,102.2,300.6L100.9,301.9C100.6,301.7,100.2,301.5,99.8,301.2M97.1,298.7C96.8,299.3,96.4,300.1,95.6,301.1C95.2,301.6,94.9,302.0,94.8,302.3C94.7,302.6,94.7,302.9,94.7,303.2C94.8,303.5,94.9,303.7,95.1,303.9C95.5,304.2,95.8,304.4,96.3,304.3C96.7,304.3,97.2,304.1,97.6,303.6C98.1,303.2,98.4,302.7,98.6,302.1C98.7,301.5,98.7,301.0,98.5,300.5C98.4,300.1,98.1,299.6,97.5,299.1L97.1,298.7M103.6,299.2L102.2,297.9L103.6,296.5L104.9,297.9L103.6,299.2M107.1,296.8L108.4,295.8C108.8,296.2,109.2,296.3,109.6,296.2C110.1,296.1,110.6,295.9,111.1,295.4C111.7,294.8,112.0,294.3,112.1,293.8C112.2,293.2,112.1,292.7,111.8,292.2C111.6,291.9,111.1,291.4,110.3,290.6C110.4,291.8,110.1,292.7,109.3,293.5C108.4,294.4,107.3,294.8,106.1,294.7C104.8,294.5,103.7,293.9,102.8,293.0C102.1,292.3,101.6,291.6,101.3,290.8C101.0,290.0,100.9,289.2,101.0,288.4C101.2,287.7,101.6,287.0,102.2,286.3C103.0,285.5,104.0,285.2,105.2,285.3L104.4,284.5L105.5,283.4L111.5,289.4C112.6,290.5,113.2,291.4,113.5,292.0C113.7,292.7,113.7,293.4,113.5,294.2C113.3,294.9,112.8,295.6,112.1,296.3C111.3,297.2,110.4,297.6,109.5,297.8C108.7,297.9,107.9,297.6,107.1,296.8M103.9,291.7C104.8,292.6,105.7,293.1,106.5,293.1C107.2,293.2,107.9,292.9,108.4,292.4C109.0,291.8,109.2,291.2,109.2,290.4C109.1,289.6,108.7,288.8,107.8,287.9C106.9,287.0,106.1,286.6,105.3,286.5C104.5,286.5,103.8,286.7,103.3,287.2C102.7,287.8,102.5,288.4,102.6,289.2C102.6,290.0,103.1,290.8,103.9,291.7M106.3,280.0L104.9,278.6L106.1,277.5L107.5,278.8L106.3,280.0M114.5,288.2L107.6,281.3L108.8,280.1L115.7,287.1L114.5,288.2M118.9,281.8L120.1,282.7C119.8,283.1,119.6,283.4,119.3,283.7C118.9,284.1,118.5,284.4,118.1,284.5C117.7,284.6,117.4,284.5,117.1,284.4C116.8,284.3,116.2,283.9,115.5,283.2L111.5,279.2L110.7,280.0L109.7,279.1L110.6,278.2L108.9,276.5L109.4,274.6L111.8,277.1L113.0,275.9L113.9,276.8L112.7,278.0L116.8,282.1C117.1,282.4,117.4,282.6,117.5,282.6C117.6,282.7,117.8,282.7,117.9,282.7C118.1,282.6,118.2,282.5,118.4,282.4C118.5,282.2,118.7,282.0,118.9,281.8M120.9,281.9L111.3,272.3L112.5,271.1L115.9,274.5C115.8,273.4,116.2,272.3,117.0,271.5C117.6,271.0,118.1,270.6,118.7,270.5C119.3,270.3,119.8,270.3,120.4,270.5C120.9,270.7,121.5,271.1,122.2,271.8L126.6,276.2L125.4,277.4L121.0,273.0C120.4,272.4,119.8,272.1,119.3,272.1C118.8,272.1,118.3,272.3,117.8,272.8C117.5,273.1,117.2,273.5,117.1,274.0C117.0,274.5,117.0,275.0,117.2,275.4C117.4,275.9,117.7,276.4,118.3,276.9L122.1,280.7L120.9,281.9M132.5,270.3L131.5,269.2C131.8,270.6,131.4,271.7,130.5,272.6C130.1,273.0,129.6,273.3,129.1,273.5C128.6,273.7,128.1,273.8,127.7,273.7C127.3,273.7,126.9,273.5,126.5,273.2C126.2,273.0,125.8,272.7,125.3,272.2L121.0,267.9L122.2,266.7L126.0,270.6C126.6,271.2,127.1,271.6,127.3,271.7C127.7,272.0,128.1,272.1,128.5,272.0C129.0,271.9,129.3,271.7,129.7,271.4C130.1,271.0,130.3,270.6,130.4,270.1C130.6,269.6,130.5,269.1,130.3,268.7C130.2,268.3,129.8,267.7,129.2,267.1L125.4,263.4L126.6,262.2L133.6,269.2L132.5,270.3M136.1,266.7L135.0,267.8L125.4,258.1L126.6,257.0L130.0,260.4C129.9,259.3,130.2,258.3,131.0,257.5C131.4,257.1,131.9,256.8,132.5,256.6C133.0,256.4,133.6,256.3,134.1,256.4C134.7,256.4,135.3,256.6,135.9,256.9C136.4,257.2,137.0,257.6,137.5,258.1C138.7,259.3,139.3,260.5,139.4,261.8C139.4,263.0,139.0,264.1,138.2,264.9C137.4,265.7,136.4,266.0,135.3,265.8L136.1,266.7M132.6,263.1C133.4,264.0,134.1,264.5,134.7,264.6C135.7,264.8,136.5,264.6,137.2,264.0C137.7,263.5,137.9,262.8,137.8,262.0C137.7,261.2,137.3,260.3,136.4,259.4C135.5,258.5,134.6,258.0,133.8,258.0C133.0,257.9,132.4,258.1,131.9,258.6C131.3,259.1,131.1,259.8,131.2,260.6C131.3,261.5,131.7,262.3,132.6,263.1M143.2,259.6L141.8,258.3L143.2,256.9L144.5,258.3L143.2,259.6M138.1,248.2L136.7,246.8L137.9,245.6L139.3,247.0L138.1,248.2M146.4,256.4L139.4,249.5L140.6,248.3L147.5,255.2L146.4,256.4M145.3,250.6C144.0,249.3,143.4,248.0,143.5,246.6C143.6,245.5,144.0,244.5,144.9,243.7C145.8,242.7,146.9,242.2,148.2,242.2C149.4,242.3,150.6,242.8,151.7,243.9C152.6,244.8,153.2,245.7,153.4,246.5C153.6,247.2,153.7,248.0,153.4,248.8C153.2,249.6,152.8,250.3,152.2,250.9C151.2,251.9,150.1,252.4,148.9,252.4C147.6,252.3,146.4,251.7,145.3,250.6M146.5,249.3C147.4,250.2,148.2,250.7,149.1,250.8C149.9,250.8,150.6,250.6,151.2,250.0C151.8,249.4,152.0,248.7,152.0,247.8C151.9,247.0,151.4,246.1,150.5,245.2C149.7,244.3,148.8,243.9,148.0,243.8C147.2,243.8,146.4,244.1,145.9,244.6C145.3,245.2,145.0,245.9,145.1,246.8C145.1,247.6,145.6,248.5,146.5,249.3" stroke-opacity="0.50" fill="#868686" fill-opacity="0.50"/><path d="M52.8,553.3L51.6,552.4C51.9,552.2,52.2,552.0,52.4,551.8C52.6,551.5,52.8,551.3,52.9,551.0C52.9,550.8,52.9,550.5,52.9,550.3C52.8,550.1,52.7,549.7,52.4,549.0C52.3,548.9,52.3,548.8,52.2,548.6L42.6,544.3L43.8,543.0L49.3,545.6C50.0,545.9,50.7,546.3,51.4,546.7C51.0,546.0,50.7,545.4,50.3,544.7L47.8,539.1L48.9,537.9L53.4,547.7C53.9,548.7,54.2,549.5,54.3,549.9C54.5,550.5,54.5,551.0,54.4,551.5C54.3,551.9,54.1,552.3,53.7,552.7C53.5,552.9,53.2,553.2,52.8,553.3M53.2,541.8L52.0,540.6L55.6,537.0L56.8,538.2L53.2,541.8M63.4,542.7L62.2,541.8C62.5,541.6,62.8,541.4,63.0,541.2C63.2,540.9,63.4,540.7,63.5,540.4C63.5,540.2,63.5,539.9,63.5,539.7C63.4,539.5,63.3,539.1,63.0,538.4C62.9,538.3,62.9,538.2,62.8,538.0L53.2,533.7L54.4,532.4L59.9,535.0C60.6,535.3,61.3,535.7,62.0,536.1C61.6,535.4,61.3,534.7,60.9,534.0L58.4,528.5L59.5,527.3L64.0,537.0C64.5,538.1,64.8,538.8,64.9,539.3C65.1,539.9,65.1,540.4,65.0,540.9C64.9,541.3,64.7,541.7,64.3,542.1C64.1,542.3,63.8,542.5,63.4,542.7M63.2,530.6C61.9,529.3,61.3,528.0,61.4,526.6C61.5,525.5,62.0,524.5,62.9,523.7C63.8,522.7,64.9,522.3,66.2,522.3C67.4,522.3,68.6,522.9,69.7,524.0C70.6,524.9,71.1,525.7,71.4,526.5C71.6,527.3,71.6,528.1,71.4,528.9C71.2,529.7,70.8,530.4,70.1,531.0C69.2,531.9,68.1,532.4,66.8,532.4C65.6,532.4,64.4,531.8,63.2,530.6M64.4,529.4C65.3,530.3,66.2,530.7,67.0,530.8C67.9,530.8,68.6,530.6,69.2,530.0C69.8,529.4,70.0,528.7,70.0,527.9C69.9,527.0,69.4,526.1,68.5,525.2C67.6,524.4,66.8,523.9,66.0,523.9C65.1,523.8,64.4,524.1,63.8,524.7C63.2,525.2,63.0,526.0,63.0,526.8C63.1,527.6,63.6,528.5,64.4,529.4M74.9,525.9L68.0,518.9L69.0,517.8L70.1,518.9C69.9,518.1,69.8,517.6,69.8,517.2C69.9,516.8,70.1,516.4,70.4,516.2C70.8,515.8,71.3,515.5,72.0,515.3L72.7,516.8C72.2,517.0,71.8,517.2,71.5,517.4C71.3,517.7,71.1,518.0,71.1,518.4C71.0,518.7,71.1,519.1,71.3,519.5C71.6,520.0,72.0,520.5,72.5,521.0L76.1,524.7L74.9,525.9M75.3,518.6C74.0,517.3,73.4,516.0,73.5,514.6C73.5,513.5,74.0,512.5,74.9,511.7C75.8,510.7,76.9,510.2,78.2,510.3C79.4,510.3,80.6,510.8,81.7,511.9C82.6,512.8,83.2,513.7,83.4,514.5C83.6,515.2,83.7,516.0,83.4,516.8C83.2,517.6,82.8,518.3,82.2,518.9C81.2,519.9,80.1,520.4,78.9,520.4C77.6,520.3,76.4,519.7,75.3,518.6M76.5,517.4C77.4,518.2,78.2,518.7,79.1,518.8C79.9,518.8,80.6,518.6,81.2,518.0C81.8,517.4,82.0,516.7,82.0,515.8C81.9,515.0,81.4,514.1,80.5,513.2C79.7,512.4,78.8,511.9,78.0,511.8C77.2,511.8,76.4,512.1,75.9,512.6C75.3,513.2,75.0,513.9,75.1,514.8C75.1,515.6,75.6,516.5,76.5,517.4M86.3,514.5L85.4,513.5L84.7,504.0C84.2,504.5,83.8,505.0,83.4,505.3L80.6,508.2L79.6,507.2L85.3,501.5L86.1,502.3L86.8,510.5L86.8,512.0C87.3,511.5,87.8,511.0,88.3,510.5L91.5,507.3L92.5,508.3L86.3,514.5M85.1,499.2L83.7,497.8L84.9,496.7L86.2,498.0L85.1,499.2M93.3,507.5L86.4,500.5L87.5,499.3L94.5,506.3L93.3,507.5M99.8,499.2C99.8,500.0,99.6,500.7,99.4,501.3C99.1,501.8,98.8,502.4,98.3,502.8C97.5,503.6,96.7,504.0,96.0,504.0C95.2,504.1,94.5,503.8,93.9,503.2C93.6,502.9,93.3,502.5,93.2,502.0C93.1,501.6,93.1,501.2,93.1,500.7C93.2,500.3,93.4,499.9,93.6,499.5C93.8,499.2,94.1,498.8,94.5,498.3C95.3,497.2,95.9,496.4,96.2,495.8C96.0,495.6,95.9,495.5,95.9,495.5C95.4,495.0,94.9,494.7,94.5,494.8C94.0,494.8,93.4,495.1,92.8,495.7C92.2,496.3,91.9,496.8,91.8,497.2C91.8,497.7,91.9,498.2,92.3,498.9L91.0,499.9C90.6,499.3,90.4,498.7,90.3,498.1C90.2,497.6,90.3,497.0,90.6,496.4C90.9,495.8,91.4,495.2,92.0,494.6C92.6,494.0,93.1,493.6,93.6,493.3C94.1,493.1,94.6,493.0,95.0,493.0C95.4,493.1,95.8,493.2,96.1,493.5C96.4,493.6,96.8,494.0,97.3,494.5L98.9,496.1C100.0,497.2,100.7,497.8,101.0,498.1C101.4,498.3,101.8,498.5,102.2,498.6L100.9,499.9C100.6,499.7,100.2,499.5,99.8,499.2M97.1,496.7C96.8,497.3,96.4,498.1,95.6,499.1C95.2,499.6,94.9,500.0,94.8,500.3C94.7,500.6,94.7,500.9,94.7,501.2C94.8,501.5,94.9,501.7,95.1,501.9C95.5,502.2,95.8,502.4,96.3,502.3C96.7,502.3,97.2,502.1,97.6,501.6C98.1,501.2,98.4,500.7,98.6,500.1C98.7,499.5,98.7,499.0,98.5,498.5C98.4,498.1,98.1,497.6,97.5,497.1L97.1,496.7M103.6,497.2L102.2,495.9L103.6,494.5L104.9,495.9L103.6,497.2M107.1,494.8L108.4,493.8C108.8,494.2,109.2,494.3,109.6,494.2C110.1,494.1,110.6,493.9,111.1,493.4C111.7,492.8,112.0,492.3,112.1,491.8C112.2,491.2,112.1,490.7,111.8,490.2C111.6,489.9,111.1,489.4,110.3,488.6C110.4,489.8,110.1,490.7,109.3,491.5C108.4,492.4,107.3,492.8,106.1,492.7C104.8,492.5,103.7,491.9,102.8,491.0C102.1,490.3,101.6,489.6,101.3,488.8C101.0,488.0,100.9,487.2,101.0,486.4C101.2,485.7,101.6,485.0,102.2,484.3C103.0,483.5,104.0,483.2,105.2,483.3L104.4,482.5L105.5,481.4L111.5,487.4C112.6,488.5,113.2,489.4,113.5,490.0C113.7,490.7,113.7,491.4,113.5,492.2C113.3,492.9,112.8,493.6,112.1,494.3C111.3,495.2,110.4,495.6,109.5,495.8C108.7,495.9,107.9,495.6,107.1,494.8M103.9,489.7C104.8,490.6,105.7,491.1,106.5,491.1C107.2,491.2,107.9,490.9,108.4,490.4C109.0,489.8,109.2,489.2,109.2,488.4C109.1,487.6,108.7,486.8,107.8,485.9C106.9,485.0,106.1,484.6,105.3,484.5C104.5,484.5,103.8,484.7,103.3,485.2C102.7,485.8,102.5,486.4,102.6,487.2C102.6,488.0,103.1,488.8,103.9,489.7M106.3,478.0L104.9,476.6L106.1,475.5L107.5,476.8L106.3,478.0M114.5,486.2L107.6,479.3L108.8,478.1L115.7,485.1L114.5,486.2M118.9,479.8L120.1,480.7C119.8,481.1,119.6,481.4,119.3,481.7C118.9,482.1,118.5,482.4,118.1,482.5C117.7,482.6,117.4,482.5,117.1,482.4C116.8,482.3,116.2,481.9,115.5,481.2L111.5,477.2L110.7,478.0L109.7,477.1L110.6,476.2L108.9,474.5L109.4,472.6L111.8,475.1L113.0,473.9L113.9,474.8L112.7,476.0L116.8,480.1C117.1,480.4,117.4,480.6,117.5,480.6C117.6,480.7,117.8,480.7,117.9,480.7C118.1,480.6,118.2,480.5,118.4,480.4C118.5,480.2,118.7,480.0,118.9,479.8M120.9,479.9L111.3,470.3L112.5,469.1L115.9,472.5C115.8,471.4,116.2,470.3,117.0,469.5C117.6,469.0,118.1,468.6,118.7,468.5C119.3,468.3,119.8,468.3,120.4,468.5C120.9,468.7,121.5,469.1,122.2,469.8L126.6,474.2L125.4,475.4L121.0,471.0C120.4,470.4,119.8,470.1,119.3,470.1C118.8,470.1,118.3,470.3,117.8,470.8C117.5,471.1,117.2,471.5,117.1,472.0C117.0,472.5,117.0,473.0,117.2,473.4C117.4,473.9,117.7,474.4,118.3,474.9L122.1,478.7L120.9,479.9M132.5,468.3L131.5,467.2C131.8,468.6,131.4,469.7,130.5,470.6C130.1,471.0,129.6,471.3,129.1,471.5C128.6,471.7,128.1,471.8,127.7,471.7C127.3,471.7,126.9,471.5,126.5,471.2C126.2,471.0,125.8,470.7,125.3,470.2L121.0,465.9L122.2,464.7L126.0,468.6C126.6,469.2,127.1,469.6,127.3,469.7C127.7,470.0,128.1,470.1,128.5,470.0C129.0,469.9,129.3,469.7,129.7,469.4C130.1,469.0,130.3,468.6,130.4,468.1C130.6,467.6,130.5,467.1,130.3,466.7C130.2,466.3,129.8,465.7,129.2,465.1L125.4,461.4L126.6,460.2L133.6,467.2L132.5,468.3M136.1,464.7L135.0,465.8L125.4,456.1L126.6,455.0L130.0,458.4C129.9,457.3,130.2,456.3,131.0,455.5C131.4,455.1,131.9,454.8,132.5,454.6C133.0,454.4,133.6,454.3,134.1,454.4C134.7,454.4,135.3,454.6,135.9,454.9C136.4,455.2,137.0,455.6,137.5,456.1C138.7,457.3,139.3,458.5,139.4,459.8C139.4,461.0,139.0,462.1,138.2,462.9C137.4,463.7,136.4,464.0,135.3,463.8L136.1,464.7M132.6,461.1C133.4,462.0,134.1,462.5,134.7,462.6C135.7,462.8,136.5,462.6,137.2,462.0C137.7,461.5,137.9,460.8,137.8,460.0C137.7,459.2,137.3,458.3,136.4,457.4C135.5,456.5,134.6,456.0,133.8,456.0C133.0,455.9,132.4,456.1,131.9,456.6C131.3,457.1,131.1,457.8,131.2,458.6C131.3,459.5,131.7,460.3,132.6,461.1M143.2,457.6L141.8,456.3L143.2,454.9L144.5,456.3L143.2,457.6M138.1,446.2L136.7,444.8L137.9,443.6L139.3,445.0L138.1,446.2M146.4,454.4L139.4,447.5L140.6,446.3L147.5,453.2L146.4,454.4M145.3,448.6C144.0,447.3,143.4,446.0,143.5,444.6C143.6,443.5,144.0,442.5,144.9,441.7C145.8,440.7,146.9,440.2,148.2,440.2C149.4,440.3,150.6,440.8,151.7,441.9C152.6,442.8,153.2,443.7,153.4,444.5C153.6,445.2,153.7,446.0,153.4,446.8C153.2,447.6,152.8,448.3,152.2,448.9C151.2,449.9,150.1,450.4,148.9,450.4C147.6,450.3,146.4,449.7,145.3,448.6M146.5,447.3C147.4,448.2,148.2,448.7,149.1,448.8C149.9,448.8,150.6,448.6,151.2,448.0C151.8,447.4,152.0,446.7,152.0,445.8C151.9,445.0,151.4,444.1,150.5,443.2C149.7,442.3,148.8,441.9,148.0,441.8C147.2,441.8,146.4,442.1,145.9,442.6C145.3,443.2,145.0,443.9,145.1,444.8C145.1,445.6,145.6,446.5,146.5,447.3" stroke-opacity="0.50" fill="#868686" fill-opacity="0.50"/><path d="M52.8,751.3L51.6,750.4C51.9,750.2,52.2,750.0,52.4,749.8C52.6,749.5,52.8,749.3,52.9,749.0C52.9,748.8,52.9,748.5,52.9,748.3C52.8,748.1,52.7,747.7,52.4,747.0C52.3,746.9,52.3,746.8,52.2,746.6L42.6,742.3L43.8,741.0L49.3,743.6C50.0,743.9,50.7,744.3,51.4,744.7C51.0,744.0,50.7,743.4,50.3,742.7L47.8,737.1L48.9,735.9L53.4,745.7C53.9,746.7,54.2,747.5,54.3,747.9C54.5,748.5,54.5,749.0,54.4,749.5C54.3,749.9,54.1,750.3,53.7,750.7C53.5,750.9,53.2,751.2,52.8,751.3M53.2,739.8L52.0,738.6L55.6,735.0L56.8,736.2L53.2,739.8M63.4,740.7L62.2,739.8C62.5,739.6,62.8,739.4,63.0,739.2C63.2,738.9,63.4,738.7,63.5,738.4C63.5,738.2,63.5,737.9,63.5,737.7C63.4,737.5,63.3,737.1,63.0,736.4C62.9,736.3,62.9,736.2,62.8,736.0L53.2,731.7L54.4,730.4L59.9,733.0C60.6,733.3,61.3,733.7,62.0,734.1C61.6,733.4,61.3,732.7,60.9,732.0L58.4,726.5L59.5,725.3L64.0,735.0C64.5,736.1,64.8,736.8,64.9,737.3C65.1,737.9,65.1,738.4,65.0,738.9C64.9,739.3,64.7,739.7,64.3,740.1C64.1,740.3,63.8,740.5,63.4,740.7M63.2,728.6C61.9,727.3,61.3,726.0,61.4,724.6C61.5,723.5,62.0,722.5,62.9,721.7C63.8,720.7,64.9,720.3,66.2,720.3C67.4,720.3,68.6,720.9,69.7,722.0C70.6,722.9,71.1,723.7,71.4,724.5C71.6,725.3,71.6,726.1,71.4,726.9C71.2,727.7,70.8,728.4,70.1,729.0C69.2,729.9,68.1,730.4,66.8,730.4C65.6,730.4,64.4,729.8,63.2,728.6M64.4,727.4C65.3,728.3,66.2,728.7,67.0,728.8C67.9,728.8,68.6,728.6,69.2,728.0C69.8,727.4,70.0,726.7,70.0,725.9C69.9,725.0,69.4,724.1,68.5,723.2C67.6,722.4,66.8,721.9,66.0,721.9C65.1,721.8,64.4,722.1,63.8,722.7C63.2,723.2,63.0,724.0,63.0,724.8C63.1,725.6,63.6,726.5,64.4,727.4M74.9,723.9L68.0,716.9L69.0,715.8L70.1,716.9C69.9,716.1,69.8,715.6,69.8,715.2C69.9,714.8,70.1,714.4,70.4,714.2C70.8,713.8,71.3,713.5,72.0,713.3L72.7,714.8C72.2,715.0,71.8,715.2,71.5,715.4C71.3,715.7,71.1,716.0,71.1,716.4C71.0,716.7,71.1,717.1,71.3,717.5C71.6,718.0,72.0,718.5,72.5,719.0L76.1,722.7L74.9,723.9M75.3,716.6C74.0,715.3,73.4,714.0,73.5,712.6C73.5,711.5,74.0,710.5,74.9,709.7C75.8,708.7,76.9,708.2,78.2,708.3C79.4,708.3,80.6,708.8,81.7,709.9C82.6,710.8,83.2,711.7,83.4,712.5C83.6,713.2,83.7,714.0,83.4,714.8C83.2,715.6,82.8,716.3,82.2,716.9C81.2,717.9,80.1,718.4,78.9,718.4C77.6,718.3,76.4,717.7,75.3,716.6M76.5,715.4C77.4,716.2,78.2,716.7,79.1,716.8C79.9,716.8,80.6,716.6,81.2,716.0C81.8,715.4,82.0,714.7,82.0,713.8C81.9,713.0,81.4,712.1,80.5,711.2C79.7,710.4,78.8,709.9,78.0,709.8C77.2,709.8,76.4,710.1,75.9,710.6C75.3,711.2,75.0,711.9,75.1,712.8C75.1,713.6,75.6,714.5,76.5,715.4M86.3,712.5L85.4,711.5L84.7,702.0C84.2,702.5,83.8,703.0,83.4,703.3L80.6,706.2L79.6,705.2L85.3,699.5L86.1,700.3L86.8,708.5L86.8,710.0C87.3,709.5,87.8,709.0,88.3,708.5L91.5,705.3L92.5,706.3L86.3,712.5M85.1,697.2L83.7,695.8L84.9,694.7L86.2,696.0L85.1,697.2M93.3,705.5L86.4,698.5L87.5,697.3L94.5,704.3L93.3,705.5M99.8,697.2C99.8,698.0,99.6,698.7,99.4,699.3C99.1,699.8,98.8,700.4,98.3,700.8C97.5,701.6,96.7,702.0,96.0,702.0C95.2,702.1,94.5,701.8,93.9,701.2C93.6,700.9,93.3,700.5,93.2,700.0C93.1,699.6,93.1,699.2,93.1,698.7C93.2,698.3,93.4,697.9,93.6,697.5C93.8,697.2,94.1,696.8,94.5,696.3C95.3,695.2,95.9,694.4,96.2,693.8C96.0,693.6,95.9,693.5,95.9,693.5C95.4,693.0,94.9,692.7,94.5,692.8C94.0,692.8,93.4,693.1,92.8,693.7C92.2,694.3,91.9,694.8,91.8,695.2C91.8,695.7,91.9,696.2,92.3,696.9L91.0,697.9C90.6,697.3,90.4,696.7,90.3,696.1C90.2,695.6,90.3,695.0,90.6,694.4C90.9,693.8,91.4,693.2,92.0,692.6C92.6,692.0,93.1,691.6,93.6,691.3C94.1,691.1,94.6,691.0,95.0,691.0C95.4,691.1,95.8,691.2,96.1,691.5C96.4,691.6,96.8,692.0,97.3,692.5L98.9,694.1C100.0,695.2,100.7,695.8,101.0,696.1C101.4,696.3,101.8,696.5,102.2,696.6L100.9,697.9C100.6,697.7,100.2,697.5,99.8,697.2M97.1,694.7C96.8,695.3,96.4,696.1,95.6,697.1C95.2,697.6,94.9,698.0,94.8,698.3C94.7,698.6,94.7,698.9,94.7,699.2C94.8,699.5,94.9,699.7,95.1,699.9C95.5,700.2,95.8,700.4,96.3,700.3C96.7,700.3,97.2,700.1,97.6,699.6C98.1,699.2,98.4,698.7,98.6,698.1C98.7,697.5,98.7,697.0,98.5,696.5C98.4,696.1,98.1,695.6,97.5,695.1L97.1,694.7M103.6,695.2L102.2,693.9L103.6,692.5L104.9,693.9L103.6,695.2M107.1,692.8L108.4,691.8C108.8,692.2,109.2,692.3,109.6,692.2C110.1,692.1,110.6,691.9,111.1,691.4C111.7,690.8,112.0,690.3,112.1,689.8C112.2,689.2,112.1,688.7,111.8,688.2C111.6,687.9,111.1,687.4,110.3,686.6C110.4,687.8,110.1,688.7,109.3,689.5C108.4,690.4,107.3,690.8,106.1,690.7C104.8,690.5,103.7,689.9,102.8,689.0C102.1,688.3,101.6,687.6,101.3,686.8C101.0,686.0,100.9,685.2,101.0,684.4C101.2,683.7,101.6,683.0,102.2,682.3C103.0,681.5,104.0,681.2,105.2,681.3L104.4,680.5L105.5,679.4L111.5,685.4C112.6,686.5,113.2,687.4,113.5,688.0C113.7,688.7,113.7,689.4,113.5,690.2C113.3,690.9,112.8,691.6,112.1,692.3C111.3,693.2,110.4,693.6,109.5,693.8C108.7,693.9,107.9,693.6,107.1,692.8M103.9,687.7C104.8,688.6,105.7,689.1,106.5,689.1C107.2,689.2,107.9,688.9,108.4,688.4C109.0,687.8,109.2,687.2,109.2,686.4C109.1,685.6,108.7,684.8,107.8,683.9C106.9,683.0,106.1,682.6,105.3,682.5C104.5,682.5,103.8,682.7,103.3,683.2C102.7,683.8,102.5,684.4,102.6,685.2C102.6,686.0,103.1,686.8,103.9,687.7M106.3,676.0L104.9,674.6L106.1,673.5L107.5,674.8L106.3,676.0M114.5,684.2L107.6,677.3L108.8,676.1L115.7,683.1L114.5,684.2M118.9,677.8L120.1,678.7C119.8,679.1,119.6,679.4,119.3,679.7C118.9,680.1,118.5,680.4,118.1,680.5C117.7,680.6,117.4,680.5,117.1,680.4C116.8,680.3,116.2,679.9,115.5,679.2L111.5,675.2L110.7,676.0L109.7,675.1L110.6,674.2L108.9,672.5L109.4,670.6L111.8,673.1L113.0,671.9L113.9,672.8L112.7,674.0L116.8,678.1C117.1,678.4,117.4,678.6,117.5,678.6C117.6,678.7,117.8,678.7,117.9,678.7C118.1,678.6,118.2,678.5,118.4,678.4C118.5,678.2,118.7,678.0,118.9,677.8M120.9,677.9L111.3,668.3L112.5,667.1L115.9,670.5C115.8,669.4,116.2,668.3,117.0,667.5C117.6,667.0,118.1,666.6,118.7,666.5C119.3,666.3,119.8,666.3,120.4,666.5C120.9,666.7,121.5,667.1,122.2,667.8L126.6,672.2L125.4,673.4L121.0,669.0C120.4,668.4,119.8,668.1,119.3,668.1C118.8,668.1,118.3,668.3,117.8,668.8C117.5,669.1,117.2,669.5,117.1,670.0C117.0,670.5,117.0,671.0,117.2,671.4C117.4,671.9,117.7,672.4,118.3,672.9L122.1,676.7L120.9,677.9M132.5,666.3L131.5,665.2C131.8,666.6,131.4,667.7,130.5,668.6C130.1,669.0,129.6,669.3,129.1,669.5C128.6,669.7,128.1,669.8,127.7,669.7C127.3,669.7,126.9,669.5,126.5,669.2C126.2,669.0,125.8,668.7,125.3,668.2L121.0,663.9L122.2,662.7L126.0,666.6C126.6,667.2,127.1,667.6,127.3,667.7C127.7,668.0,128.1,668.1,128.5,668.0C129.0,667.9,129.3,667.7,129.7,667.4C130.1,667.0,130.3,666.6,130.4,666.1C130.6,665.6,130.5,665.1,130.3,664.7C130.2,664.3,129.8,663.7,129.2,663.1L125.4,659.4L126.6,658.2L133.6,665.2L132.5,666.3M136.1,662.7L135.0,663.8L125.4,654.1L126.6,653.0L130.0,656.4C129.9,655.3,130.2,654.3,131.0,653.5C131.4,653.1,131.9,652.8,132.5,652.6C133.0,652.4,133.6,652.3,134.1,652.4C134.7,652.4,135.3,652.6,135.9,652.9C136.4,653.2,137.0,653.6,137.5,654.1C138.7,655.3,139.3,656.5,139.4,657.8C139.4,659.0,139.0,660.1,138.2,660.9C137.4,661.7,136.4,662.0,135.3,661.8L136.1,662.7M132.6,659.1C133.4,660.0,134.1,660.5,134.7,660.6C135.7,660.8,136.5,660.6,137.2,660.0C137.7,659.5,137.9,658.8,137.8,658.0C137.7,657.2,137.3,656.3,136.4,655.4C135.5,654.5,134.6,654.0,133.8,654.0C133.0,653.9,132.4,654.1,131.9,654.6C131.3,655.1,131.1,655.8,131.2,656.6C131.3,657.5,131.7,658.3,132.6,659.1M143.2,655.6L141.8,654.3L143.2,652.9L144.5,654.3L143.2,655.6M138.1,644.2L136.7,642.8L137.9,641.6L139.3,643.0L138.1,644.2M146.4,652.4L139.4,645.5L140.6,644.3L147.5,651.2L146.4,652.4M145.3,646.6C144.0,645.3,143.4,644.0,143.5,642.6C143.6,641.5,144.0,640.5,144.9,639.7C145.8,638.7,146.9,638.2,148.2,638.2C149.4,638.3,150.6,638.8,151.7,639.9C152.6,640.8,153.2,641.7,153.4,642.5C153.6,643.2,153.7,644.0,153.4,644.8C153.2,645.6,152.8,646.3,152.2,646.9C151.2,647.9,150.1,648.4,148.9,648.4C147.6,648.3,146.4,647.7,145.3,646.6M146.5,645.3C147.4,646.2,148.2,646.7,149.1,646.8C149.9,646.8,150.6,646.6,151.2,646.0C151.8,645.4,152.0,644.7,152.0,643.8C151.9,643.0,151.4,642.1,150.5,641.2C149.7,640.3,148.8,639.9,148.0,639.8C147.2,639.8,146.4,640.1,145.9,640.6C145.3,641.2,145.0,641.9,145.1,642.8C145.1,643.6,145.6,644.5,146.5,645.3" stroke-opacity="0.50" fill="#868686" fill-opacity="0.50"/><path d="M250.8,157.3L249.6,156.4C249.9,156.2,250.2,156.0,250.4,155.8C250.6,155.5,250.8,155.3,250.9,155.0C250.9,154.8,250.9,154.5,250.9,154.3C250.8,154.1,250.7,153.7,250.4,153.0C250.3,152.9,250.3,152.8,250.2,152.6L240.6,148.3L241.8,147.0L247.3,149.6C248.0,149.9,248.7,150.3,249.4,150.7C249.0,150.0,248.7,149.4,248.3,148.7L245.8,143.1L246.9,141.9L251.4,151.7C251.9,152.7,252.2,153.5,252.3,153.9C252.5,154.5,252.5,155.0,252.4,155.5C252.3,155.9,252.1,156.3,251.7,156.7C251.5,156.9,251.2,157.2,250.8,157.3M251.2,145.8L250.0,144.6L253.6,141.0L254.8,142.2L251.2,145.8M261.4,146.7L260.2,145.8C260.5,145.6,260.8,145.4,261.0,145.2C261.2,144.9,261.4,144.7,261.5,144.4C261.5,144.2,261.5,143.9,261.5,143.7C261.4,143.5,261.3,143.1,261.0,142.4C260.9,142.3,260.9,142.2,260.8,142.0L251.2,137.7L252.4,136.4L257.9,139.0C258.6,139.3,259.3,139.7,260.0,140.1C259.6,139.4,259.3,138.7,258.9,138.0L256.4,132.5L257.5,131.3L262.0,141.0C262.5,142.1,262.8,142.8,262.9,143.3C263.1,143.9,263.1,144.4,263.0,144.9C262.9,145.3,262.7,145.7,262.3,146.1C262.1,146.3,261.8,146.5,261.4,146.7M261.2,134.6C259.9,133.3,259.3,132.0,259.4,130.6C259.5,129.5,260.0,128.5,260.9,127.7C261.8,126.7,262.9,126.3,264.2,126.3C265.4,126.3,266.6,126.9,267.7,128.0C268.6,128.9,269.1,129.7,269.4,130.5C269.6,131.3,269.6,132.1,269.4,132.9C269.2,133.7,268.8,134.4,268.1,135.0C267.2,135.9,266.1,136.4,264.8,136.4C263.6,136.4,262.4,135.8,261.2,134.6M262.4,133.4C263.3,134.3,264.2,134.7,265.0,134.8C265.9,134.8,266.6,134.6,267.2,134.0C267.8,133.4,268.0,132.7,268.0,131.9C267.9,131.0,267.4,130.1,266.5,129.2C265.6,128.4,264.8,127.9,264.0,127.9C263.1,127.8,262.4,128.1,261.8,128.7C261.2,129.2,261.0,130.0,261.0,130.8C261.1,131.6,261.6,132.5,262.4,133.4M272.9,129.9L266.0,122.9L267.0,121.8L268.1,122.9C267.9,122.1,267.8,121.6,267.8,121.2C267.9,120.8,268.1,120.4,268.4,120.2C268.8,119.8,269.3,119.5,270.0,119.3L270.7,120.8C270.2,121.0,269.8,121.2,269.5,121.4C269.3,121.7,269.1,122.0,269.1,122.4C269.0,122.7,269.1,123.1,269.3,123.5C269.6,124.0,270.0,124.5,270.5,125.0L274.1,128.7L272.9,129.9M273.3,122.6C272.0,121.3,271.4,120.0,271.5,118.6C271.5,117.5,272.0,116.5,272.9,115.7C273.8,114.7,274.9,114.2,276.2,114.3C277.4,114.3,278.6,114.8,279.7,115.9C280.6,116.8,281.2,117.7,281.4,118.5C281.6,119.2,281.7,120.0,281.4,120.8C281.2,121.6,280.8,122.3,280.2,122.9C279.2,123.9,278.1,124.4,276.9,124.4C275.6,124.3,274.4,123.7,273.3,122.6M274.5,121.4C275.4,122.2,276.2,122.7,277.1,122.8C277.9,122.8,278.6,122.6,279.2,122.0C279.8,121.4,280.0,120.7,280.0,119.8C279.9,119.0,279.4,118.1,278.5,117.2C277.7,116.4,276.8,115.9,276.0,115.8C275.2,115.8,274.4,116.1,273.9,116.6C273.3,117.2,273.0,117.9,273.1,118.8C273.1,119.6,273.6,120.5,274.5,121.4M284.3,118.5L283.4,117.5L282.7,108.0C282.2,108.5,281.8,109.0,281.4,109.3L278.6,112.2L277.6,111.2L283.3,105.5L284.1,106.3L284.8,114.5L284.8,116.0C285.3,115.5,285.8,115.0,286.3,114.5L289.5,111.3L290.5,112.3L284.3,118.5M283.1,103.2L281.7,101.8L282.9,100.7L284.2,102.0L283.1,103.2M291.3,111.5L284.4,104.5L285.5,103.3L292.5,110.3L291.3,111.5M297.8,103.2C297.8,104.0,297.6,104.7,297.4,105.3C297.1,105.8,296.8,106.4,296.3,106.8C295.5,107.6,294.7,108.0,294.0,108.0C293.2,108.1,292.5,107.8,291.9,107.2C291.6,106.9,291.3,106.5,291.2,106.0C291.1,105.6,291.1,105.2,291.1,104.7C291.2,104.3,291.4,103.9,291.6,103.5C291.8,103.2,292.1,102.8,292.5,102.3C293.3,101.2,293.9,100.4,294.2,99.8C294.0,99.6,293.9,99.5,293.9,99.5C293.4,99.0,292.9,98.7,292.5,98.8C292.0,98.8,291.4,99.1,290.8,99.7C290.2,100.3,289.9,100.8,289.8,101.2C289.8,101.7,289.9,102.2,290.3,102.9L289.0,103.9C288.6,103.3,288.4,102.7,288.3,102.1C288.2,101.6,288.3,101.0,288.6,100.4C288.9,99.8,289.4,99.2,290.0,98.6C290.6,98.0,291.1,97.6,291.6,97.3C292.1,97.1,292.6,97.0,293.0,97.0C293.4,97.1,293.8,97.2,294.1,97.5C294.4,97.6,294.8,98.0,295.3,98.5L296.9,100.1C298.0,101.2,298.7,101.8,299.0,102.1C299.4,102.3,299.8,102.5,300.2,102.6L298.9,103.9C298.6,103.7,298.2,103.5,297.8,103.2M295.1,100.7C294.8,101.3,294.4,102.1,293.6,103.1C293.2,103.6,292.9,104.0,292.8,104.3C292.7,104.6,292.7,104.9,292.7,105.2C292.8,105.5,292.9,105.7,293.1,105.9C293.5,106.2,293.8,106.4,294.3,106.3C294.7,106.3,295.2,106.1,295.6,105.6C296.1,105.2,296.4,104.7,296.6,104.1C296.7,103.5,296.7,103.0,296.5,102.5C296.4,102.1,296.1,101.6,295.5,101.1L295.1,100.7M301.6,101.2L300.2,99.9L301.6,98.5L302.9,99.9L301.6,101.2M305.1,98.8L306.4,97.8C306.8,98.2,307.2,98.3,307.6,98.2C308.1,98.1,308.6,97.9,309.1,97.4C309.7,96.8,310.0,96.3,310.1,95.8C310.2,95.2,310.1,94.7,309.8,94.2C309.6,93.9,309.1,93.4,308.3,92.6C308.4,93.8,308.1,94.7,307.3,95.5C306.4,96.4,305.3,96.8,304.1,96.7C302.8,96.5,301.7,95.9,300.8,95.0C300.1,94.3,299.6,93.6,299.3,92.8C299.0,92.0,298.9,91.2,299.0,90.4C299.2,89.7,299.6,89.0,300.2,88.3C301.0,87.5,302.0,87.2,303.2,87.3L302.4,86.5L303.5,85.4L309.5,91.4C310.6,92.5,311.2,93.4,311.5,94.0C311.7,94.7,311.7,95.4,311.5,96.2C311.3,96.9,310.8,97.6,310.1,98.3C309.3,99.2,308.4,99.6,307.5,99.8C306.7,99.9,305.9,99.6,305.1,98.8M301.9,93.7C302.8,94.6,303.7,95.1,304.5,95.1C305.2,95.2,305.9,94.9,306.4,94.4C307.0,93.8,307.2,93.2,307.2,92.4C307.1,91.6,306.7,90.8,305.8,89.9C304.9,89.0,304.1,88.6,303.3,88.5C302.5,88.5,301.8,88.7,301.3,89.2C300.7,89.8,300.5,90.4,300.6,91.2C300.6,92.0,301.1,92.8,301.9,93.7M304.3,82.0L302.9,80.6L304.1,79.5L305.5,80.8L304.3,82.0M312.5,90.2L305.6,83.3L306.8,82.1L313.7,89.1L312.5,90.2M316.9,83.8L318.1,84.7C317.8,85.1,317.6,85.4,317.3,85.7C316.9,86.1,316.5,86.4,316.1,86.5C315.7,86.6,315.4,86.5,315.1,86.4C314.8,86.3,314.2,85.9,313.5,85.2L309.5,81.2L308.7,82.0L307.7,81.1L308.6,80.2L306.9,78.5L307.4,76.6L309.8,79.1L311.0,77.9L311.9,78.8L310.7,80.0L314.8,84.1C315.1,84.4,315.4,84.6,315.5,84.6C315.6,84.7,315.8,84.7,315.9,84.7C316.1,84.6,316.2,84.5,316.4,84.4C316.5,84.2,316.7,84.0,316.9,83.8M318.9,83.9L309.3,74.3L310.5,73.1L313.9,76.5C313.8,75.4,314.2,74.3,315.0,73.5C315.6,73.0,316.1,72.6,316.7,72.5C317.3,72.3,317.8,72.3,318.4,72.5C318.9,72.7,319.5,73.1,320.2,73.8L324.6,78.2L323.4,79.4L319.0,75.0C318.4,74.4,317.8,74.1,317.3,74.1C316.8,74.1,316.3,74.3,315.8,74.8C315.5,75.1,315.2,75.5,315.1,76.0C315.0,76.5,315.0,77.0,315.2,77.4C315.4,77.9,315.7,78.4,316.3,78.9L320.1,82.7L318.9,83.9M330.5,72.3L329.5,71.2C329.8,72.6,329.4,73.7,328.5,74.6C328.1,75.0,327.6,75.3,327.1,75.5C326.6,75.7,326.1,75.8,325.7,75.7C325.3,75.7,324.9,75.5,324.5,75.2C324.2,75.0,323.8,74.7,323.3,74.2L319.0,69.9L320.2,68.7L324.0,72.6C324.6,73.2,325.1,73.6,325.3,73.7C325.7,74.0,326.1,74.1,326.5,74.0C327.0,73.9,327.3,73.7,327.7,73.4C328.1,73.0,328.3,72.6,328.4,72.1C328.6,71.6,328.5,71.1,328.3,70.7C328.2,70.3,327.8,69.7,327.2,69.1L323.4,65.4L324.6,64.2L331.6,71.2L330.5,72.3M334.1,68.7L333.0,69.8L323.4,60.1L324.6,59.0L328.0,62.4C327.9,61.3,328.2,60.3,329.0,59.5C329.4,59.1,329.9,58.8,330.5,58.6C331.0,58.4,331.6,58.3,332.1,58.4C332.7,58.4,333.3,58.6,333.9,58.9C334.4,59.2,335.0,59.6,335.5,60.1C336.7,61.3,337.3,62.5,337.4,63.8C337.4,65.0,337.0,66.1,336.2,66.9C335.4,67.7,334.4,68.0,333.3,67.8L334.1,68.7M330.6,65.1C331.4,66.0,332.1,66.5,332.7,66.6C333.7,66.8,334.5,66.6,335.2,66.0C335.7,65.5,335.9,64.8,335.8,64.0C335.7,63.2,335.3,62.3,334.4,61.4C333.5,60.5,332.6,60.0,331.8,60.0C331.0,59.9,330.4,60.1,329.9,60.6C329.3,61.1,329.1,61.8,329.2,62.6C329.3,63.5,329.7,64.3,330.6,65.1M341.2,61.6L339.8,60.3L341.2,58.9L342.5,60.3L341.2,61.6M336.1,50.2L334.7,48.8L335.9,47.6L337.3,49.0L336.1,50.2M344.4,58.4L337.4,51.5L338.6,50.3L345.5,57.2L344.4,58.4M343.3,52.6C342.0,51.3,341.4,50.0,341.5,48.6C341.6,47.5,342.0,46.5,342.9,45.7C343.8,44.7,344.9,44.2,346.2,44.2C347.4,44.3,348.6,44.8,349.7,45.9C350.6,46.8,351.2,47.7,351.4,48.5C351.6,49.2,351.7,50.0,351.4,50.8C351.2,51.6,350.8,52.3,350.2,52.9C349.2,53.9,348.1,54.4,346.9,54.4C345.6,54.3,344.4,53.7,343.3,52.6M344.5,51.3C345.4,52.2,346.2,52.7,347.1,52.8C347.9,52.8,348.6,52.6,349.2,52.0C349.8,51.4,350.0,50.7,350.0,49.8C349.9,49.0,349.4,48.1,348.5,47.2C347.7,46.3,346.8,45.9,346.0,45.8C345.2,45.8,344.4,46.1,343.9,46.6C343.3,47.2,343.0,47.9,343.1,48.8C343.1,49.6,343.6,50.5,344.5,51.3" stroke-opacity="0.50" fill="#868686" fill-opacity="0.50"/><path d="M250.8,355.3L249.6,354.4C249.9,354.2,250.2,354.0,250.4,353.8C250.6,353.5,250.8,353.3,250.9,353.0C250.9,352.8,250.9,352.5,250.9,352.3C250.8,352.1,250.7,351.7,250.4,351.0C250.3,350.9,250.3,350.8,250.2,350.6L240.6,346.3L241.8,345.0L247.3,347.6C248.0,347.9,248.7,348.3,249.4,348.7C249.0,348.0,248.7,347.4,248.3,346.7L245.8,341.1L246.9,339.9L251.4,349.7C251.9,350.7,252.2,351.5,252.3,351.9C252.5,352.5,252.5,353.0,252.4,353.5C252.3,353.9,252.1,354.3,251.7,354.7C251.5,354.9,251.2,355.2,250.8,355.3M251.2,343.8L250.0,342.6L253.6,339.0L254.8,340.2L251.2,343.8M261.4,344.7L260.2,343.8C260.5,343.6,260.8,343.4,261.0,343.2C261.2,342.9,261.4,342.7,261.5,342.4C261.5,342.2,261.5,341.9,261.5,341.7C261.4,341.5,261.3,341.1,261.0,340.4C260.9,340.3,260.9,340.2,260.8,340.0L251.2,335.7L252.4,334.4L257.9,337.0C258.6,337.3,259.3,337.7,260.0,338.1C259.6,337.4,259.3,336.7,258.9,336.0L256.4,330.5L257.5,329.3L262.0,339.0C262.5,340.1,262.8,340.8,262.9,341.3C263.1,341.9,263.1,342.4,263.0,342.9C262.9,343.3,262.7,343.7,262.3,344.1C262.1,344.3,261.8,344.5,261.4,344.7M261.2,332.6C259.9,331.3,259.3,330.0,259.4,328.6C259.5,327.5,260.0,326.5,260.9,325.7C261.8,324.7,262.9,324.3,264.2,324.3C265.4,324.3,266.6,324.9,267.7,326.0C268.6,326.9,269.1,327.7,269.4,328.5C269.6,329.3,269.6,330.1,269.4,330.9C269.2,331.7,268.8,332.4,268.1,333.0C267.2,333.9,266.1,334.4,264.8,334.4C263.6,334.4,262.4,333.8,261.2,332.6M262.4,331.4C263.3,332.3,264.2,332.7,265.0,332.8C265.9,332.8,266.6,332.6,267.2,332.0C267.8,331.4,268.0,330.7,268.0,329.9C267.9,329.0,267.4,328.1,266.5,327.2C265.6,326.4,264.8,325.9,264.0,325.9C263.1,325.8,262.4,326.1,261.8,326.7C261.2,327.2,261.0,328.0,261.0,328.8C261.1,329.6,261.6,330.5,262.4,331.4M272.9,327.9L266.0,320.9L267.0,319.8L268.1,320.9C267.9,320.1,267.8,319.6,267.8,319.2C267.9,318.8,268.1,318.4,268.4,318.2C268.8,317.8,269.3,317.5,270.0,317.3L270.7,318.8C270.2,319.0,269.8,319.2,269.5,319.4C269.3,319.7,269.1,320.0,269.1,320.4C269.0,320.7,269.1,321.1,269.3,321.5C269.6,322.0,270.0,322.5,270.5,323.0L274.1,326.7L272.9,327.9M273.3,320.6C272.0,319.3,271.4,318.0,271.5,316.6C271.5,315.5,272.0,314.5,272.9,313.7C273.8,312.7,274.9,312.2,276.2,312.3C277.4,312.3,278.6,312.8,279.7,313.9C280.6,314.8,281.2,315.7,281.4,316.5C281.6,317.2,281.7,318.0,281.4,318.8C281.2,319.6,280.8,320.3,280.2,320.9C279.2,321.9,278.1,322.4,276.9,322.4C275.6,322.3,274.4,321.7,273.3,320.6M274.5,319.4C275.4,320.2,276.2,320.7,277.1,320.8C277.9,320.8,278.6,320.6,279.2,320.0C279.8,319.4,280.0,318.7,280.0,317.8C279.9,317.0,279.4,316.1,278.5,315.2C277.7,314.4,276.8,313.9,276.0,313.8C275.2,313.8,274.4,314.1,273.9,314.6C273.3,315.2,273.0,315.9,273.1,316.8C273.1,317.6,273.6,318.5,274.5,319.4M284.3,316.5L283.4,315.5L282.7,306.0C282.2,306.5,281.8,307.0,281.4,307.3L278.6,310.2L277.6,309.2L283.3,303.5L284.1,304.3L284.8,312.5L284.8,314.0C285.3,313.5,285.8,313.0,286.3,312.5L289.5,309.3L290.5,310.3L284.3,316.5M283.1,301.2L281.7,299.8L282.9,298.7L284.2,300.0L283.1,301.2M291.3,309.5L284.4,302.5L285.5,301.3L292.5,308.3L291.3,309.5M297.8,301.2C297.8,302.0,297.6,302.7,297.4,303.3C297.1,303.8,296.8,304.4,296.3,304.8C295.5,305.6,294.7,306.0,294.0,306.0C293.2,306.1,292.5,305.8,291.9,305.2C291.6,304.9,291.3,304.5,291.2,304.0C291.1,303.6,291.1,303.2,291.1,302.7C291.2,302.3,291.4,301.9,291.6,301.5C291.8,301.2,292.1,300.8,292.5,300.3C293.3,299.2,293.9,298.4,294.2,297.8C294.0,297.6,293.9,297.5,293.9,297.5C293.4,297.0,292.9,296.7,292.5,296.8C292.0,296.8,291.4,297.1,290.8,297.7C290.2,298.3,289.9,298.8,289.8,299.2C289.8,299.7,289.9,300.2,290.3,300.9L289.0,301.9C288.6,301.3,288.4,300.7,288.3,300.1C288.2,299.6,288.3,299.0,288.6,298.4C288.9,297.8,289.4,297.2,290.0,296.6C290.6,296.0,291.1,295.6,291.6,295.3C292.1,295.1,292.6,295.0,293.0,295.0C293.4,295.1,293.8,295.2,294.1,295.5C294.4,295.6,294.8,296.0,295.3,296.5L296.9,298.1C298.0,299.2,298.7,299.8,299.0,300.1C299.4,300.3,299.8,300.5,300.2,300.6L298.9,301.9C298.6,301.7,298.2,301.5,297.8,301.2M295.1,298.7C294.8,299.3,294.4,300.1,293.6,301.1C293.2,301.6,292.9,302.0,292.8,302.3C292.7,302.6,292.7,302.9,292.7,303.2C292.8,303.5,292.9,303.7,293.1,303.9C293.5,304.2,293.8,304.4,294.3,304.3C294.7,304.3,295.2,304.1,295.6,303.6C296.1,303.2,296.4,302.7,296.6,302.1C296.7,301.5,296.7,301.0,296.5,300.5C296.4,300.1,296.1,299.6,295.5,299.1L295.1,298.7M301.6,299.2L300.2,297.9L301.6,296.5L302.9,297.9L301.6,299.2M305.1,296.8L306.4,295.8C306.8,296.2,307.2,296.3,307.6,296.2C308.1,296.1,308.6,295.9,309.1,295.4C309.7,294.8,310.0,294.3,310.1,293.8C310.2,293.2,310.1,292.7,309.8,292.2C309.6,291.9,309.1,291.4,308.3,290.6C308.4,291.8,308.1,292.7,307.3,293.5C306.4,294.4,305.3,294.8,304.1,294.7C302.8,294.5,301.7,293.9,300.8,293.0C300.1,292.3,299.6,291.6,299.3,290.8C299.0,290.0,298.9,289.2,299.0,288.4C299.2,287.7,299.6,287.0,300.2,286.3C301.0,285.5,302.0,285.2,303.2,285.3L302.4,284.5L303.5,283.4L309.5,289.4C310.6,290.5,311.2,291.4,311.5,292.0C311.7,292.7,311.7,293.4,311.5,294.2C311.3,294.9,310.8,295.6,310.1,296.3C309.3,297.2,308.4,297.6,307.5,297.8C306.7,297.9,305.9,297.6,305.1,296.8M301.9,291.7C302.8,292.6,303.7,293.1,304.5,293.1C305.2,293.2,305.9,292.9,306.4,292.4C307.0,291.8,307.2,291.2,307.2,290.4C307.1,289.6,306.7,288.8,305.8,287.9C304.9,287.0,304.1,286.6,303.3,286.5C302.5,286.5,301.8,286.7,301.3,287.2C300.7,287.8,300.5,288.4,300.6,289.2C300.6,290.0,301.1,290.8,301.9,291.7M304.3,280.0L302.9,278.6L304.1,277.5L305.5,278.8L304.3,280.0M312.5,288.2L305.6,281.3L306.8,280.1L313.7,287.1L312.5,288.2M316.9,281.8L318.1,282.7C317.8,283.1,317.6,283.4,317.3,283.7C316.9,284.1,316.5,284.4,316.1,284.5C315.7,284.6,315.4,284.5,315.1,284.4C314.8,284.3,314.2,283.9,313.5,283.2L309.5,279.2L308.7,280.0L307.7,279.1L308.6,278.2L306.9,276.5L307.4,274.6L309.8,277.1L311.0,275.9L311.9,276.8L310.7,278.0L314.8,282.1C315.1,282.4,315.4,282.6,315.5,282.6C315.6,282.7,315.8,282.7,315.9,282.7C316.1,282.6,316.2,282.5,316.4,282.4C316.5,282.2,316.7,282.0,316.9,281.8M318.9,281.9L309.3,272.3L310.5,271.1L313.9,274.5C313.8,273.4,314.2,272.3,315.0,271.5C315.6,271.0,316.1,270.6,316.7,270.5C317.3,270.3,317.8,270.3,318.4,270.5C318.9,270.7,319.5,271.1,320.2,271.8L324.6,276.2L323.4,277.4L319.0,273.0C318.4,272.4,317.8,272.1,317.3,272.1C316.8,272.1,316.3,272.3,315.8,272.8C315.5,273.1,315.2,273.5,315.1,274.0C315.0,274.5,315.0,275.0,315.2,275.4C315.4,275.9,315.7,276.4,316.3,276.9L320.1,280.7L318.9,281.9M330.5,270.3L329.5,269.2C329.8,270.6,329.4,271.7,328.5,272.6C328.1,273.0,327.6,273.3,327.1,273.5C326.6,273.7,326.1,273.8,325.7,273.7C325.3,273.7,324.9,273.5,324.5,273.2C324.2,273.0,323.8,272.7,323.3,272.2L319.0,267.9L320.2,266.7L324.0,270.6C324.6,271.2,325.1,271.6,325.3,271.7C325.7,272.0,326.1,272.1,326.5,272.0C327.0,271.9,327.3,271.7,327.7,271.4C328.1,271.0,328.3,270.6,328.4,270.1C328.6,269.6,328.5,269.1,328.3,268.7C328.2,268.3,327.8,267.7,327.2,267.1L323.4,263.4L324.6,262.2L331.6,269.2L330.5,270.3M334.1,266.7L333.0,267.8L323.4,258.1L324.6,257.0L328.0,260.4C327.9,259.3,328.2,258.3,329.0,257.5C329.4,257.1,329.9,256.8,330.5,256.6C331.0,256.4,331.6,256.3,332.1,256.4C332.7,256.4,333.3,256.6,333.9,256.9C334.4,257.2,335.0,257.6,335.5,258.1C336.7,259.3,337.3,260.5,337.4,261.8C337.4,263.0,337.0,264.1,336.2,264.9C335.4,265.7,334.4,266.0,333.3,265.8L334.1,266.7M330.6,263.1C331.4,264.0,332.1,264.5,332.7,264.6C333.7,264.8,334.5,264.6,335.2,264.0C335.7,263.5,335.9,262.8,335.8,262.0C335.7,261.2,335.3,260.3,334.4,259.4C333.5,258.5,332.6,258.0,331.8,258.0C331.0,257.9,330.4,258.1,329.9,258.6C329.3,259.1,329.1,259.8,329.2,260.6C329.3,261.5,329.7,262.3,330.6,263.1M341.2,259.6L339.8,258.3L341.2,256.9L342.5,258.3L341.2,259.6M336.1,248.2L334.7,246.8L335.9,245.6L337.3,247.0L336.1,248.2M344.4,256.4L337.4,249.5L338.6,248.3L345.5,255.2L344.4,256.4M343.3,250.6C342.0,249.3,341.4,248.0,341.5,246.6C341.6,245.5,342.0,244.5,342.9,243.7C343.8,242.7,344.9,242.2,346.2,242.2C347.4,242.3,348.6,242.8,349.7,243.9C350.6,244.8,351.2,245.7,351.4,246.5C351.6,247.2,351.7,248.0,351.4,248.8C351.2,249.6,350.8,250.3,350.2,250.9C349.2,251.9,348.1,252.4,346.9,252.4C345.6,252.3,344.4,251.7,343.3,250.6M344.5,249.3C345.4,250.2,346.2,250.7,347.1,250.8C347.9,250.8,348.6,250.6,349.2,250.0C349.8,249.4,350.0,248.7,350.0,247.8C349.9,247.0,349.4,246.1,348.5,245.2C347.7,244.3,346.8,243.9,346.0,243.8C345.2,243.8,344.4,244.1,343.9,244.6C343.3,245.2,343.0,245.9,343.1,246.8C343.1,247.6,343.6,248.5,344.5,249.3" stroke-opacity="0.50" fill="#868686" fill-opacity="0.50"/><path d="M250.8,553.3L249.6,552.4C249.9,552.2,250.2,552.0,250.4,551.8C250.6,551.5,250.8,551.3,250.9,551.0C250.9,550.8,250.9,550.5,250.9,550.3C250.8,550.1,250.7,549.7,250.4,549.0C250.3,548.9,250.3,548.8,250.2,548.6L240.6,544.3L241.8,543.0L247.3,545.6C248.0,545.9,248.7,546.3,249.4,546.7C249.0,546.0,248.7,545.4,248.3,544.7L245.8,539.1L246.9,537.9L251.4,547.7C251.9,548.7,252.2,549.5,252.3,549.9C252.5,550.5,252.5,551.0,252.4,551.5C252.3,551.9,252.1,552.3,251.7,552.7C251.5,552.9,251.2,553.2,250.8,553.3M251.2,541.8L250.0,540.6L253.6,537.0L254.8,538.2L251.2,541.8M261.4,542.7L260.2,541.8C260.5,541.6,260.8,541.4,261.0,541.2C261.2,540.9,261.4,540.7,261.5,540.4C261.5,540.2,261.5,539.9,261.5,539.7C261.4,539.5,261.3,539.1,261.0,538.4C260.9,538.3,260.9,538.2,260.8,538.0L251.2,533.7L252.4,532.4L257.9,535.0C258.6,535.3,259.3,535.7,260.0,536.1C259.6,535.4,259.3,534.7,258.9,534.0L256.4,528.5L257.5,527.3L262.0,537.0C262.5,538.1,262.8,538.8,262.9,539.3C263.1,539.9,263.1,540.4,263.0,540.9C262.9,541.3,262.7,541.7,262.3,542.1C262.1,542.3,261.8,542.5,261.4,542.7M261.2,530.6C259.9,529.3,259.3,528.0,259.4,526.6C259.5,525.5,260.0,524.5,260.9,523.7C261.8,522.7,262.9,522.3,264.2,522.3C265.4,522.3,266.6,522.9,267.7,524.0C268.6,524.9,269.1,525.7,269.4,526.5C269.6,527.3,269.6,528.1,269.4,528.9C269.2,529.7,268.8,530.4,268.1,531.0C267.2,531.9,266.1,532.4,264.8,532.4C263.6,532.4,262.4,531.8,261.2,530.6M262.4,529.4C263.3,530.3,264.2,530.7,265.0,530.8C265.9,530.8,266.6,530.6,267.2,530.0C267.8,529.4,268.0,528.7,268.0,527.9C267.9,527.0,267.4,526.1,266.5,525.2C265.6,524.4,264.8,523.9,264.0,523.9C263.1,523.8,262.4,524.1,261.8,524.7C261.2,525.2,261.0,526.0,261.0,526.8C261.1,527.6,261.6,528.5,262.4,529.4M272.9,525.9L266.0,518.9L267.0,517.8L268.1,518.9C267.9,518.1,267.8,517.6,267.8,517.2C267.9,516.8,268.1,516.4,268.4,516.2C268.8,515.8,269.3,515.5,270.0,515.3L270.7,516.8C270.2,517.0,269.8,517.2,269.5,517.4C269.3,517.7,269.1,518.0,269.1,518.4C269.0,518.7,269.1,519.1,269.3,519.5C269.6,520.0,270.0,520.5,270.5,521.0L274.1,524.7L272.9,525.9M273.3,518.6C272.0,517.3,271.4,516.0,271.5,514.6C271.5,513.5,272.0,512.5,272.9,511.7C273.8,510.7,274.9,510.2,276.2,510.3C277.4,510.3,278.6,510.8,279.7,511.9C280.6,512.8,281.2,513.7,281.4,514.5C281.6,515.2,281.7,516.0,281.4,516.8C281.2,517.6,280.8,518.3,280.2,518.9C279.2,519.9,278.1,520.4,276.9,520.4C275.6,520.3,274.4,519.7,273.3,518.6M274.5,517.4C275.4,518.2,276.2,518.7,277.1,518.8C277.9,518.8,278.6,518.6,279.2,518.0C279.8,517.4,280.0,516.7,280.0,515.8C279.9,515.0,279.4,514.1,278.5,513.2C277.7,512.4,276.8,511.9,276.0,511.8C275.2,511.8,274.4,512.1,273.9,512.6C273.3,513.2,273.0,513.9,273.1,514.8C273.1,515.6,273.6,516.5,274.5,517.4M284.3,514.5L283.4,513.5L282.7,504.0C282.2,504.5,281.8,505.0,281.4,505.3L278.6,508.2L277.6,507.2L283.3,501.5L284.1,502.3L284.8,510.5L284.8,512.0C285.3,511.5,285.8,511.0,286.3,510.5L289.5,507.3L290.5,508.3L284.3,514.5M283.1,499.2L281.7,497.8L282.9,496.7L284.2,498.0L283.1,499.2M291.3,507.5L284.4,500.5L285.5,499.3L292.5,506.3L291.3,507.5M297.8,499.2C297.8,500.0,297.6,500.7,297.4,501.3C297.1,501.8,296.8,502.4,296.3,502.8C295.5,503.6,294.7,504.0,294.0,504.0C293.2,504.1,292.5,503.8,291.9,503.2C291.6,502.9,291.3,502.5,291.2,502.0C291.1,501.6,291.1,501.2,291.1,500.7C291.2,500.3,291.4,499.9,291.6,499.5C291.8,499.2,292.1,498.8,292.5,498.3C293.3,497.2,293.9,496.4,294.2,495.8C294.0,495.6,293.9,495.5,293.9,495.5C293.4,495.0,292.9,494.7,292.5,494.8C292.0,494.8,291.4,495.1,290.8,495.7C290.2,496.3,289.9,496.8,289.8,497.2C289.8,497.7,289.9,498.2,290.3,498.9L289.0,499.9C288.6,499.3,288.4,498.7,288.3,498.1C288.2,497.6,288.3,497.0,288.6,496.4C288.9,495.8,289.4,495.2,290.0,494.6C290.6,494.0,291.1,493.6,291.6,493.3C292.1,493.1,292.6,493.0,293.0,493.0C293.4,493.1,293.8,493.2,294.1,493.5C294.4,493.6,294.8,494.0,295.3,494.5L296.9,496.1C298.0,497.2,298.7,497.8,299.0,498.1C299.4,498.3,299.8,498.5,300.2,498.6L298.9,499.9C298.6,499.7,298.2,499.5,297.8,499.2M295.1,496.7C294.8,497.3,294.4,498.1,293.6,499.1C293.2,499.6,292.9,500.0,292.8,500.3C292.7,500.6,292.7,500.9,292.7,501.2C292.8,501.5,292.9,501.7,293.1,501.9C293.5,502.2,293.8,502.4,294.3,502.3C294.7,502.3,295.2,502.1,295.6,501.6C296.1,501.2,296.4,500.7,296.6,500.1C296.7,499.5,296.7,499.0,296.5,498.5C296.4,498.1,296.1,497.6,295.5,497.1L295.1,496.7M301.6,497.2L300.2,495.9L301.6,494.5L302.9,495.9L301.6,497.2M305.1,494.8L306.4,493.8C306.8,494.2,307.2,494.3,307.6,494.2C308.1,494.1,308.6,493.9,309.1,493.4C309.7,492.8,310.0,492.3,310.1,491.8C310.2,491.2,310.1,490.7,309.8,490.2C309.6,489.9,309.1,489.4,308.3,488.6C308.4,489.8,308.1,490.7,307.3,491.5C306.4,492.4,305.3,492.8,304.1,492.7C302.8,492.5,301.7,491.9,300.8,491.0C300.1,490.3,299.6,489.6,299.3,488.8C299.0,488.0,298.9,487.2,299.0,486.4C299.2,485.7,299.6,485.0,300.2,484.3C301.0,483.5,302.0,483.2,303.2,483.3L302.4,482.5L303.5,481.4L309.5,487.4C310.6,488.5,311.2,489.4,311.5,490.0C311.7,490.7,311.7,491.4,311.5,492.2C311.3,492.9,310.8,493.6,310.1,494.3C309.3,495.2,308.4,495.6,307.5,495.8C306.7,495.9,305.9,495.6,305.1,494.8M301.9,489.7C302.8,490.6,303.7,491.1,304.5,491.1C305.2,491.2,305.9,490.9,306.4,490.4C307.0,489.8,307.2,489.2,307.2,488.4C307.1,487.6,306.7,486.8,305.8,485.9C304.9,485.0,304.1,484.6,303.3,484.5C302.5,484.5,301.8,484.7,301.3,485.2C300.7,485.8,300.5,486.4,300.6,487.2C300.6,488.0,301.1,488.8,301.9,489.7M304.3,478.0L302.9,476.6L304.1,475.5L305.5,476.8L304.3,478.0M312.5,486.2L305.6,479.3L306.8,478.1L313.7,485.1L312.5,486.2M316.9,479.8L318.1,480.7C317.8,481.1,317.6,481.4,317.3,481.7C316.9,482.1,316.5,482.4,316.1,482.5C315.7,482.6,315.4,482.5,315.1,482.4C314.8,482.3,314.2,481.9,313.5,481.2L309.5,477.2L308.7,478.0L307.7,477.1L308.6,476.2L306.9,474.5L307.4,472.6L309.8,475.1L311.0,473.9L311.9,474.8L310.7,476.0L314.8,480.1C315.1,480.4,315.4,480.6,315.5,480.6C315.6,480.7,315.8,480.7,315.9,480.7C316.1,480.6,316.2,480.5,316.4,480.4C316.5,480.2,316.7,480.0,316.9,479.8M318.9,479.9L309.3,470.3L310.5,469.1L313.9,472.5C313.8,471.4,314.2,470.3,315.0,469.5C315.6,469.0,316.1,468.6,316.7,468.5C317.3,468.3,317.8,468.3,318.4,468.5C318.9,468.7,319.5,469.1,320.2,469.8L324.6,474.2L323.4,475.4L319.0,471.0C318.4,470.4,317.8,470.1,317.3,470.1C316.8,470.1,316.3,470.3,315.8,470.8C315.5,471.1,315.2,471.5,315.1,472.0C315.0,472.5,315.0,473.0,315.2,473.4C315.4,473.9,315.7,474.4,316.3,474.9L320.1,478.7L318.9,479.9M330.5,468.3L329.5,467.2C329.8,468.6,329.4,469.7,328.5,470.6C328.1,471.0,327.6,471.3,327.1,471.5C326.6,471.7,326.1,471.8,325.7,471.7C325.3,471.7,324.9,471.5,324.5,471.2C324.2,471.0,323.8,470.7,323.3,470.2L319.0,465.9L320.2,464.7L324.0,468.6C324.6,469.2,325.1,469.6,325.3,469.7C325.7,470.0,326.1,470.1,326.5,470.0C327.0,469.9,327.3,469.7,327.7,469.4C328.1,469.0,328.3,468.6,328.4,468.1C328.6,467.6,328.5,467.1,328.3,466.7C328.2,466.3,327.8,465.7,327.2,465.1L323.4,461.4L324.6,460.2L331.6,467.2L330.5,468.3M334.1,464.7L333.0,465.8L323.4,456.1L324.6,455.0L328.0,458.4C327.9,457.3,328.2,456.3,329.0,455.5C329.4,455.1,329.9,454.8,330.5,454.6C331.0,454.4,331.6,454.3,332.1,454.4C332.7,454.4,333.3,454.6,333.9,454.9C334.4,455.2,335.0,455.6,335.5,456.1C336.7,457.3,337.3,458.5,337.4,459.8C337.4,461.0,337.0,462.1,336.2,462.9C335.4,463.7,334.4,464.0,333.3,463.8L334.1,464.7M330.6,461.1C331.4,462.0,332.1,462.5,332.7,462.6C333.7,462.8,334.5,462.6,335.2,462.0C335.7,461.5,335.9,460.8,335.8,460.0C335.7,459.2,335.3,458.3,334.4,457.4C333.5,456.5,332.6,456.0,331.8,456.0C331.0,455.9,330.4,456.1,329.9,456.6C329.3,457.1,329.1,457.8,329.2,458.6C329.3,459.5,329.7,460.3,330.6,461.1M341.2,457.6L339.8,456.3L341.2,454.9L342.5,456.3L341.2,457.6M336.1,446.2L334.7,444.8L335.9,443.6L337.3,445.0L336.1,446.2M344.4,454.4L337.4,447.5L338.6,446.3L345.5,453.2L344.4,454.4M343.3,448.6C342.0,447.3,341.4,446.0,341.5,444.6C341.6,443.5,342.0,442.5,342.9,441.7C343.8,440.7,344.9,440.2,346.2,440.2C347.4,440.3,348.6,440.8,349.7,441.9C350.6,442.8,351.2,443.7,351.4,444.5C351.6,445.2,351.7,446.0,351.4,446.8C351.2,447.6,350.8,448.3,350.2,448.9C349.2,449.9,348.1,450.4,346.9,450.4C345.6,450.3,344.4,449.7,343.3,448.6M344.5,447.3C345.4,448.2,346.2,448.7,347.1,448.8C347.9,448.8,348.6,448.6,349.2,448.0C349.8,447.4,350.0,446.7,350.0,445.8C349.9,445.0,349.4,444.1,348.5,443.2C347.7,442.3,346.8,441.9,346.0,441.8C345.2,441.8,344.4,442.1,343.9,442.6C343.3,443.2,343.0,443.9,343.1,444.8C343.1,445.6,343.6,446.5,344.5,447.3" stroke-opacity="0.50" fill="#868686" fill-opacity="0.50"/><path d="M250.8,751.3L249.6,750.4C249.9,750.2,250.2,750.0,250.4,749.8C250.6,749.5,250.8,749.3,250.9,749.0C250.9,748.8,250.9,748.5,250.9,748.3C250.8,748.1,250.7,747.7,250.4,747.0C250.3,746.9,250.3,746.8,250.2,746.6L240.6,742.3L241.8,741.0L247.3,743.6C248.0,743.9,248.7,744.3,249.4,744.7C249.0,744.0,248.7,743.4,248.3,742.7L245.8,737.1L246.9,735.9L251.4,745.7C251.9,746.7,252.2,747.5,252.3,747.9C252.5,748.5,252.5,749.0,252.4,749.5C252.3,749.9,252.1,750.3,251.7,750.7C251.5,750.9,251.2,751.2,250.8,751.3M251.2,739.8L250.0,738.6L253.6,735.0L254.8,736.2L251.2,739.8M261.4,740.7L260.2,739.8C260.5,739.6,260.8,739.4,261.0,739.2C261.2,738.9,261.4,738.7,261.5,738.4C261.5,738.2,261.5,737.9,261.5,737.7C261.4,737.5,261.3,737.1,261.0,736.4C260.9,736.3,260.9,736.2,260.8,736.0L251.2,731.7L252.4,730.4L257.9,733.0C258.6,733.3,259.3,733.7,260.0,734.1C259.6,733.4,259.3,732.7,258.9,732.0L256.4,726.5L257.5,725.3L262.0,735.0C262.5,736.1,262.8,736.8,262.9,737.3C263.1,737.9,263.1,738.4,263.0,738.9C262.9,739.3,262.7,739.7,262.3,740.1C262.1,740.3,261.8,740.5,261.4,740.7M261.2,728.6C259.9,727.3,259.3,726.0,259.4,724.6C259.5,723.5,260.0,722.5,260.9,721.7C261.8,720.7,262.9,720.3,264.2,720.3C265.4,720.3,266.6,720.9,267.7,722.0C268.6,722.9,269.1,723.7,269.4,724.5C269.6,725.3,269.6,726.1,269.4,726.9C269.2,727.7,268.8,728.4,268.1,729.0C267.2,729.9,266.1,730.4,264.8,730.4C263.6,730.4,262.4,729.8,261.2,728.6M262.4,727.4C263.3,728.3,264.2,728.7,265.0,728.8C265.9,728.8,266.6,728.6,267.2,728.0C267.8,727.4,268.0,726.7,268.0,725.9C267.9,725.0,267.4,724.1,266.5,723.2C265.6,722.4,264.8,721.9,264.0,721.9C263.1,721.8,262.4,722.1,261.8,722.7C261.2,723.2,261.0,724.0,261.0,724.8C261.1,725.6,261.6,726.5,262.4,727.4M272.9,723.9L266.0,716.9L267.0,715.8L268.1,716.9C267.9,716.1,267.8,715.6,267.8,715.2C267.9,714.8,268.1,714.4,268.4,714.2C268.8,713.8,269.3,713.5,270.0,713.3L270.7,714.8C270.2,715.0,269.8,715.2,269.5,715.4C269.3,715.7,269.1,716.0,269.1,716.4C269.0,716.7,269.1,717.1,269.3,717.5C269.6,718.0,270.0,718.5,270.5,719.0L274.1,722.7L272.9,723.9M273.3,716.6C272.0,715.3,271.4,714.0,271.5,712.6C271.5,711.5,272.0,710.5,272.9,709.7C273.8,708.7,274.9,708.2,276.2,708.3C277.4,708.3,278.6,708.8,279.7,709.9C280.6,710.8,281.2,711.7,281.4,712.5C281.6,713.2,281.7,714.0,281.4,714.8C281.2,715.6,280.8,716.3,280.2,716.9C279.2,717.9,278.1,718.4,276.9,718.4C275.6,718.3,274.4,717.7,273.3,716.6M274.5,715.4C275.4,716.2,276.2,716.7,277.1,716.8C277.9,716.8,278.6,716.6,279.2,716.0C279.8,715.4,280.0,714.7,280.0,713.8C279.9,713.0,279.4,712.1,278.5,711.2C277.7,710.4,276.8,709.9,276.0,709.8C275.2,709.8,274.4,710.1,273.9,710.6C273.3,711.2,273.0,711.9,273.1,712.8C273.1,713.6,273.6,714.5,274.5,715.4M284.3,712.5L283.4,711.5L282.7,702.0C282.2,702.5,281.8,703.0,281.4,703.3L278.6,706.2L277.6,705.2L283.3,699.5L284.1,700.3L284.8,708.5L284.8,710.0C285.3,709.5,285.8,709.0,286.3,708.5L289.5,705.3L290.5,706.3L284.3,712.5M283.1,697.2L281.7,695.8L282.9,694.7L284.2,696.0L283.1,697.2M291.3,705.5L284.4,698.5L285.5,697.3L292.5,704.3L291.3,705.5M297.8,697.2C297.8,698.0,297.6,698.7,297.4,699.3C297.1,699.8,296.8,700.4,296.3,700.8C295.5,701.6,294.7,702.0,294.0,702.0C293.2,702.1,292.5,701.8,291.9,701.2C291.6,700.9,291.3,700.5,291.2,700.0C291.1,699.6,291.1,699.2,291.1,698.7C291.2,698.3,291.4,697.9,291.6,697.5C291.8,697.2,292.1,696.8,292.5,696.3C293.3,695.2,293.9,694.4,294.2,693.8C294.0,693.6,293.9,693.5,293.9,693.5C293.4,693.0,292.9,692.7,292.5,692.8C292.0,692.8,291.4,693.1,290.8,693.7C290.2,694.3,289.9,694.8,289.8,695.2C289.8,695.7,289.9,696.2,290.3,696.9L289.0,697.9C288.6,697.3,288.4,696.7,288.3,696.1C288.2,695.6,288.3,695.0,288.6,694.4C288.9,693.8,289.4,693.2,290.0,692.6C290.6,692.0,291.1,691.6,291.6,691.3C292.1,691.1,292.6,691.0,293.0,691.0C293.4,691.1,293.8,691.2,294.1,691.5C294.4,691.6,294.8,692.0,295.3,692.5L296.9,694.1C298.0,695.2,298.7,695.8,299.0,696.1C299.4,696.3,299.8,696.5,300.2,696.6L298.9,697.9C298.6,697.7,298.2,697.5,297.8,697.2M295.1,694.7C294.8,695.3,294.4,696.1,293.6,697.1C293.2,697.6,292.9,698.0,292.8,698.3C292.7,698.6,292.7,698.9,292.7,699.2C292.8,699.5,292.9,699.7,293.1,699.9C293.5,700.2,293.8,700.4,294.3,700.3C294.7,700.3,295.2,700.1,295.6,699.6C296.1,699.2,296.4,698.7,296.6,698.1C296.7,697.5,296.7,697.0,296.5,696.5C296.4,696.1,296.1,695.6,295.5,695.1L295.1,694.7M301.6,695.2L300.2,693.9L301.6,692.5L302.9,693.9L301.6,695.2M305.1,692.8L306.4,691.8C306.8,692.2,307.2,692.3,307.6,692.2C308.1,692.1,308.6,691.9,309.1,691.4C309.7,690.8,310.0,690.3,310.1,689.8C310.2,689.2,310.1,688.7,309.8,688.2C309.6,687.9,309.1,687.4,308.3,686.6C308.4,687.8,308.1,688.7,307.3,689.5C306.4,690.4,305.3,690.8,304.1,690.7C302.8,690.5,301.7,689.9,300.8,689.0C300.1,688.3,299.6,687.6,299.3,686.8C299.0,686.0,298.9,685.2,299.0,684.4C299.2,683.7,299.6,683.0,300.2,682.3C301.0,681.5,302.0,681.2,303.2,681.3L302.4,680.5L303.5,679.4L309.5,685.4C310.6,686.5,311.2,687.4,311.5,688.0C311.7,688.7,311.7,689.4,311.5,690.2C311.3,690.9,310.8,691.6,310.1,692.3C309.3,693.2,308.4,693.6,307.5,693.8C306.7,693.9,305.9,693.6,305.1,692.8M301.9,687.7C302.8,688.6,303.7,689.1,304.5,689.1C305.2,689.2,305.9,688.9,306.4,688.4C307.0,687.8,307.2,687.2,307.2,686.4C307.1,685.6,306.7,684.8,305.8,683.9C304.9,683.0,304.1,682.6,303.3,682.5C302.5,682.5,301.8,682.7,301.3,683.2C300.7,683.8,300.5,684.4,300.6,685.2C300.6,686.0,301.1,686.8,301.9,687.7M304.3,676.0L302.9,674.6L304.1,673.5L305.5,674.8L304.3,676.0M312.5,684.2L305.6,677.3L306.8,676.1L313.7,683.1L312.5,684.2M316.9,677.8L318.1,678.7C317.8,679.1,317.6,679.4,317.3,679.7C316.9,680.1,316.5,680.4,316.1,680.5C315.7,680.6,315.4,680.5,315.1,680.4C314.8,680.3,314.2,679.9,313.5,679.2L309.5,675.2L308.7,676.0L307.7,675.1L308.6,674.2L306.9,672.5L307.4,670.6L309.8,673.1L311.0,671.9L311.9,672.8L310.7,674.0L314.8,678.1C315.1,678.4,315.4,678.6,315.5,678.6C315.6,678.7,315.8,678.7,315.9,678.7C316.1,678.6,316.2,678.5,316.4,678.4C316.5,678.2,316.7,678.0,316.9,677.8M318.9,677.9L309.3,668.3L310.5,667.1L313.9,670.5C313.8,669.4,314.2,668.3,315.0,667.5C315.6,667.0,316.1,666.6,316.7,666.5C317.3,666.3,317.8,666.3,318.4,666.5C318.9,666.7,319.5,667.1,320.2,667.8L324.6,672.2L323.4,673.4L319.0,669.0C318.4,668.4,317.8,668.1,317.3,668.1C316.8,668.1,316.3,668.3,315.8,668.8C315.5,669.1,315.2,669.5,315.1,670.0C315.0,670.5,315.0,671.0,315.2,671.4C315.4,671.9,315.7,672.4,316.3,672.9L320.1,676.7L318.9,677.9M330.5,666.3L329.5,665.2C329.8,666.6,329.4,667.7,328.5,668.6C328.1,669.0,327.6,669.3,327.1,669.5C326.6,669.7,326.1,669.8,325.7,669.7C325.3,669.7,324.9,669.5,324.5,669.2C324.2,669.0,323.8,668.7,323.3,668.2L319.0,663.9L320.2,662.7L324.0,666.6C324.6,667.2,325.1,667.6,325.3,667.7C325.7,668.0,326.1,668.1,326.5,668.0C327.0,667.9,327.3,667.7,327.7,667.4C328.1,667.0,328.3,666.6,328.4,666.1C328.6,665.6,328.5,665.1,328.3,664.7C328.2,664.3,327.8,663.7,327.2,663.1L323.4,659.4L324.6,658.2L331.6,665.2L330.5,666.3M334.1,662.7L333.0,663.8L323.4,654.1L324.6,653.0L328.0,656.4C327.9,655.3,328.2,654.3,329.0,653.5C329.4,653.1,329.9,652.8,330.5,652.6C331.0,652.4,331.6,652.3,332.1,652.4C332.7,652.4,333.3,652.6,333.9,652.9C334.4,653.2,335.0,653.6,335.5,654.1C336.7,655.3,337.3,656.5,337.4,657.8C337.4,659.0,337.0,660.1,336.2,660.9C335.4,661.7,334.4,662.0,333.3,661.8L334.1,662.7M330.6,659.1C331.4,660.0,332.1,660.5,332.7,660.6C333.7,660.8,334.5,660.6,335.2,660.0C335.7,659.5,335.9,658.8,335.8,658.0C335.7,657.2,335.3,656.3,334.4,655.4C333.5,654.5,332.6,654.0,331.8,654.0C331.0,653.9,330.4,654.1,329.9,654.6C329.3,655.1,329.1,655.8,329.2,656.6C329.3,657.5,329.7,658.3,330.6,659.1M341.2,655.6L339.8,654.3L341.2,652.9L342.5,654.3L341.2,655.6M336.1,644.2L334.7,642.8L335.9,641.6L337.3,643.0L336.1,644.2M344.4,652.4L337.4,645.5L338.6,644.3L345.5,651.2L344.4,652.4M343.3,646.6C342.0,645.3,341.4,644.0,341.5,642.6C341.6,641.5,342.0,640.5,342.9,639.7C343.8,638.7,344.9,638.2,346.2,638.2C347.4,638.3,348.6,638.8,349.7,639.9C350.6,640.8,351.2,641.7,351.4,642.5C351.6,643.2,351.7,644.0,351.4,644.8C351.2,645.6,350.8,646.3,350.2,646.9C349.2,647.9,348.1,648.4,346.9,648.4C345.6,648.3,344.4,647.7,343.3,646.6M344.5,645.3C345.4,646.2,346.2,646.7,347.1,646.8C347.9,646.8,348.6,646.6,349.2,646.0C349.8,645.4,350.0,644.7,350.0,643.8C349.9,643.0,349.4,642.1,348.5,641.2C347.7,640.3,346.8,639.9,346.0,639.8C345.2,639.8,344.4,640.1,343.9,640.6C343.3,641.2,343.0,641.9,343.1,642.8C343.1,643.6,343.6,644.5,344.5,645.3" stroke-opacity="0.50" fill="#868686" fill-opacity="0.50"/></g></svg>