<svg xmlns="http://www.w3.org/2000/svg" viewBox="0 0 515.8 503"><defs><style>.cls-1,.cls-23,.cls-4{fill:none;}.cls-1,.cls-4{stroke:#ed1c24;}.cls-1,.cls-2,.cls-23,.cls-4{stroke-miterlimit:10;}.cls-2,.cls-3{fill:#939598;}.cls-2{stroke:#6d6e71;}.cls-12,.cls-14,.cls-15,.cls-16,.cls-17,.cls-18,.cls-3,.cls-5,.cls-8{font-size:12px;}.cls-11,.cls-3,.cls-5{font-family:JuliaMono-RegularLatin, JuliaMono;}.cls-4{stroke-dasharray:7 7;}.cls-14,.cls-15,.cls-16,.cls-19,.cls-21,.cls-5,.cls-9{fill:#ed1c24;}.cls-19,.cls-21,.cls-6{font-size:14px;}.cls-7{font-size:8px;}.cls-8{fill:#27aae1;}.cls-15,.cls-18,.cls-20,.cls-21,.cls-8{font-family:JuliaMono-Medium, JuliaMono;font-weight:500;}.cls-10,.cls-17,.cls-18{fill:#00aeef;}.cls-11{font-size:18px;}.cls-11,.cls-24{fill:#00a14b;}.cls-13{fill:#231f20;}.cls-16,.cls-19,.cls-22{font-family:MyriadPro-Regular, Myriad Pro;}.cls-22{font-weight:400;}.cls-23{stroke:#00aeef;}</style></defs><g id="Layer_2" data-name="Layer 2"><g id="Layer_1-2" data-name="Layer 1"><path class="cls-1" d="M134.69,443.78c14-.44,35.92-3.42,57.41-18.56,42.28-29.78,45.67-80.44,67.85-80.44s25.57,50.66,67.84,80.44c21.5,15.14,43.45,18.12,57.41,18.56"/><line class="cls-2" x1="8.2" y1="443.78" x2="512.2" y2="443.78"/><line class="cls-2" x1="8.2" y1="443.78" x2="8.2" y2="452.24"/><line class="cls-2" x1="44.2" y1="443.78" x2="44.2" y2="452.24"/><line class="cls-2" x1="80.2" y1="443.78" x2="80.2" y2="452.24"/><line class="cls-2" x1="152.2" y1="443.78" x2="152.2" y2="452.24"/><line class="cls-2" x1="116.2" y1="443.78" x2="116.2" y2="452.24"/><line class="cls-2" x1="224.2" y1="443.78" x2="224.2" y2="452.24"/><line class="cls-2" x1="188.2" y1="443.78" x2="188.2" y2="452.24"/><line class="cls-2" x1="332.2" y1="443.78" x2="332.2" y2="452.24"/><line class="cls-2" x1="296.2" y1="443.78" x2="296.2" y2="452.24"/><line class="cls-2" x1="368.2" y1="443.78" x2="368.2" y2="452.24"/><line class="cls-2" x1="440.2" y1="443.78" x2="440.2" y2="452.24"/><line class="cls-2" x1="404.2" y1="443.78" x2="404.2" y2="452.24"/><line class="cls-2" x1="260.2" y1="443.78" x2="260.2" y2="452.24"/><line class="cls-2" x1="476.2" y1="452.78" x2="476.2" y2="443.24"/><line class="cls-2" x1="512.2" y1="453.32" x2="512.2" y2="443.78"/><text class="cls-3" transform="translate(216 461.78)">-1</text><text class="cls-3" transform="translate(256.6 461.78)">0</text><text class="cls-3" transform="translate(292.6 461.78)">1</text><text class="cls-3" transform="translate(328.6 461.78)">2</text><text class="cls-3" transform="translate(364.6 461.78)">3</text><text class="cls-3" transform="translate(400.6 461.78)">4</text><text class="cls-3" transform="translate(436.6 461.78)">5</text><text class="cls-3" transform="translate(472.6 461.78)">6</text><text class="cls-3" transform="translate(508.6 461.78)">7</text><text class="cls-3" transform="translate(72 461.78)">-5</text><text class="cls-3" transform="translate(108 461.78)">-4</text><text class="cls-3" transform="translate(144 461.78)">-3</text><text class="cls-3" transform="translate(0 461.78)">-7</text><text class="cls-3" transform="translate(36 461.78)">-6</text><text class="cls-3" transform="translate(180 461.78)">-2</text><line class="cls-1" x1="187.95" y1="443.78" x2="187.95" y2="440.28"/><line class="cls-4" x1="187.95" y1="433.28" x2="187.95" y2="324.78"/><line class="cls-1" x1="187.95" y1="321.28" x2="187.95" y2="317.78"/><line class="cls-1" x1="331.55" y1="443.78" x2="331.55" y2="440.28"/><line class="cls-4" x1="331.55" y1="433.28" x2="331.55" y2="324.78"/><line class="cls-1" x1="331.55" y1="321.28" x2="331.55" y2="317.78"/><text class="cls-5" transform="translate(198 316.14)">Null distribution<tspan class="cls-6"><tspan x="21" y="16.8">Î¼</tspan><tspan class="cls-7" x="29.4" y="16.8">trmt</tspan><tspan x="48.6" y="16.8">âˆ’Î¼</tspan><tspan class="cls-7" x="65.4" y="16.8">ctrl</tspan><tspan x="84.6" y="16.8">=0</tspan></tspan></text><text class="cls-8" transform="translate(7.2 316.14)">Alternative distribution<tspan class="cls-6"><tspan x="0" y="16.8">Î¼</tspan><tspan class="cls-7" x="8.4" y="16.8">trmt</tspan><tspan x="27.6" y="16.8">âˆ’Î¼</tspan><tspan class="cls-7" x="44.4" y="16.8">ctrl</tspan><tspan x="63.6" y="16.8">â‰ 0</tspan></tspan></text><path class="cls-9" d="M259.28,171.66c.28.49.48.94.79,1.39a5.48,5.48,0,0,0,3.24,2,17.05,17.05,0,0,0,3.13.51c1.26.1,2.53.14,3.8.13h14.61c1.46,0,2.9,0,4.33.17,2.39.22,4.1.84,5.06,1.88a12.66,12.66,0,0,1,.91,1.24.76.76,0,0,0,.14.11s.12-.07.14-.11a5,5,0,0,1,1.26-1.53,8.42,8.42,0,0,1,4.37-1.53,41.38,41.38,0,0,1,5-.23h14.22a38.25,38.25,0,0,0,4.56-.24c2.91-.34,4.81-1.19,5.66-2.53a10.61,10.61,0,0,0,.6-1.22s.11.09.11.14a5.35,5.35,0,0,1-1,3.21c-.86,1.13-2.55,1.86-5,2.2a33.19,33.19,0,0,1-4.14.32l-6.51,0H304.46a34.25,34.25,0,0,0-3.93.19,6.59,6.59,0,0,0-4.13,1.65,15,15,0,0,0-.94,1.24l0,.08-.14.08s-.09-.05-.11-.08a13.45,13.45,0,0,0-.8-1.11,5.38,5.38,0,0,0-3-1.62,14.68,14.68,0,0,0-2.79-.35q-1.69-.07-3.39-.09H270.32a31.56,31.56,0,0,1-5.63-.43c-2.43-.43-3.88-1.27-4.63-2.41a4.84,4.84,0,0,1-.75-2c0-.31-.08-.61-.11-.92C259.2,171.79,259.25,171.74,259.28,171.66Z"/><path class="cls-9" d="M187.28,459.66c.28.49.48.94.79,1.39a5.48,5.48,0,0,0,3.24,2,17.05,17.05,0,0,0,3.13.51c1.26.1,2.53.14,3.8.13h14.61c1.46,0,2.9,0,4.33.17,2.39.22,4.1.84,5.06,1.88a12.66,12.66,0,0,1,.91,1.24.76.76,0,0,0,.14.11c.05,0,.12-.07.14-.11a5,5,0,0,1,1.26-1.53,8.42,8.42,0,0,1,4.37-1.53,41.38,41.38,0,0,1,5-.23h14.22a38.25,38.25,0,0,0,4.56-.24c2.91-.34,4.81-1.19,5.66-2.53a10.61,10.61,0,0,0,.6-1.22c0,.05.11.09.11.14a5.35,5.35,0,0,1-1,3.21c-.86,1.13-2.55,1.86-5,2.2a33.19,33.19,0,0,1-4.14.32l-6.51,0H232.46a34.25,34.25,0,0,0-3.93.19,6.59,6.59,0,0,0-4.13,1.65,15,15,0,0,0-.94,1.24l-.05.08-.14.08s-.09-.05-.11-.08a13.45,13.45,0,0,0-.8-1.11,5.38,5.38,0,0,0-3-1.62,14.68,14.68,0,0,0-2.79-.35q-1.69-.07-3.39-.09H198.32a31.56,31.56,0,0,1-5.63-.43c-2.43-.43-3.88-1.27-4.63-2.41a4.84,4.84,0,0,1-.75-2c0-.31-.08-.61-.11-.92C187.2,459.79,187.25,459.74,187.28,459.66Z"/><path class="cls-10" d="M331.24,171.66c.14.51.24,1,.39,1.46a3.54,3.54,0,0,0,1.63,2.09,4.74,4.74,0,0,0,1.56.54,11,11,0,0,0,1.9.14H344a12,12,0,0,1,2.16.18,3.31,3.31,0,0,1,2.53,2c.19.42.31.87.46,1.31a.34.34,0,0,0,.07.11.75.75,0,0,0,.07-.12,5.86,5.86,0,0,1,.63-1.61,3.35,3.35,0,0,1,2.18-1.61,10.51,10.51,0,0,1,2.5-.25h7.1a9.29,9.29,0,0,0,2.29-.25,3.74,3.74,0,0,0,2.83-2.67c.12-.42.2-.85.3-1.28,0,0,.05.09.05.14a10.26,10.26,0,0,1-.5,3.38,3.58,3.58,0,0,1-2.5,2.32,7.72,7.72,0,0,1-2.08.33c-1.08,0-2.17,0-3.25,0h-5a8.06,8.06,0,0,0-2,.2,2.92,2.92,0,0,0-2.07,1.74c-.19.42-.32.87-.47,1.31a.41.41,0,0,1,0,.08s0,0-.07.08,0,0-.05-.08c-.13-.39-.24-.79-.4-1.17a3.07,3.07,0,0,0-1.49-1.7,3.74,3.74,0,0,0-1.39-.38c-.56-.05-1.13-.09-1.69-.09h-7.45a8,8,0,0,1-2.82-.45,3.74,3.74,0,0,1-2.31-2.54,9.27,9.27,0,0,1-.37-2.08c0-.32,0-.65-.06-1A.93.93,0,0,1,331.24,171.66Z"/><path class="cls-10" d="M151.24,459.66c.14.51.24,1,.39,1.46a3.54,3.54,0,0,0,1.63,2.09,4.74,4.74,0,0,0,1.56.54,11,11,0,0,0,1.9.14H164a12,12,0,0,1,2.16.18,3.31,3.31,0,0,1,2.53,2c.19.42.31.87.46,1.31a.34.34,0,0,0,.07.11.75.75,0,0,0,.07-.12,5.86,5.86,0,0,1,.63-1.61,3.35,3.35,0,0,1,2.18-1.61,10.51,10.51,0,0,1,2.5-.25h7.1a9.29,9.29,0,0,0,2.29-.25,3.74,3.74,0,0,0,2.83-2.67c.12-.42.2-.85.3-1.28,0,0,0,.09,0,.14a10.26,10.26,0,0,1-.5,3.38,3.58,3.58,0,0,1-2.5,2.32,7.72,7.72,0,0,1-2.08.33c-1.08,0-2.17,0-3.25,0h-5a8.06,8.06,0,0,0-2,.2,2.92,2.92,0,0,0-2.07,1.74c-.19.42-.32.87-.47,1.31a.41.41,0,0,1,0,.08s0,.05-.07.08,0-.05,0-.08c-.13-.39-.24-.79-.4-1.17a3.07,3.07,0,0,0-1.49-1.7,3.74,3.74,0,0,0-1.39-.38c-.56-.05-1.13-.09-1.69-.09h-7.45a8,8,0,0,1-2.82-.45,3.74,3.74,0,0,1-2.31-2.54,9.27,9.27,0,0,1-.37-2.08c0-.32,0-.65-.06-1A.93.93,0,0,1,151.24,459.66Z"/><text class="cls-11" transform="translate(86.67 494)">|Î¼<tspan class="cls-12" x="21.6" y="0">trmt</tspan><tspan x="50.4" y="0">âˆ’Î¼</tspan><tspan class="cls-12" x="72" y="0">ctrl</tspan><tspan x="100.8" y="0">|</tspan><tspan class="cls-13" x="111.6" y="0" xml:space="preserve"> = </tspan><tspan class="cls-9" x="144" y="0">|Z</tspan><tspan class="cls-14" x="165.6" y="0"> </tspan><tspan class="cls-15" x="172.8" y="0">ğ›¼</tspan><tspan class="cls-16" x="180" y="0">/2</tspan><tspan class="cls-9" x="190.27" y="0">|*SE</tspan><tspan class="cls-13" x="233.47" y="0" xml:space="preserve"> + </tspan><tspan class="cls-10" x="265.87" y="0">Z</tspan><tspan class="cls-17" x="276.67" y="0" xml:space="preserve"> 1-ğ›½</tspan><tspan class="cls-18" x="298.27" y="0"> </tspan><tspan class="cls-10" x="312.67" y="0">*SE</tspan></text><text class="cls-19" transform="translate(313.23 301.84)">1âˆ’<tspan class="cls-20" x="15.53" y="0">ğ›¼</tspan><tspan x="23.93" y="0">/2</tspan></text><text class="cls-21" transform="translate(176.51 301.84)">ğ›¼<tspan class="cls-22" x="8.4" y="0">/2</tspan></text><path class="cls-23" d="M27.33,443.78c14-.44,35.91-3.42,57.4-18.56,42.28-29.78,45.67-80.44,67.85-80.44s25.57,50.66,67.84,80.44c21.5,15.14,43.45,18.12,57.41,18.56"/><path class="cls-1" d="M134.69,153.66c14-.44,35.92-3.42,57.41-18.56,42.28-29.78,45.67-80.44,67.85-80.44s25.57,50.66,67.84,80.44c21.5,15.14,43.45,18.12,57.41,18.56"/><line class="cls-2" x1="8.2" y1="153.66" x2="512.2" y2="153.66"/><line class="cls-2" x1="8.2" y1="153.66" x2="8.2" y2="162.12"/><line class="cls-2" x1="44.2" y1="153.66" x2="44.2" y2="162.12"/><line class="cls-2" x1="80.2" y1="153.66" x2="80.2" y2="162.12"/><line class="cls-2" x1="152.2" y1="153.66" x2="152.2" y2="162.12"/><line class="cls-2" x1="116.2" y1="153.66" x2="116.2" y2="162.12"/><line class="cls-2" x1="224.2" y1="153.66" x2="224.2" y2="162.12"/><line class="cls-2" x1="188.2" y1="153.66" x2="188.2" y2="162.12"/><line class="cls-2" x1="332.2" y1="153.66" x2="332.2" y2="162.12"/><line class="cls-2" x1="296.2" y1="153.66" x2="296.2" y2="162.12"/><line class="cls-2" x1="368.2" y1="153.66" x2="368.2" y2="162.12"/><line class="cls-2" x1="440.2" y1="153.66" x2="440.2" y2="162.12"/><line class="cls-2" x1="404.2" y1="153.66" x2="404.2" y2="162.12"/><line class="cls-2" x1="260.2" y1="153.66" x2="260.2" y2="162.12"/><line class="cls-2" x1="476.2" y1="162.66" x2="476.2" y2="153.12"/><line class="cls-2" x1="512.2" y1="163.2" x2="512.2" y2="153.66"/><text class="cls-3" transform="translate(216 171.66)">-1</text><text class="cls-3" transform="translate(256.6 171.66)">0</text><text class="cls-3" transform="translate(292.6 171.66)">1</text><text class="cls-3" transform="translate(328.6 171.66)">2</text><text class="cls-3" transform="translate(364.6 171.66)">3</text><text class="cls-3" transform="translate(400.6 171.66)">4</text><text class="cls-3" transform="translate(436.6 171.66)">5</text><text class="cls-3" transform="translate(472.6 171.66)">6</text><text class="cls-3" transform="translate(508.6 171.66)">7</text><text class="cls-3" transform="translate(72 171.66)">-5</text><text class="cls-3" transform="translate(108 171.66)">-4</text><text class="cls-3" transform="translate(144 171.66)">-3</text><text class="cls-3" transform="translate(0 171.66)">-7</text><text class="cls-3" transform="translate(36 171.66)">-6</text><text class="cls-3" transform="translate(180 171.66)">-2</text><line class="cls-1" x1="187.95" y1="153.66" x2="187.95" y2="150.16"/><line class="cls-4" x1="187.95" y1="143.16" x2="187.95" y2="34.66"/><line class="cls-1" x1="187.95" y1="31.16" x2="187.95" y2="27.66"/><line class="cls-1" x1="331.55" y1="153.66" x2="331.55" y2="150.16"/><line class="cls-4" x1="331.55" y1="143.16" x2="331.55" y2="34.66"/><line class="cls-1" x1="331.55" y1="31.16" x2="331.55" y2="27.66"/><text class="cls-5" transform="translate(198 28.14)">Null distribution<tspan class="cls-6"><tspan x="21" y="16.8">Î¼</tspan><tspan class="cls-7" x="29.4" y="16.8">trmt</tspan><tspan x="48.6" y="16.8">âˆ’Î¼</tspan><tspan class="cls-7" x="65.4" y="16.8">ctrl</tspan><tspan x="84.6" y="16.8">=0</tspan></tspan></text><text class="cls-8" transform="translate(341.7 28.14)">Alternative distribution<tspan class="cls-6"><tspan x="92.4" y="16.8">Î¼</tspan><tspan class="cls-7" x="100.8" y="16.8">trmt</tspan><tspan x="120" y="16.8">âˆ’Î¼</tspan><tspan class="cls-7" x="136.8" y="16.8">ctrl</tspan><tspan x="156" y="16.8">â‰ 0</tspan></tspan></text><text class="cls-11" transform="translate(88.27 203.88)">|Î¼<tspan class="cls-12" x="21.6" y="0">trmt</tspan><tspan x="50.4" y="0">âˆ’Î¼</tspan><tspan class="cls-12" x="72" y="0">ctrl</tspan><tspan x="100.8" y="0">|</tspan><tspan class="cls-13" x="111.6" y="0" xml:space="preserve"> = </tspan><tspan class="cls-9" x="144" y="0">Z</tspan><tspan class="cls-14" x="154.8" y="0"> </tspan><tspan class="cls-16" x="162" y="0">1âˆ’</tspan><tspan class="cls-15" x="175.3" y="0">ğ›¼</tspan><tspan class="cls-16" x="182.5" y="0" xml:space="preserve">/2  </tspan><tspan class="cls-9" x="197.87" y="0">*SE</tspan><tspan class="cls-13" x="230.26" y="0" xml:space="preserve"> + </tspan><tspan class="cls-10" x="262.66" y="0">|Z</tspan><tspan class="cls-17" x="284.26" y="0" xml:space="preserve"> ğ›½</tspan><tspan class="cls-18" x="291.46" y="0"></tspan><tspan class="cls-10" x="298.66" y="0">|*SE</tspan></text><text class="cls-19" transform="translate(313.23 11.72)">1âˆ’<tspan class="cls-20" x="15.53" y="0">ğ›¼</tspan><tspan x="23.93" y="0">/2</tspan></text><text class="cls-21" transform="translate(176.51 11.72)">ğ›¼<tspan class="cls-22" x="8.4" y="0">/2</tspan></text><path class="cls-23" d="M246,153.66c14-.44,35.92-3.42,57.41-18.56,42.28-29.78,45.67-80.44,67.85-80.44s25.57,50.66,67.84,80.44c21.5,15.14,43.45,18.12,57.41,18.56"/><path class="cls-24" d="M151.33,440.21c.4-.88.71-1.7,1.17-2.5a8.21,8.21,0,0,1,4.87-3.59,21.77,21.77,0,0,1,4.69-.91,56.94,56.94,0,0,1,5.7-.25q11,0,21.92,0a61.1,61.1,0,0,0,6.5-.31c3.57-.41,6.14-1.52,7.58-3.4a21.13,21.13,0,0,0,1.37-2.25,1,1,0,0,1,.21-.19c.07.07.18.13.21.2a8.66,8.66,0,0,0,1.89,2.77,11.36,11.36,0,0,0,6.55,2.76,53.24,53.24,0,0,0,7.49.42q10.67,0,21.32,0a48.65,48.65,0,0,1,6.85.43c4.37.63,7.21,2.16,8.49,4.58a23.58,23.58,0,0,1,.9,2.2c0-.08.16-.16.16-.24a11.09,11.09,0,0,0-1.49-5.8c-1.29-2.05-3.84-3.36-7.52-4a40,40,0,0,0-6.22-.57c-3.25-.05-6.51-.05-9.76-.06-5,0-10.08,0-15.12,0a44.36,44.36,0,0,1-5.89-.35c-3-.42-5-1.44-6.2-3-.56-.73-.95-1.49-1.42-2.24a.37.37,0,0,0-.07-.14,1.91,1.91,0,0,0-.21-.14c-.05,0-.13.09-.16.14-.4.67-.73,1.35-1.2,2a7.76,7.76,0,0,1-4.46,2.92,18.82,18.82,0,0,1-4.18.65c-1.69.08-3.39.14-5.08.15H167.88a41.33,41.33,0,0,0-8.45.78c-3.64.78-5.82,2.3-6.94,4.36a9.72,9.72,0,0,0-1.12,3.55c-.07.56-.12,1.11-.17,1.67C151.19,440,151.27,440.07,151.33,440.21Z"/><path class="cls-24" d="M259.33,152.21c.4-.88.71-1.7,1.17-2.5a8.21,8.21,0,0,1,4.87-3.59,21.77,21.77,0,0,1,4.69-.91,56.94,56.94,0,0,1,5.7-.25h21.92a61.1,61.1,0,0,0,6.5-.31c3.57-.41,6.14-1.52,7.58-3.4a21.13,21.13,0,0,0,1.37-2.25,1,1,0,0,1,.21-.19c.07.07.18.13.21.2a8.66,8.66,0,0,0,1.89,2.77,11.36,11.36,0,0,0,6.55,2.76,53.24,53.24,0,0,0,7.49.42H350.8a48.65,48.65,0,0,1,6.85.43c4.37.63,7.21,2.16,8.49,4.58a23.58,23.58,0,0,1,.9,2.2c0-.08.16-.16.16-.24a11.09,11.09,0,0,0-1.49-5.8c-1.29-2-3.84-3.36-7.52-4a40,40,0,0,0-6.22-.57c-3.25-.05-6.51-.05-9.76-.06-5,0-10.08,0-15.12,0a44.36,44.36,0,0,1-5.89-.35c-3-.42-5-1.44-6.2-3-.56-.73-.95-1.49-1.42-2.24a.37.37,0,0,0-.07-.14,1.91,1.91,0,0,0-.21-.14c-.05.05-.13.09-.16.14-.4.67-.73,1.35-1.2,2a7.76,7.76,0,0,1-4.46,2.92,18.82,18.82,0,0,1-4.18.65c-1.69.08-3.39.14-5.08.15H275.88a41.33,41.33,0,0,0-8.45.78c-3.64.78-5.82,2.3-6.94,4.36a9.72,9.72,0,0,0-1.12,3.55c-.07.56-.12,1.11-.17,1.67C259.19,152,259.27,152.07,259.33,152.21Z"/></g></g></svg>